<svg width="50" height="48" viewBox="0 0 50 48" fill="none" xmlns="http://www.w3.org/2000/svg">
<rect x="0.105469" width="48.9361" height="47.0295" rx="5.08427" fill="#F9F1DF"/>
<path d="M13.9805 27.9631V15.888C13.9805 14.7652 14.2841 13.87 14.8914 13.2022C15.4987 12.5345 16.2984 12.0261 17.2905 11.6769C18.2827 11.3278 19.4138 11.0948 20.684 10.9779C21.9542 10.8609 23.2504 10.8029 24.5727 10.8037C26.0291 10.8037 27.403 10.8622 28.6944 10.9791C29.9858 11.0961 31.1112 11.3291 32.0707 11.6782C33.0302 12.0273 33.7857 12.5358 34.3374 13.2035C34.8891 13.8712 35.1649 14.7661 35.1649 15.888V27.9631C35.1649 29.213 34.7183 30.2672 33.825 31.1256C32.9318 31.984 31.8337 32.4127 30.5308 32.4119L32.5169 34.3185V34.954H29.8688L27.2208 32.4119H21.9246L19.2766 34.954H16.6285V34.3185L18.6146 32.4119C17.3126 32.4119 16.2145 31.9831 15.3204 31.1256C14.4262 30.268 13.9796 29.2139 13.9805 27.9631ZM16.6285 20.9723H23.2487V17.1591H16.6285V20.9723ZM25.8967 20.9723H32.5169V17.1591H25.8967V20.9723ZM19.9386 28.5987C20.5124 28.5987 20.9868 28.4186 21.3619 28.0585C21.7371 27.6983 21.9246 27.2429 21.9246 26.6921C21.9246 26.1413 21.7371 25.6858 21.3619 25.3257C20.9868 24.9655 20.5124 24.7855 19.9386 24.7855C19.3649 24.7855 18.8904 24.9655 18.5153 25.3257C18.1401 25.6858 17.9526 26.1413 17.9526 26.6921C17.9526 27.2429 18.1401 27.6983 18.5153 28.0585C18.8904 28.4186 19.3649 28.5987 19.9386 28.5987ZM29.2068 28.5987C29.7806 28.5987 30.255 28.4186 30.6301 28.0585C31.0053 27.6983 31.1929 27.2429 31.1929 26.6921C31.1929 26.1413 31.0053 25.6858 30.6301 25.3257C30.255 24.9655 29.7806 24.7855 29.2068 24.7855C28.6331 24.7855 28.1586 24.9655 27.7835 25.3257C27.4083 25.6858 27.2208 26.1413 27.2208 26.6921C27.2208 27.2429 27.4083 27.6983 27.7835 28.0585C28.1586 28.4186 28.6331 28.5987 29.2068 28.5987Z" fill="#F4AC00"/>
</svg>
