<svg width="31" height="31" viewBox="0 0 31 31" fill="none" xmlns="http://www.w3.org/2000/svg">
<circle cx="15.7578" cy="15.6201" r="15" fill="black"/>
<path d="M16.6418 5.62012C17.7668 5.62312 18.3378 5.62912 18.8308 5.64312L19.0248 5.65012C19.2488 5.65812 19.4698 5.66812 19.7368 5.68012C20.8008 5.73012 21.5268 5.89812 22.1638 6.14512C22.8238 6.39912 23.3799 6.74312 23.9359 7.29812C24.4445 7.79785 24.838 8.40259 25.0889 9.07012C25.3358 9.70712 25.5039 10.4331 25.5539 11.4981C25.5658 11.7641 25.5758 11.9851 25.5838 12.2101L25.5898 12.4041C25.6048 12.8961 25.6108 13.4671 25.6129 14.5921L25.6138 15.3381V16.6481C25.6163 17.3775 25.6086 18.1069 25.5908 18.8361L25.5849 19.0301C25.5769 19.2551 25.5668 19.4761 25.5548 19.7421C25.5049 20.8071 25.3349 21.5321 25.0889 22.1701C24.838 22.8376 24.4445 23.4424 23.9359 23.9421C23.4361 24.4508 22.8314 24.8443 22.1638 25.0951C21.5268 25.3421 20.8008 25.5101 19.7368 25.5601L19.0248 25.5901L18.8308 25.5961C18.3378 25.6101 17.7668 25.6171 16.6418 25.6191L15.8958 25.6201H14.5868C13.8571 25.6227 13.1274 25.615 12.3979 25.5971L12.2039 25.5911C11.9665 25.5821 11.7291 25.5718 11.4918 25.5601C10.4278 25.5101 9.70185 25.3421 9.06385 25.0951C8.39668 24.8442 7.79229 24.4507 7.29285 23.9421C6.7838 23.4425 6.38996 22.8377 6.13885 22.1701C5.89185 21.5331 5.72385 20.8071 5.67385 19.7421L5.64385 19.0301L5.63885 18.8361C5.62042 18.1069 5.61208 17.3775 5.61385 16.6481V14.5921C5.61108 13.8627 5.61842 13.1333 5.63585 12.4041L5.64285 12.2101C5.65085 11.9851 5.66085 11.7641 5.67285 11.4981C5.72285 10.4331 5.89085 9.70812 6.13785 9.07012C6.38954 8.40232 6.78407 7.79755 7.29385 7.29812C7.793 6.78967 8.39704 6.39619 9.06385 6.14512C9.70185 5.89812 10.4268 5.73012 11.4918 5.68012C11.7578 5.66812 11.9799 5.65812 12.2039 5.65012L12.3979 5.64412C13.127 5.62635 13.8564 5.61868 14.5858 5.62112L16.6418 5.62012ZM15.6138 10.6201C14.2878 10.6201 13.016 11.1469 12.0783 12.0846C11.1406 13.0223 10.6139 14.294 10.6139 15.6201C10.6139 16.9462 11.1406 18.218 12.0783 19.1557C13.016 20.0933 14.2878 20.6201 15.6138 20.6201C16.9399 20.6201 18.2117 20.0933 19.1494 19.1557C20.0871 18.218 20.6138 16.9462 20.6138 15.6201C20.6138 14.294 20.0871 13.0223 19.1494 12.0846C18.2117 11.1469 16.9399 10.6201 15.6138 10.6201ZM15.6138 12.6201C16.0078 12.6201 16.3979 12.6976 16.7619 12.8483C17.1259 12.999 17.4567 13.2199 17.7353 13.4984C18.0139 13.777 18.235 14.1077 18.3858 14.4716C18.5366 14.8356 18.6143 15.2257 18.6143 15.6196C18.6144 16.0136 18.5369 16.4037 18.3862 16.7677C18.2355 17.1317 18.0146 17.4625 17.736 17.7411C17.4575 18.0197 17.1268 18.2407 16.7629 18.3916C16.3989 18.5424 16.0088 18.6201 15.6149 18.6201C14.8192 18.6201 14.0561 18.304 13.4935 17.7414C12.9309 17.1788 12.6149 16.4158 12.6149 15.6201C12.6149 14.8245 12.9309 14.0614 13.4935 13.4988C14.0561 12.9362 14.8192 12.6201 15.6149 12.6201M20.8648 9.12012C20.5333 9.12012 20.2154 9.25181 19.981 9.48623C19.7465 9.72065 19.6148 10.0386 19.6148 10.3701C19.6148 10.7016 19.7465 11.0196 19.981 11.254C20.2154 11.4884 20.5333 11.6201 20.8648 11.6201C21.1964 11.6201 21.5143 11.4884 21.7487 11.254C21.9832 11.0196 22.1148 10.7016 22.1148 10.3701C22.1148 10.0386 21.9832 9.72065 21.7487 9.48623C21.5143 9.25181 21.1964 9.12012 20.8648 9.12012Z" fill="#CFCFD0"/>
</svg>
