<svg width="28" height="28" viewBox="0 0 28 28" fill="none" xmlns="http://www.w3.org/2000/svg">
<path d="M20.0829 23.5483C18.9761 24.6213 17.7676 24.4519 16.6044 23.9436C15.3733 23.4241 14.2439 23.4015 12.9451 23.9436C11.3187 24.6439 10.4604 24.4406 9.48911 23.5483C3.97761 17.8674 4.79078 9.21619 11.0477 8.89996C12.5724 8.97902 13.634 9.73572 14.5263 9.80348C15.8589 9.53243 17.1352 8.75314 18.5582 8.85478C20.2636 8.99031 21.5511 9.66796 22.3982 10.8877C18.8745 12.9997 19.7102 17.6416 22.9403 18.9404C22.2966 20.6345 21.4608 22.3173 20.0716 23.5596L20.0829 23.5483ZM14.4133 8.8322C14.2439 6.31362 16.2881 4.23552 18.6373 4.03223C18.9648 6.94609 15.9945 9.11455 14.4133 8.8322Z" fill="#FBFBFB"/>
</svg>
