<svg width="30" height="29" viewBox="0 0 30 29" fill="none" xmlns="http://www.w3.org/2000/svg">
<path d="M26.258 0.0371094H2.30067C1.53608 0.0371094 0.835201 0.668826 0.835201 1.49006V4.14327C0.835201 4.9645 1.53608 5.65939 2.30067 5.65939H26.258C27.0863 5.65939 27.7235 4.9645 27.7872 4.14327V1.55323C27.7872 0.668826 27.0863 0.0371094 26.258 0.0371094ZM26.258 14.9456H2.30067C1.91838 14.9456 1.53608 15.1351 1.2175 15.3878C0.962633 15.6405 0.771484 16.0196 0.771484 16.4618V19.115C0.771484 19.9362 1.47236 20.6311 2.23696 20.6311H26.1943C27.0226 20.6311 27.6597 19.9994 27.7235 19.115V16.4618C27.7872 15.5773 27.0863 14.9456 26.258 14.9456ZM15.8085 22.3367H2.30067C1.91838 22.3367 1.53608 22.4631 1.28121 22.7789C1.02635 23.0316 0.835201 23.4106 0.835201 23.8528V26.5061C0.835201 27.3273 1.53608 28.0222 2.30067 28.0222H15.7448C16.5731 28.0222 17.2103 27.3273 17.2103 26.5061V23.7897C17.274 23.0316 16.6368 22.3367 15.8085 22.3367ZM27.7872 7.49137H2.30067C1.91838 7.49137 1.53608 7.61771 1.28121 7.93357C1.02635 8.18626 0.835201 8.56529 0.835201 9.00749V11.6607C0.835201 12.4819 1.53608 13.1768 2.30067 13.1768H27.7235C28.5518 13.1768 29.1889 12.4819 29.1889 11.6607V9.00749C29.2527 8.12309 28.6155 7.49137 27.7872 7.49137Z" fill="#00C3F7"/>
</svg>
