<svg width="115" height="114" viewBox="0 0 115 114" fill="none" xmlns="http://www.w3.org/2000/svg">
<circle cx="57.4995" cy="57.2075" r="56.7983" fill="#FFB500"/>
<g clip-path="url(#clip0_196_4287)">
<path d="M48.9741 29.7382C48.9741 28.9845 49.2735 28.2617 49.8064 27.7288C50.3393 27.1959 51.0621 26.8965 51.8158 26.8965H63.1826C63.9363 26.8965 64.6591 27.1959 65.192 27.7288C65.7249 28.2617 66.0243 28.9845 66.0243 29.7382C66.0243 30.4919 65.7249 31.2147 65.192 31.7476C64.6591 32.2805 63.9363 32.5799 63.1826 32.5799H60.3409V36.3688L60.3371 36.5242C65.1404 37.0505 69.6937 38.9368 73.462 41.9613L73.4885 41.9386L76.3302 39.0969C76.6776 38.7228 77.1194 38.4494 77.6091 38.3053C78.0988 38.1613 78.6183 38.152 79.1128 38.2785C79.6074 38.4049 80.0587 38.6624 80.4192 39.0238C80.7796 39.3852 81.036 39.8372 81.1611 40.3321C81.2873 40.8261 81.2783 41.3449 81.135 41.8343C80.9916 42.3236 80.7193 42.7653 80.3465 43.1131L77.5048 45.9549L77.4821 45.9814C80.4878 49.7442 82.3699 54.2792 82.912 59.0646C83.4541 63.8499 82.634 68.691 80.5462 73.0308C78.4584 77.3707 75.1877 81.0328 71.1104 83.5959C67.0332 86.1589 62.3151 87.5187 57.4992 87.5187C52.6833 87.5187 47.9652 86.1589 43.888 83.5959C39.8107 81.0328 36.54 77.3707 34.4522 73.0308C32.3644 68.691 31.5443 63.8499 32.0864 59.0646C32.6285 54.2792 34.5106 49.7442 37.5163 45.9814L37.4936 45.9549L34.6519 43.1131C34.1493 42.5746 33.8755 41.8619 33.8882 41.1253C33.901 40.3888 34.1992 39.686 34.7201 39.1651C35.241 38.6442 35.9438 38.346 36.6803 38.3332C37.4169 38.3205 38.1296 38.5943 38.6682 39.0969L41.5099 41.9386L41.5364 41.9613C45.3037 38.9374 49.8555 37.0512 54.6575 36.5242V32.5799H51.8158C51.0621 32.5799 50.3393 32.2805 49.8064 31.7476C49.2735 31.2147 48.9741 30.4919 48.9741 29.7382ZM57.4992 81.8361C62.7754 81.8356 67.8352 79.7392 71.5657 76.008C75.2962 72.2768 77.3916 67.2166 77.3911 61.9404C77.3906 56.6642 75.2942 51.6043 71.563 47.8739C67.8319 44.1434 62.7716 42.048 57.4954 42.0485C52.2192 42.049 47.1594 44.1454 43.4289 47.8766C39.6984 51.6077 37.603 56.668 37.6035 61.9442C37.604 67.2204 39.7004 72.2802 43.4316 76.0107C47.1627 79.7412 52.223 81.8366 57.4992 81.8361ZM58.9731 56.4502L64.0124 51.4109C64.2744 51.1394 64.5879 50.9228 64.9345 50.7737C65.2811 50.6246 65.654 50.546 66.0313 50.5426C66.4086 50.5391 66.7828 50.6108 67.1321 50.7535C67.4814 50.8963 67.7988 51.1071 68.0657 51.3738C68.3327 51.6405 68.5438 51.9577 68.6869 52.3068C68.8299 52.656 68.902 53.0302 68.8989 53.4075C68.8958 53.7848 68.8176 54.1577 68.6688 54.5045C68.5201 54.8513 68.3037 55.1649 68.0324 55.4272L62.9932 60.4703C63.217 61.3127 63.2445 62.1953 63.0735 63.0501C62.9025 63.9048 62.5375 64.7089 62.0068 65.4004C61.476 66.0918 60.7936 66.6522 60.0121 67.0384C59.2306 67.4245 58.3709 67.6261 57.4992 67.6276C56.6948 67.6207 55.901 67.4429 55.1705 67.1062C54.4399 66.7694 53.7892 66.2813 53.2615 65.6741C52.7338 65.067 52.341 64.3547 52.1093 63.5843C51.8775 62.814 51.8121 62.0032 51.9173 61.2057C52.0224 60.4081 52.2958 59.642 52.7193 58.9581C53.1428 58.2742 53.7068 57.688 54.3739 57.2384C55.0409 56.7888 55.7959 56.486 56.5888 56.3502C57.3817 56.2143 58.1944 56.2484 58.9731 56.4502Z" fill="white"/>
</g>
<defs>
<clipPath id="clip0_196_4287">
<rect width="60.623" height="60.623" fill="white" transform="translate(27.1875 26.8965)"/>
</clipPath>
</defs>
</svg>
