<svg width="17" height="23" viewBox="0 0 17 23" fill="none" xmlns="http://www.w3.org/2000/svg">
<path d="M8.47343 22.2375C8.47343 20.8308 8.26911 19.4377 7.87214 18.138C7.47517 16.8383 6.8933 15.6574 6.15979 14.6626C5.42628 13.6679 4.5555 12.8788 3.59712 12.3405C2.63875 11.8021 1.61156 11.525 0.574219 11.525C2.66922 11.525 4.6784 10.3964 6.15979 8.38738C7.64117 6.37839 8.47343 3.65363 8.47343 0.8125C8.47343 3.65362 9.30564 6.3784 10.787 8.38738C12.2684 10.3964 14.2776 11.525 16.3726 11.525C14.2776 11.525 12.2684 12.6536 10.787 14.6626C9.30564 16.6716 8.47342 19.3964 8.47343 22.2375Z" fill="#18A532"/>
</svg>
