<svg width="29" height="28" viewBox="0 0 29 28" fill="none" xmlns="http://www.w3.org/2000/svg">
<path d="M25.8608 21.3847C25.8608 21.8047 25.7675 22.2363 25.5692 22.6563C25.3708 23.0763 25.1142 23.473 24.7758 23.8463C24.2042 24.4763 23.5742 24.9313 22.8625 25.223C22.1625 25.5147 21.4042 25.6663 20.5875 25.6663C19.3975 25.6663 18.1258 25.3863 16.7842 24.8147C15.4425 24.243 14.1008 23.473 12.7708 22.5047C11.4292 21.5247 10.1575 20.4397 8.94417 19.238C7.7425 18.0247 6.6575 16.753 5.68917 15.423C4.7325 14.093 3.9625 12.763 3.4025 11.4447C2.8425 10.1147 2.5625 8.84301 2.5625 7.62967C2.5625 6.83634 2.7025 6.07801 2.9825 5.37801C3.2625 4.66634 3.70583 4.01301 4.32417 3.42967C5.07083 2.69467 5.8875 2.33301 6.75083 2.33301C7.0775 2.33301 7.40417 2.40301 7.69583 2.54301C7.99917 2.68301 8.2675 2.89301 8.4775 3.19634L11.1842 7.01134C11.3942 7.30301 11.5458 7.57134 11.6508 7.82801C11.7558 8.07301 11.8142 8.31801 11.8142 8.53967C11.8142 8.81967 11.7325 9.09967 11.5692 9.36801C11.4175 9.63634 11.1958 9.91634 10.9158 10.1963L10.0292 11.118C9.90083 11.2463 9.8425 11.398 9.8425 11.5847C9.8425 11.678 9.85417 11.7597 9.8775 11.853C9.9125 11.9463 9.9475 12.0163 9.97083 12.0863C10.1808 12.4713 10.5425 12.973 11.0558 13.5797C11.5808 14.1863 12.1408 14.8047 12.7475 15.423C13.3775 16.0413 13.9842 16.613 14.6025 17.138C15.2092 17.6513 15.7108 18.0013 16.1075 18.2113C16.1658 18.2347 16.2358 18.2697 16.3175 18.3047C16.4108 18.3397 16.5042 18.3513 16.6092 18.3513C16.8075 18.3513 16.9592 18.2813 17.0875 18.153L17.9742 17.278C18.2658 16.9863 18.5458 16.7647 18.8142 16.6247C19.0825 16.4613 19.3508 16.3797 19.6425 16.3797C19.8642 16.3797 20.0975 16.4263 20.3542 16.5313C20.6108 16.6363 20.8792 16.788 21.1708 16.9863L25.0325 19.728C25.3358 19.938 25.5458 20.183 25.6742 20.4747C25.7908 20.7663 25.8608 21.058 25.8608 21.3847Z" stroke="white" stroke-width="1.5" stroke-miterlimit="10"/>
<path opacity="0.4" d="M19.1289 9.1H24.7289M19.1289 9.1V3.5V9.1Z" stroke="white" stroke-width="1.5" stroke-linecap="round" stroke-linejoin="round"/>
</svg>
