<svg width="29" height="28" viewBox="0 0 29 28" fill="none" xmlns="http://www.w3.org/2000/svg">
<g clip-path="url(#clip0_294_3433)">
<rect x="0.728516" y="0.620117" width="28" height="27" rx="7" fill="#00440C"/>
<path d="M10.3925 9.53212C9.85252 9.53212 9.40852 9.37612 9.06052 9.06412C8.72452 8.74012 8.55652 8.34412 8.55652 7.87612C8.55652 7.39612 8.72452 7.00012 9.06052 6.68812C9.40852 6.36412 9.85252 6.20212 10.3925 6.20212C10.9205 6.20212 11.3525 6.36412 11.6885 6.68812C12.0365 7.00012 12.2105 7.39612 12.2105 7.87612C12.2105 8.34412 12.0365 8.74012 11.6885 9.06412C11.3525 9.37612 10.9205 9.53212 10.3925 9.53212ZM11.9225 10.5761V20.6201H8.84452V10.5761H11.9225ZM19.5531 10.4681C20.7291 10.4681 21.6651 10.8521 22.3611 11.6201C23.0691 12.3761 23.4231 13.4201 23.4231 14.7521V20.6201H20.3631V15.1661C20.3631 14.4941 20.1891 13.9721 19.8411 13.6001C19.4931 13.2281 19.0251 13.0421 18.4371 13.0421C17.8491 13.0421 17.3811 13.2281 17.0331 13.6001C16.6851 13.9721 16.5111 14.4941 16.5111 15.1661V20.6201H13.4331V10.5761H16.5111V11.9081C16.8231 11.4641 17.2431 11.1161 17.7711 10.8641C18.2991 10.6001 18.8931 10.4681 19.5531 10.4681Z" fill="#E4F5E7"/>
</g>
<defs>
<clipPath id="clip0_294_3433">
<rect x="0.728516" y="0.620117" width="28" height="27" rx="7" fill="white"/>
</clipPath>
</defs>
</svg>
