<svg width="598" height="300" viewBox="0 0 598 300" fill="none" xmlns="http://www.w3.org/2000/svg">
<g clip-path="url(#clip0_490_14939)">
<rect width="597.536" height="299.795" rx="12.3203" fill="#FFDD8B"/>
<path d="M135.512 279.556C135.512 335.163 90.4335 380.241 34.8267 380.241C-20.7802 380.241 -65.8584 335.163 -65.8584 279.556C-65.8584 223.949 -20.7802 178.871 34.8267 178.871C90.4335 178.871 135.512 223.949 135.512 279.556ZM-22.4359 279.556C-22.4359 311.181 3.20141 336.819 34.8267 336.819C66.4519 336.819 92.0892 311.181 92.0892 279.556C92.0892 247.931 66.4519 222.294 34.8267 222.294C3.20141 222.294 -22.4359 247.931 -22.4359 279.556Z" fill="#FFEDC1"/>
<path d="M336.808 228.128C336.808 228.128 299.567 254.612 300.67 260.68C301.773 266.749 339.842 277.784 361.636 277.232C383.429 276.68 470.327 246.059 470.327 246.059C470.327 246.059 588.459 197.774 628.567 175.019C668.675 152.264 678.33 138.471 678.882 137.643C679.433 136.817 336.808 228.128 336.808 228.128Z" fill="#263238" stroke="#263238" stroke-width="0.68086" stroke-miterlimit="10"/>
<path d="M472.143 219.191C468.452 219.191 465.46 224.756 465.46 231.62C465.46 238.484 468.452 244.048 472.143 244.048L477.511 244.529V219.673L472.143 219.191Z" stroke="#263238" stroke-width="0.68086" stroke-miterlimit="10"/>
<path d="M477.511 244.53C481.203 244.53 484.195 238.965 484.195 232.101C484.195 225.237 481.203 219.673 477.511 219.673C473.82 219.673 470.828 225.237 470.828 232.101C470.828 238.965 473.82 244.53 477.511 244.53Z" stroke="#263238" stroke-width="0.68086" stroke-miterlimit="10"/>
<path d="M477.512 242.007C480.454 242.007 482.839 237.572 482.839 232.101C482.839 226.63 480.454 222.194 477.512 222.194C474.57 222.194 472.185 226.63 472.185 232.101C472.185 237.572 474.57 242.007 477.512 242.007Z" stroke="#263238" stroke-width="0.68086" stroke-miterlimit="10"/>
<path d="M444.642 115.599C444.642 115.599 419.821 123.045 406.346 131.909C392.872 140.774 336.492 197.863 330.11 215.592C323.727 233.322 347.839 250.342 357.768 253.179C367.696 256.015 392.517 257.788 415.566 256.015C438.614 254.242 478.328 236.512 478.328 236.512L534.707 212.755L635.411 169.495C635.411 169.495 651.722 161.34 652.786 159.922C653.849 158.504 657.693 160.682 657.981 134.046C658.181 115.523 654.911 114.601 652.074 112.119C649.238 109.636 638.248 109.216 633.992 109.216C629.737 109.216 599.952 107.797 595.697 108.861C591.441 109.924 588.605 110.634 588.605 110.634C588.605 110.634 513.432 107.088 499.603 107.088C485.775 107.089 459.535 110.989 444.642 115.599Z" fill="#18A532" stroke="#263238" stroke-width="0.68086" stroke-miterlimit="10"/>
<path opacity="0.22" d="M560.63 191.84C560.63 191.84 555.796 187.947 555.125 187.812C554.454 187.678 546.666 190.364 546.666 190.364L549.62 195.063L560.63 191.84Z" fill="black"/>
<path d="M521.209 141.983L535.563 165.587L654.54 139.272V127.15L521.209 141.983Z" fill="#263238" stroke="#263238" stroke-width="0.68086" stroke-miterlimit="10"/>
<path opacity="0.22" d="M510.438 173.787C510.438 173.787 534.196 192.976 535.892 193.629C537.589 194.282 548.163 195.456 548.163 195.456C548.163 195.456 537.459 174.962 534.326 170.785C531.194 166.608 526.886 167.913 524.928 168.566C522.97 169.219 517.748 170.524 510.438 173.787Z" fill="black"/>
<path d="M499.129 185.745C492.037 190.254 484.185 196.042 476.287 203.354C476.287 203.354 476.287 217.18 474.379 226.477C472.472 235.773 470.327 238.634 468.658 239.826" stroke="#263238" stroke-width="0.68086" stroke-miterlimit="10"/>
<path d="M527.036 137.925C527.301 149.191 527.301 171.887 527.301 171.887C527.301 171.887 516.843 175.045 502.528 183.644" stroke="#263238" stroke-width="0.68086" stroke-miterlimit="10"/>
<path d="M479.386 109.434C479.386 109.434 509.183 109.195 516.572 113.009C523.962 116.824 526.346 126.835 526.823 132.556C526.864 133.052 526.902 133.757 526.936 134.632" stroke="#263238" stroke-width="0.68086" stroke-miterlimit="10"/>
<path d="M534.707 212.756C534.707 212.756 528.73 210.743 521.817 211.697C514.904 212.651 492.02 226.238 486.299 229.813C480.578 233.389 476.316 236.062 478.328 236.513C480.339 236.964 489.875 233.866 508.707 226.714C527.538 219.563 532.58 215.007 534.707 212.756Z" fill="#18A532" stroke="#263238" stroke-width="0.68086" stroke-miterlimit="10"/>
<path d="M342.32 198.109C342.32 198.109 397.862 203.353 402.629 204.784C407.397 206.214 412.164 215.511 412.164 223.616C412.164 231.721 411.21 244.116 409.304 248.645C407.397 253.175 404.298 255.082 402.629 255.558" stroke="#263238" stroke-width="0.68086" stroke-miterlimit="10"/>
<path d="M453.165 114.202C453.165 114.202 438.386 117.778 427.659 126.359C416.932 134.941 385.705 176.656 380.46 182.854C375.216 189.052 371.879 193.581 371.879 193.581L381.653 194.296C381.653 194.296 401.438 183.092 415.263 174.749C429.089 166.406 450.304 147.574 464.607 135.179C478.91 122.783 491.782 113.249 505.608 110.627C505.608 110.627 475.901 109.64 468.694 110.337C461.487 111.034 453.165 114.202 453.165 114.202Z" fill="#263238"/>
<path opacity="0.5" d="M482.435 112.664C482.435 112.664 474.241 111.845 467.96 114.303C461.678 116.761 458.947 120.585 461.951 120.585C464.955 120.585 484.619 115.942 486.531 114.03C488.443 112.118 482.435 112.664 482.435 112.664Z" fill="white"/>
<path opacity="0.82" d="M479.974 112.729C479.974 112.729 475.939 112.325 472.845 113.536C469.751 114.746 468.406 116.629 469.886 116.629C471.365 116.629 481.05 114.342 481.992 113.401C482.934 112.46 479.974 112.729 479.974 112.729Z" fill="white"/>
<path d="M431.345 170.589L393.91 194.309C393.91 194.309 405.366 194.47 410.853 192.695C416.339 190.92 435.218 170.428 435.218 170.428L431.345 170.589Z" fill="#263238"/>
<path d="M371.158 167.04C371.158 167.04 374.547 168.008 374.547 168.976C374.547 169.945 362.123 191.567 362.123 191.567C362.123 191.567 355.668 191.083 354.377 190.437C353.086 189.792 352.764 187.21 353.732 185.758C354.7 184.305 371.158 167.04 371.158 167.04Z" fill="#263238"/>
<path d="M368.576 177.044C366.793 177.044 365.349 178.489 365.349 180.271C365.349 181.465 366.005 182.496 366.969 183.055C368.006 181.22 369.094 179.285 370.114 177.451C369.655 177.2 369.136 177.044 368.576 177.044Z" fill="white"/>
<path d="M421.341 180.756C419.558 180.756 418.113 182.201 418.113 183.983C418.113 184.973 418.569 185.847 419.27 186.44C420.79 185.06 422.366 183.564 423.914 182.054C423.325 181.27 422.396 180.756 421.341 180.756Z" fill="white"/>
<path d="M451.284 158.194C453.097 156.207 454.136 155.06 454.136 155.06" stroke="#263238" stroke-width="0.68086" stroke-miterlimit="10"/>
<path d="M387.256 220.76C388.442 220.269 389.846 219.65 391.502 218.868C398.262 215.675 434.337 176.704 448.461 161.283" stroke="#263238" stroke-width="0.68086" stroke-miterlimit="10"/>
<path d="M381.179 222.621C381.179 222.621 381.979 222.721 384.884 221.681" stroke="#263238" stroke-width="0.68086" stroke-miterlimit="10"/>
<path d="M513.405 114.553C517.924 113.209 521.537 112.605 523.809 112.365" stroke="#263238" stroke-width="0.68086" stroke-miterlimit="10"/>
<path d="M458.594 151.307C458.594 151.307 486.745 126.91 498.239 120.811C502.097 118.763 505.743 117.192 509.054 115.99" stroke="#263238" stroke-width="0.68086" stroke-miterlimit="10"/>
<path d="M562.516 121.045C562.516 121.045 563.454 126.675 563.454 130.663C563.454 134.65 563.923 176.642 563.454 180.864C562.985 185.087 562.516 190.952 562.516 190.952L572.368 186.964C572.368 186.964 573.307 180.63 573.776 175.938C574.245 171.247 574.48 131.132 574.011 127.144C573.541 123.156 571.665 120.341 571.665 120.341L562.516 121.045Z" fill="#18A532" stroke="#263238" stroke-width="0.68086" stroke-miterlimit="10"/>
<path d="M566.146 130.791V158.053L572.499 156.465V130.262L566.146 130.791Z" fill="#263238" stroke="#263238" stroke-width="0.68086" stroke-miterlimit="10"/>
<path d="M592.288 110.718C592.288 110.718 617.079 111.271 623.388 113.042C629.696 114.812 630.582 115.587 630.582 115.587L653.713 115.809" stroke="#263238" stroke-width="0.68086" stroke-miterlimit="10"/>
<path d="M606.258 133.599L598.559 134.455C597.924 134.526 597.443 135.062 597.443 135.702V149.188C597.443 149.99 598.186 150.586 598.969 150.412L606.668 148.706C607.242 148.578 607.651 148.069 607.651 147.481V134.845C607.651 134.098 607.001 133.516 606.258 133.599Z" fill="#B8B8B8"/>
<path d="M554.42 139.365L538.246 141.164C537.173 141.283 536.36 142.191 536.36 143.272V161.651C536.36 163.008 537.616 164.015 538.939 163.721L555.113 160.135C556.084 159.92 556.775 159.059 556.775 158.065V141.472C556.775 140.208 555.676 139.225 554.42 139.365Z" fill="#B8B8B8"/>
<path d="M589.849 135.423L579.788 136.543C578.943 136.637 578.305 137.351 578.305 138.201V152.915C578.305 153.982 579.293 154.774 580.334 154.543L590.395 152.313C591.159 152.143 591.702 151.467 591.702 150.684V137.081C591.702 136.087 590.838 135.314 589.849 135.423Z" fill="#B8B8B8"/>
<path opacity="0.22" d="M580.536 179.4L574.531 186.449L654.027 156.034C654.027 156.034 652.853 154.076 651.677 154.076C650.502 154.076 581.449 178.486 580.536 179.4Z" fill="black"/>
<path opacity="0.22" d="M535.879 168.878C535.879 168.878 532.389 165.355 525.961 166.097C519.533 166.838 504.288 174.071 496.391 179.263C488.494 184.456 441.292 220.246 429.17 228.22C417.048 236.194 406.029 243.426 394.091 246.393C382.153 249.361 363.42 247.136 354.42 245.466C345.421 243.797 340.462 241.201 340.462 241.201C340.462 241.201 334.217 234.154 332.932 230.446C332.932 230.446 335.319 236.38 357.91 237.864C380.5 239.347 394.275 236.38 408.6 226.181C422.926 215.981 458.924 180.191 470.678 168.509C482.433 156.826 492.902 146.626 503.554 141.619C514.206 136.612 517.145 136.612 517.145 136.612L535.879 168.878Z" fill="black"/>
<path d="M516.977 138.304L532.095 162.273C532.095 162.273 509.417 166.513 494.852 177.576L481.761 160.429C481.761 160.429 493.93 148.076 502.78 143.467C511.63 138.857 516.977 138.304 516.977 138.304Z" fill="#263238" stroke="#263238" stroke-width="0.68086" stroke-miterlimit="10"/>
<path d="M495.188 174.499C497.62 172.796 500.357 171.267 503.19 169.908V145.854C500.658 147.208 497.825 149.278 495.188 151.426V174.499Z" fill="#B8B8B8"/>
<path d="M638.04 -6.13721C638.04 49.4696 592.962 94.5479 537.355 94.5479C481.748 94.5479 436.67 49.4696 436.67 -6.13721C436.67 -61.744 481.748 -106.822 537.355 -106.822C592.962 -106.822 638.04 -61.744 638.04 -6.13721ZM480.092 -6.13721C480.092 25.4881 505.73 51.1254 537.355 51.1254C568.98 51.1254 594.618 25.4881 594.618 -6.13721C594.618 -37.7625 568.98 -63.3998 537.355 -63.3998C505.73 -63.3998 480.092 -37.7625 480.092 -6.13721Z" fill="#FFEDC1"/>
</g>
<defs>
<clipPath id="clip0_490_14939">
<rect width="597.536" height="299.795" rx="12.3203" fill="white"/>
</clipPath>
</defs>
</svg>
