<svg width="101" height="101" viewBox="0 0 101 101" fill="none" xmlns="http://www.w3.org/2000/svg">
<path d="M13.4219 12.9639H25.9219V25.4639H13.4219V12.9639Z" fill="black"/>
<path d="M38.4219 0.46582V37.9658H0.921875V0.46582H38.4219ZM32.1719 6.71582H7.17188V31.7158H32.1719V6.71582ZM25.9219 75.4658H13.4219V87.9658H25.9219V75.4658Z" fill="black"/>
<path d="M38.4219 62.9639V100.464H0.921875V62.9639H38.4219ZM7.17188 69.2139V94.2139H32.1719V69.2139H7.17188ZM75.9219 12.9639H88.4219V25.4639H75.9219V12.9639Z" fill="black"/>
<path d="M63.4219 0.46582V37.9658H100.922V0.46582H63.4219ZM94.6719 6.71582V31.7158H69.6719V6.71582H94.6719ZM50.9219 6.71582V0.46582H57.1719V12.9658H50.9219V25.4658H44.6719V6.71582H50.9219ZM50.9219 37.9658V25.4658H57.1719V37.9658H50.9219ZM38.4219 50.4658V44.2158H44.6719V37.9658H50.9219V50.4658H57.1719V44.2158H88.4219V50.4658H63.4219V56.7158H44.6719V50.4658H38.4219ZM38.4219 50.4658V56.7158H13.4219V50.4658H7.17188V56.7158H0.921875V44.2158H19.6719V50.4658H38.4219ZM100.922 56.7158H94.6719V44.2158H100.922V56.7158ZM94.6719 56.7158H88.4219V69.2158H100.922V62.9658H94.6719V56.7158ZM69.6719 56.7158H82.1719V62.9658H75.9219V69.2158H69.6719V56.7158ZM82.1719 75.4658V69.2158H75.9219V75.4658H69.6719V81.7158H57.1719V87.9658H75.9219V75.4658H82.1719ZM82.1719 75.4658H100.922V81.7158H88.4219V87.9658H82.1719V75.4658ZM57.1719 69.2158V75.4658H63.4219V62.9658H44.6719V69.2158H57.1719Z" fill="black"/>
<path d="M44.6719 75.4658H50.9219V94.2158H75.9219V100.466H44.6719V75.4658ZM100.922 87.9658V100.466H82.1719V94.2158H94.6719V87.9658H100.922Z" fill="black"/>
</svg>
