<svg width="29" height="25" viewBox="0 0 29 25" fill="none" xmlns="http://www.w3.org/2000/svg">
<path d="M28.7285 3.44365C27.6979 3.93776 26.587 4.26247 25.436 4.41776C26.6138 3.66953 27.5239 2.48365 27.9522 1.05776C26.8413 1.76365 25.61 2.25776 24.3117 2.54012C23.2543 1.326 21.7687 0.620117 20.0822 0.620117C16.9369 0.620117 14.3671 3.33071 14.3671 6.67659C14.3671 7.15659 14.4207 7.62247 14.5144 8.06012C9.74955 7.806 5.50672 5.39188 2.68263 1.73541C2.18741 2.62482 1.90634 3.66953 1.90634 4.77071C1.90634 6.87424 2.91016 8.73776 4.46274 9.79659C3.51245 9.79659 2.62909 9.51424 1.8528 9.09071V9.13306C1.8528 12.0695 3.83368 14.526 6.45701 15.0766C5.61491 15.3207 4.73048 15.3546 3.87383 15.1754C4.23736 16.3789 4.94931 17.432 5.90961 18.1866C6.86991 18.9412 8.03026 19.3594 9.22756 19.3825C7.19805 21.0773 4.68226 21.9934 2.09372 21.9801C1.63865 21.9801 1.18358 21.9519 0.728516 21.8954C3.27154 23.6178 6.29639 24.6201 9.5354 24.6201C20.0822 24.6201 25.8777 15.3872 25.8777 7.38247C25.8777 7.11423 25.8777 6.86012 25.8643 6.59188C26.9886 5.74482 27.9522 4.67188 28.7285 3.44365Z" fill="#00440C"/>
</svg>
