<svg width="80" height="79" viewBox="0 0 80 79" fill="none" xmlns="http://www.w3.org/2000/svg">
<path d="M37.7356 10.1416H4.66243C3.95787 10.1416 3.38672 10.7128 3.38672 11.4173V65.2915C3.38672 65.996 3.95787 66.5672 4.66243 66.5672H51.1767C51.8813 66.5672 52.4524 65.996 52.4524 65.2915V11.4173C52.4524 10.7128 51.8813 10.1416 51.1767 10.1416H37.7356ZM28.8216 52.0216C28.3234 52.5198 27.5157 52.5198 27.0175 52.0216L4.98701 29.9911C4.74777 29.7519 4.61336 29.4274 4.61336 29.0891V12.644C4.61336 11.9394 5.18452 11.3682 5.88907 11.3682H18.8017C19.1401 11.3682 19.4646 11.5026 19.7038 11.7419L27.0175 19.0556C27.5157 19.5538 28.3234 19.5538 28.8216 19.0556L36.1353 11.7419C36.3746 11.5026 36.6991 11.3682 37.0374 11.3682H49.9501C50.6546 11.3682 51.2258 11.9394 51.2258 12.644V29.0891C51.2258 29.4274 51.0914 29.7519 50.8521 29.9911L28.8216 52.0216Z" fill="#18A532"/>
<path d="M20.5594 52.4602C20.5594 54.1538 19.1864 55.5268 17.4927 55.5268C15.7991 55.5268 14.4261 54.1538 14.4261 52.4602C14.4261 50.7665 15.7991 49.3936 17.4927 49.3936C19.1864 49.3936 20.5594 50.7665 20.5594 52.4602ZM38.3457 49.3936C36.652 49.3936 35.2791 50.7665 35.2791 52.4602C35.2791 54.1538 36.652 55.5268 38.3457 55.5268C40.0394 55.5268 41.4123 54.1538 41.4123 52.4602C41.4123 50.7665 40.0394 49.3936 38.3457 49.3936ZM10.7462 50.6202C9.73009 50.6202 8.90625 51.444 8.90625 52.4602C8.90625 53.4763 9.73009 54.3001 10.7462 54.3001C11.7623 54.3001 12.5862 53.4763 12.5862 52.4602C12.5862 51.444 11.7623 50.6202 10.7462 50.6202ZM44.7855 50.6202C43.7694 50.6202 42.9456 51.444 42.9456 52.4602C42.9456 53.4763 43.7694 54.3001 44.7855 54.3001C45.8017 54.3001 46.6255 53.4763 46.6255 52.4602C46.6255 51.444 45.8017 50.6202 44.7855 50.6202Z" fill="#FFD469"/>
<path d="M3.38672 59.894C3.38672 59.5146 3.69426 59.207 4.07364 59.207H51.7655C52.1449 59.207 52.4524 59.5146 52.4524 59.894V65.88C52.4524 66.2593 52.1449 66.5669 51.7655 66.5669H4.07364C3.69426 66.5669 3.38672 66.2593 3.38672 65.88V59.894Z" fill="#37474F"/>
<path d="M8.44642 76.3798L18.2596 66.5667H23.1661L20.7128 76.3798H8.44642ZM47.5457 76.3798L37.7325 66.5667H32.8259L35.2792 76.3798H47.5457ZM14.4263 19.9542H6.45312V34.674H14.4263V19.9542ZM15.6529 34.674H40.1858V19.9542H15.6529V34.674ZM41.4124 19.9542V34.674H49.3856V19.9542H41.4124ZM27.9194 2.78125V7.68782H72.0785V66.5667H54.9055V76.3798H76.9851V2.78125H27.9194Z" fill="#37474F"/>
</svg>
