<svg width="90" height="91" viewBox="0 0 90 91" fill="none" xmlns="http://www.w3.org/2000/svg">
<path d="M27.1186 84.6585L34.8867 70.674L31.6343 68.8691L22.8633 84.6585H27.1186ZM63.2633 84.6585L55.4951 70.674L58.7475 68.8691L67.5185 84.6585H63.2633Z" fill="#607D8B"/>
<path d="M71.2404 71.6299V22.3231C71.2404 15.6434 65.8259 13.9502 59.1462 13.9502H31.2367C24.557 13.9502 19.1426 15.6434 19.1426 22.3231V71.6299H71.2404Z" fill="#18A532"/>
<path d="M45.1906 6.50781C41.086 6.50781 37.748 9.84579 37.748 13.9504C37.748 18.0549 41.086 21.3929 45.1906 21.3929C49.2952 21.3929 52.6331 18.0549 52.6331 13.9504C52.6331 9.84579 49.2952 6.50781 45.1906 6.50781Z" fill="#388E3C"/>
<path d="M41.4688 13.9508C41.4688 14.9377 41.8608 15.8842 42.5587 16.5821C43.2566 17.28 44.2031 17.672 45.19 17.672C46.177 17.672 47.1235 17.28 47.8214 16.5821C48.5192 15.8842 48.9113 14.9377 48.9113 13.9508C48.9113 12.9638 48.5192 12.0173 47.8214 11.3194C47.1235 10.6216 46.177 10.2295 45.19 10.2295C44.2031 10.2295 43.2566 10.6216 42.5587 11.3194C41.8608 12.0173 41.4687 12.9638 41.4688 13.9508Z" fill="#FFEB3B"/>
<path d="M71.2404 71.6299C71.2404 71.6299 71.2422 75.3512 67.5191 75.3512H22.8638C19.1426 75.3512 19.1426 71.6299 19.1426 71.6299V58.6055H71.2404V71.6299Z" fill="#37474F"/>
<path d="M26.5851 56.7447C27.5723 56.745 28.519 57.1374 29.2168 57.8356C29.9147 58.5338 30.3066 59.4807 30.3064 60.4678C30.3061 61.455 29.9137 62.4017 29.2155 63.0996C28.5173 63.7974 27.5704 64.1894 26.5833 64.1891C25.5961 64.1889 24.6494 63.7965 23.9515 63.0982C23.2537 62.4 22.8617 61.4532 22.862 60.466C22.8622 59.4788 23.2546 58.5321 23.9529 57.8343C24.6511 57.1364 25.5979 56.7445 26.5851 56.7447ZM26.5851 53.0234C22.4806 53.0234 19.1426 56.3614 19.1426 60.466C19.1426 64.5705 22.4806 67.9085 26.5851 67.9085C30.6897 67.9085 34.0277 64.5705 34.0277 60.466C34.0277 56.3614 30.6897 53.0234 26.5851 53.0234ZM63.7978 56.7447C64.2866 56.7448 64.7706 56.8412 65.2222 57.0284C65.6737 57.2156 66.084 57.4899 66.4296 57.8356C66.7751 58.1813 67.0492 58.5917 67.2361 59.0433C67.4231 59.495 67.5192 59.979 67.5191 60.4678C67.519 60.9566 67.4226 61.4406 67.2354 61.8922C67.0482 62.3437 66.774 62.754 66.4282 63.0996C66.0825 63.4451 65.6721 63.7192 65.2205 63.9061C64.7688 64.0931 64.2848 64.1892 63.796 64.1891C62.8088 64.1889 61.8621 63.7965 61.1642 63.0982C60.4664 62.4 60.0745 61.4532 60.0747 60.466C60.0749 59.4788 60.4673 58.5321 61.1656 57.8343C61.8638 57.1364 62.8106 56.7445 63.7978 56.7447ZM63.7978 53.0234C59.6933 53.0234 56.3553 56.3614 56.3553 60.466C56.3553 64.5705 59.6933 67.9085 63.7978 67.9085C67.9024 67.9085 71.2404 64.5705 71.2404 60.466C71.2404 56.3614 67.9024 53.0234 63.7978 53.0234Z" fill="#37474F"/>
<path d="M64.7276 23.2529H47.0515V39.9986H64.7276C65.4678 39.9986 66.1777 39.7046 66.7011 39.1812C67.2245 38.6578 67.5185 37.9479 67.5185 37.2077V26.0439C67.5185 25.3037 67.2245 24.5938 66.7011 24.0704C66.1777 23.547 65.4678 23.2529 64.7276 23.2529ZM43.3303 23.2529H25.6542C24.914 23.2529 24.2041 23.547 23.6807 24.0704C23.1573 24.5938 22.8633 25.3037 22.8633 26.0439V37.2077C22.8633 37.9479 23.1573 38.6578 23.6807 39.1812C24.2041 39.7046 24.914 39.9986 25.6542 39.9986H43.3303V23.2529Z" fill="#0B420D"/>
<path d="M22.8633 60.466C22.8632 60.9547 22.9594 61.4387 23.1464 61.8902C23.3334 62.3418 23.6075 62.7521 23.953 63.0977C24.2986 63.4433 24.7088 63.7175 25.1604 63.9045C25.6119 64.0915 26.0958 64.1878 26.5846 64.1878C27.0733 64.1878 27.5572 64.0915 28.0088 63.9045C28.4603 63.7175 28.8705 63.4433 29.2161 63.0977C29.5616 62.7521 29.8357 62.3418 30.0227 61.8902C30.2097 61.4387 30.3059 60.9547 30.3058 60.466C30.3059 59.9773 30.2097 59.4933 30.0227 59.0417C29.8357 58.5902 29.5616 58.1799 29.2161 57.8343C28.8705 57.4887 28.4603 57.2145 28.0088 57.0275C27.5572 56.8404 27.0733 56.7441 26.5846 56.7441C26.0958 56.7441 25.6119 56.8404 25.1604 57.0275C24.7088 57.2145 24.2986 57.4887 23.953 57.8343C23.6075 58.1799 23.3334 58.5902 23.1464 59.0417C22.9594 59.4933 22.8632 59.9773 22.8633 60.466Z" fill="#C5CAE9"/>
<path d="M60.0742 60.466C60.0741 60.9547 60.1703 61.4387 60.3573 61.8902C60.5443 62.3418 60.8184 62.7521 61.164 63.0977C61.5095 63.4433 61.9198 63.7175 62.3713 63.9045C62.8228 64.0915 63.3068 64.1878 63.7955 64.1878C64.2842 64.1878 64.7682 64.0915 65.2197 63.9045C65.6712 63.7175 66.0815 63.4433 66.427 63.0977C66.7726 62.7521 67.0467 62.3418 67.2337 61.8902C67.4206 61.4387 67.5168 60.9547 67.5168 60.466C67.5168 59.9773 67.4206 59.4933 67.2337 59.0417C67.0467 58.5902 66.7726 58.1799 66.427 57.8343C66.0815 57.4887 65.6712 57.2145 65.2197 57.0275C64.7682 56.8404 64.2842 56.7441 63.7955 56.7441C63.3068 56.7441 62.8228 56.8404 62.3713 57.0275C61.9198 57.2145 61.5095 57.4887 61.164 57.8343C60.8184 58.1799 60.5443 58.5902 60.3573 59.0417C60.1703 59.4933 60.0741 59.9773 60.0742 60.466Z" fill="#C5CAE9"/>
</svg>
