<svg width="73" height="90" viewBox="0 0 73 90" fill="none" xmlns="http://www.w3.org/2000/svg">
<path fill-rule="evenodd" clip-rule="evenodd" d="M24.4398 14.8545C25.6697 14.8545 26.6667 15.8515 26.6667 17.0814V25.9891C26.6667 27.219 25.6697 28.216 24.4398 28.216C23.2099 28.216 22.2129 27.219 22.2129 25.9891V17.0814C22.2129 15.8515 23.2099 14.8545 24.4398 14.8545Z" fill="#37474F"/>
<path fill-rule="evenodd" clip-rule="evenodd" d="M48.1937 14.8545C49.4236 14.8545 50.4206 15.8515 50.4206 17.0814V25.9891C50.4206 27.219 49.4236 28.216 48.1937 28.216C46.9639 28.216 45.9668 27.219 45.9668 25.9891V17.0814C45.9668 15.8515 46.9639 14.8545 48.1937 14.8545Z" fill="#37474F"/>
<path d="M64.5246 35.9953V62.0057C64.5246 62.4807 64.4949 62.9558 64.4652 63.4012H8.16876C8.13907 62.9558 8.10938 62.4807 8.10938 62.0057V35.9953C8.10938 28.0081 14.5823 21.5352 22.5695 21.5352H50.0645C58.0517 21.5352 64.5246 28.0081 64.5246 35.9953Z" fill="#18A532"/>
<path d="M64.4644 63.4014C63.7517 70.7353 57.5758 76.4659 50.0636 76.4659H22.5687C15.0566 76.4659 8.88058 70.7353 8.16797 63.4014H64.4644Z" fill="#37474F"/>
<path d="M40.8605 45.6455C42.1967 44.725 43.028 43.3592 43.028 41.5183C43.028 37.6583 39.94 35.6689 36.3176 35.6689C32.6951 35.6689 29.5775 37.6583 29.5775 41.5183C29.5775 43.3592 30.4385 44.7547 31.745 45.6455C29.9338 46.7144 28.8945 48.4366 28.8945 50.4556C28.8945 54.1375 31.7153 56.4238 36.3176 56.4238C40.8902 56.4238 43.7406 54.1375 43.7406 50.4556C43.7406 48.4366 42.7014 46.6847 40.8605 45.6455ZM36.3176 39.3508C37.8616 39.3508 38.9899 40.2119 38.9899 41.6964C38.9899 43.1514 37.8616 44.0718 36.3176 44.0718C34.7736 44.0718 33.6453 43.1514 33.6453 41.6964C33.6453 40.2119 34.7736 39.3508 36.3176 39.3508ZM36.3176 52.7123C34.3579 52.7123 32.9327 51.7324 32.9327 49.9509C32.9327 48.1693 34.3579 47.2192 36.3176 47.2192C38.2773 47.2192 39.7025 48.199 39.7025 49.9509C39.7025 51.7324 38.2773 52.7123 36.3176 52.7123Z" fill="#FFDD8B"/>
</svg>
