<svg width="27" height="26" viewBox="0 0 27 26" fill="none" xmlns="http://www.w3.org/2000/svg">
<path d="M4.76421 4.17053L13.9738 13.2021L4.83271 22.3168C4.68315 22.1221 4.56706 21.9038 4.48919 21.6709C4.44892 21.4072 4.44892 21.139 4.48919 20.8753V5.36441C4.46179 4.94819 4.55768 4.53196 4.76316 4.17053M17.9411 9.26322L14.9348 12.2411L5.83481 3.29172C6.12985 3.18951 6.44597 3.16106 6.75471 3.20953C7.23943 3.3423 7.70202 3.54673 8.12667 3.81332L16.3626 8.37071C16.8979 8.65838 17.4195 8.9608 17.9411 9.26322ZM14.9359 14.1768L17.9274 17.1146L15.7588 18.3221L9.14247 21.9997C8.59453 22.3021 8.04448 22.5908 7.50918 22.9206C7.28013 23.0632 7.02329 23.1553 6.75581 23.1908C6.48833 23.2262 6.21637 23.2041 5.95809 23.1261L14.9359 14.1768ZM22.6913 13.2021C22.699 13.5705 22.6059 13.9341 22.4221 14.2535C22.2382 14.5729 21.9706 14.836 21.6482 15.0145L19.1761 16.3864L15.9232 13.2021L19.1898 9.96289C20.0275 10.4297 20.8515 10.8965 21.6745 11.3359C22.0027 11.5194 22.2723 11.792 22.452 12.1222C22.6318 12.4525 22.7155 12.8268 22.6913 13.2021Z" fill="#FBFBFB"/>
</svg>
