<svg width="72" height="73" viewBox="0 0 72 73" fill="none" xmlns="http://www.w3.org/2000/svg">
<path d="M62.4081 33.7692C62.4081 48.3429 51.828 61.9927 37.3735 65.9863C36.39 66.2546 35.3168 66.2546 34.3333 65.9863C19.8789 61.9927 9.29883 48.3429 9.29883 33.7692V20.6858C9.29883 18.242 11.1467 15.4703 13.4415 14.5464L30.0417 7.7513C33.767 6.23134 37.9693 6.23134 41.6947 7.7513L58.295 14.5464C60.56 15.4703 62.4379 18.242 62.4379 20.6858L62.4081 33.7692Z" fill="#18A532"/>
<path d="M43.3039 31.9215C43.3039 27.8086 39.9659 24.4707 35.8531 24.4707C31.7403 24.4707 28.4023 27.8086 28.4023 31.9215C28.4023 35.2594 30.6078 38.0311 33.6179 38.9848V46.823C33.6179 48.045 34.6312 49.0583 35.8531 49.0583C37.075 49.0583 38.0883 48.045 38.0883 46.823V38.9848C41.0985 38.0311 43.3039 35.2594 43.3039 31.9215Z" fill="#FFDD8B"/>
</svg>
