<svg width="622" height="621" viewBox="0 0 622 621" fill="none" xmlns="http://www.w3.org/2000/svg">
<path d="M115.631 393.911L97.216 394.257L87.886 394.396C84.7698 394.455 81.6388 394.443 78.5139 394.464L77.9626 394.468L77.9601 393.911L77.8931 378.227L77.8906 377.604L78.5139 377.606L97.072 377.684C103.258 377.69 109.444 377.823 115.63 377.888L115.972 377.892L115.969 378.227C115.945 380.882 115.862 383.526 115.806 386.141L115.631 393.911ZM115.631 393.911L115.455 385.996C115.399 383.385 115.316 380.799 115.292 378.227L115.631 378.566C109.445 378.629 103.26 378.763 97.0732 378.769L78.5151 378.847L79.1346 378.228L79.0676 393.912L78.5139 393.358C81.5754 393.381 84.6308 393.368 87.7011 393.427L96.9292 393.566L115.631 393.911Z" fill="#EBEBEB"/>
<path d="M94.9243 413.688L76.509 414.035L67.179 414.174C64.0628 414.232 60.9317 414.221 57.8068 414.242L57.2556 414.246L57.2531 413.688L57.1861 398.004L57.1836 397.381L57.8068 397.383L76.3649 397.462C82.5514 397.468 88.7366 397.601 94.9231 397.665L95.2645 397.669L95.262 398.004C95.2384 400.66 95.1552 403.303 95.0994 405.919L94.9243 413.688ZM94.9243 413.688L94.748 405.773C94.6921 403.161 94.609 400.576 94.5854 398.004L94.9243 398.343C88.7379 398.406 82.5526 398.54 76.3662 398.547L57.8081 398.625L58.4276 398.005L58.3605 413.689L57.8068 413.136C60.8684 413.158 63.9238 413.146 66.994 413.204L76.2222 413.343L94.9243 413.688Z" fill="#EBEBEB"/>
<path d="M94.9243 74.3053L76.509 74.6517L67.179 74.7907C64.0628 74.8491 60.9317 74.8367 57.8068 74.859L57.2556 74.8627L57.2531 74.3053L57.1861 58.6213L57.1836 57.998L57.8068 58.0005L76.3649 58.0787C82.5514 58.085 88.7366 58.2178 94.9231 58.2824L95.2645 58.2861L95.262 58.6213C95.2384 61.2769 95.1552 63.9201 95.0994 66.5359L94.9243 74.3053ZM94.9243 74.3053L94.748 66.3907C94.6921 63.7798 94.609 61.1937 94.5854 58.6213L94.9243 58.9602C88.7379 59.0235 82.5526 59.1576 76.3662 59.1638L57.8081 59.2408L58.4276 58.6213L58.3605 74.3053L57.8068 73.7516C60.8684 73.7739 63.9238 73.7615 66.994 73.8199L76.2222 73.9589L94.9243 74.3053Z" fill="#EBEBEB"/>
<path d="M564.19 74.3053L545.775 74.6517L536.445 74.7907C533.328 74.8491 530.197 74.8367 527.072 74.859L526.521 74.8627L526.519 74.3053L526.452 58.6213L526.449 57.998L527.072 58.0005L545.631 58.0787C551.817 58.085 558.002 58.2178 564.189 58.2824L564.53 58.2861L564.528 58.6213C564.504 61.2769 564.421 63.9201 564.365 66.5359L564.19 74.3053ZM564.19 74.3053L564.014 66.3907C563.958 63.7798 563.875 61.1937 563.851 58.6213L564.19 58.9602C558.004 59.0235 551.817 59.1576 545.632 59.1638L527.074 59.242L527.693 58.6225L527.626 74.3065L527.072 73.7528C530.134 73.7752 533.189 73.7628 536.26 73.8211L545.488 73.9602L564.19 74.3053Z" fill="#EBEBEB"/>
<path d="M543.485 94.0826L525.07 94.429L515.74 94.5681C512.623 94.6264 509.492 94.614 506.367 94.6364L505.816 94.6401L505.814 94.0826L505.747 78.3986L505.744 77.7754L506.367 77.7779L524.926 77.8561C531.112 77.8623 537.297 77.9951 543.484 78.0597L543.825 78.0634L543.823 78.3986C543.799 81.0542 543.716 83.6974 543.66 86.3133L543.485 94.0826ZM543.485 94.0826L543.309 86.168C543.253 83.5571 543.17 80.971 543.146 78.3986L543.485 78.7376C537.298 78.8009 531.113 78.935 524.927 78.9412L506.369 79.0194L506.988 78.3999L506.921 94.0839L506.367 93.5302C509.429 93.5525 512.484 93.5401 515.555 93.5985L524.783 93.7375L543.485 94.0826Z" fill="#EBEBEB"/>
<path d="M448.422 277.571L430.007 277.917L420.677 278.056C417.561 278.115 414.43 278.104 411.305 278.125L410.754 278.128L410.751 277.571L410.684 261.887L410.682 261.264L411.305 261.266L429.863 261.344C436.049 261.351 442.235 261.485 448.421 261.548L448.763 261.552L448.76 261.887C448.736 264.543 448.653 267.186 448.597 269.802L448.422 277.571ZM448.422 277.571L448.246 269.656C448.19 267.044 448.107 264.459 448.083 261.887L448.422 262.226C442.236 262.289 436.049 262.423 429.864 262.429L411.306 262.508L411.926 261.888L411.859 277.572L411.305 277.02C414.366 277.041 417.422 277.03 420.492 277.088L429.72 277.227L448.422 277.571Z" fill="#EBEBEB"/>
<path d="M427.717 297.346L409.302 297.693L399.972 297.832C396.856 297.89 393.725 297.878 390.6 297.9L390.049 297.904L390.046 297.346L389.979 281.662L389.977 281.039L390.6 281.042L409.158 281.12C415.344 281.126 421.53 281.26 427.716 281.323L428.057 281.327L428.055 281.662C428.031 284.318 427.948 286.961 427.892 289.577L427.717 297.346ZM427.717 297.346L427.541 289.432C427.485 286.821 427.402 284.235 427.378 281.662L427.717 282.001C421.531 282.065 415.346 282.199 409.159 282.205L390.601 282.283L391.221 281.664L391.154 297.348L390.6 296.794C393.661 296.816 396.717 296.804 399.787 296.862L409.015 297.001L427.717 297.346Z" fill="#EBEBEB"/>
<path d="M407.096 277.571L388.681 277.917L379.351 278.056C376.235 278.115 373.104 278.104 369.979 278.125L369.427 278.128L369.425 277.571L369.358 261.887L369.355 261.264L369.979 261.266L388.537 261.344C394.723 261.351 400.909 261.485 407.095 261.548L407.436 261.552L407.434 261.887C407.41 264.543 407.327 267.186 407.271 269.802L407.096 277.571ZM407.096 277.571L406.92 269.656C406.864 267.044 406.781 264.459 406.757 261.887L407.096 262.226C400.91 262.289 394.723 262.423 388.538 262.429L369.98 262.508L370.599 261.888L370.532 277.572L369.979 277.02C373.04 277.041 376.096 277.03 379.166 277.088L388.394 277.227L407.096 277.571Z" fill="#EBEBEB"/>
<path d="M564.19 413.688L545.775 414.035L536.445 414.174C533.328 414.232 530.197 414.221 527.072 414.242L526.521 414.246L526.519 413.688L526.452 398.004L526.449 397.381L527.072 397.383L545.631 397.462C551.817 397.468 558.003 397.601 564.189 397.665L564.53 397.669L564.528 398.004C564.504 400.66 564.421 403.303 564.365 405.919L564.19 413.688ZM564.19 413.688L564.014 405.773C563.958 403.161 563.875 400.576 563.851 398.004L564.19 398.343C558.004 398.406 551.818 398.54 545.632 398.547L527.074 398.625L527.693 398.005L527.626 413.689L527.072 413.136C530.134 413.158 533.189 413.146 536.26 413.204L545.488 413.343L564.19 413.688Z" fill="#EBEBEB"/>
<path d="M248.831 120.946L230.415 121.292L221.085 121.431C217.969 121.49 214.838 121.477 211.713 121.5L211.162 121.503L211.159 120.946L211.092 105.262L211.09 104.639L211.713 104.641L230.271 104.719C236.458 104.726 242.643 104.858 248.829 104.923L249.171 104.927L249.168 105.262C249.145 107.918 249.061 110.561 249.006 113.177L248.831 120.946ZM248.831 120.946L248.654 113.031C248.598 110.42 248.515 107.834 248.492 105.262L248.831 105.601C242.644 105.664 236.459 105.798 230.272 105.804L211.714 105.883L212.334 105.263L212.267 120.947L211.713 120.393C214.775 120.416 217.83 120.403 220.9 120.462L230.128 120.601L248.831 120.946Z" fill="#EBEBEB"/>
<path d="M526.062 224.849L533.371 213.066L529.762 210.831C528.7 210.173 528.125 208.974 528.232 207.73C528.29 207.042 528.313 206.35 528.298 205.656C528.271 204.411 528.921 203.253 530.019 202.664L533.759 200.658L527.204 188.435L523.465 190.442C522.367 191.03 521.042 190.931 520.021 190.219C519.451 189.823 518.862 189.458 518.258 189.127C517.163 188.527 516.481 187.384 516.521 186.137L516.655 181.894L502.796 181.463L502.668 185.721C502.631 186.97 501.865 188.057 500.735 188.59C500.428 188.736 500.124 188.888 499.824 189.05C499.522 189.211 499.227 189.38 498.937 189.555C497.873 190.198 496.551 190.235 495.495 189.581L491.859 187.329L484.551 199.112L488.166 201.356C489.226 202.015 489.801 203.215 489.693 204.459C489.633 205.143 489.611 205.834 489.625 206.524C489.651 207.767 489 208.925 487.904 209.512L484.162 211.519L490.717 223.741L494.459 221.735C495.555 221.147 496.879 221.246 497.901 221.955C498.468 222.348 499.055 222.711 499.659 223.04C500.755 223.638 501.438 224.782 501.399 226.029L501.269 230.283L515.128 230.714L515.261 226.459C515.299 225.215 516.063 224.132 517.188 223.6C517.495 223.455 517.802 223.299 518.106 223.137C518.407 222.975 518.703 222.806 518.994 222.631C520.064 221.986 521.391 221.949 522.454 222.608L526.062 224.849ZM514.328 216.099C508.801 219.063 501.923 216.986 498.958 211.459C495.994 205.932 498.065 199.044 503.593 196.079C509.12 193.114 516.013 195.195 518.978 200.722C521.941 206.251 519.856 213.135 514.328 216.099Z" fill="#EBEBEB"/>
<path d="M126.673 358.362L133.982 346.579L130.373 344.343C129.311 343.685 128.737 342.485 128.843 341.241C128.903 340.553 128.924 339.862 128.909 339.168C128.882 337.923 129.532 336.764 130.63 336.176L134.371 334.17L127.815 321.947L124.076 323.953C122.978 324.542 121.654 324.442 120.632 323.731C120.062 323.335 119.474 322.97 118.869 322.638C117.774 322.039 117.092 320.895 117.132 319.649L117.266 315.405L103.407 314.975L103.279 319.233C103.242 320.482 102.476 321.568 101.346 322.102C101.04 322.246 100.736 322.4 100.435 322.561C100.133 322.723 99.8379 322.892 99.5487 323.067C98.4847 323.71 97.1625 323.747 96.106 323.093L92.4708 320.841L85.162 332.624L88.7773 334.867C89.8376 335.527 90.4124 336.727 90.3044 337.971C90.2448 338.656 90.2224 339.345 90.2361 340.036C90.2622 341.279 89.6116 342.437 88.5154 343.024L84.7734 345.03L91.3286 357.253L95.0705 355.247C96.1668 354.658 97.4902 354.758 98.512 355.467C99.0794 355.86 99.6666 356.223 100.27 356.552C101.366 357.15 102.049 358.293 102.011 359.541L101.88 363.795L115.739 364.225L115.872 359.971C115.911 358.727 116.674 357.644 117.799 357.113C118.107 356.967 118.413 356.812 118.718 356.65C119.019 356.488 119.315 356.319 119.605 356.144C120.675 355.499 122.003 355.462 123.065 356.121L126.673 358.362ZM114.938 349.612C109.411 352.576 102.533 350.499 99.5685 344.972C96.6038 339.445 98.6746 332.557 104.203 329.592C109.73 326.627 116.623 328.708 119.588 334.235C122.553 339.764 120.466 346.647 114.938 349.612Z" fill="#EBEBEB"/>
<path d="M268.625 132.688L263.771 124.274L261.196 125.762C260.439 126.2 259.508 126.158 258.775 125.68C258.371 125.415 257.951 125.173 257.518 124.952C256.74 124.557 256.24 123.771 256.24 122.9V119.928H246.524V122.901C246.524 123.773 246.024 124.559 245.246 124.953C244.813 125.173 244.394 125.416 243.989 125.681C243.256 126.158 242.325 126.201 241.568 125.763L238.993 124.276L234.139 132.689L236.725 134.178C237.483 134.615 237.9 135.447 237.856 136.321C237.843 136.558 237.837 136.796 237.837 137.036C237.837 137.275 237.843 137.514 237.856 137.751C237.9 138.621 237.486 139.449 236.732 139.885L234.139 141.384L238.993 149.797L241.575 148.309C242.333 147.872 243.265 147.915 243.998 148.393C244.401 148.656 244.818 148.898 245.25 149.118C246.026 149.514 246.525 150.299 246.525 151.17V154.145H256.241V151.17C256.241 150.299 256.74 149.514 257.516 149.118C257.947 148.898 258.366 148.656 258.768 148.393C259.5 147.915 260.433 147.872 261.19 148.309L263.772 149.797L268.627 141.384L266.044 139.894C265.288 139.458 264.874 138.629 264.917 137.757C264.929 137.519 264.934 137.279 264.934 137.037C264.934 136.797 264.928 136.559 264.917 136.322C264.872 135.448 265.289 134.615 266.048 134.178L268.625 132.688ZM259.339 137.036C259.339 141.429 255.779 144.989 251.386 144.989C246.992 144.989 243.425 141.429 243.425 137.036C243.425 132.642 246.992 129.075 251.386 129.075C255.779 129.075 259.339 132.642 259.339 137.036Z" fill="#EBEBEB"/>
<path d="M110.914 377.397C94.6884 393.281 91.9657 417.854 95.3849 439.378C95.473 439.866 96.2291 439.733 96.2291 439.275C96.2291 434.375 96.0813 429.519 96.0962 424.678C96.1844 424.456 96.2589 424.249 96.3483 424.027C100.582 420.948 104.475 417.469 106.889 412.702C109.598 407.373 110.663 401.362 112.736 395.796C112.929 395.263 112.36 395.42 111.989 395.694C102.12 402.972 98.9741 410.806 96.1422 421.273C96.275 415.84 96.6897 410.407 97.8592 404.974C99.9909 395.041 104.21 385.197 111.346 377.825C111.61 377.544 111.196 377.115 110.914 377.397Z" fill="#263238"/>
<path d="M113.961 379.248C116.752 379.342 118.503 383.803 120.678 385.105C121.829 385.798 122.95 385.756 123.758 384.621C125.913 381.613 122.956 377.901 120.175 375.825C122.164 376.643 123.814 378.079 125.958 378.487C127.257 378.725 128.266 378.243 128.569 376.924C129.514 372.822 124.369 370.997 120.839 370.911C122.55 369.721 127.455 366.487 124.849 364.897C122.209 363.3 116.453 367.925 114.576 369.447C111.817 371.686 108.526 375.031 108.402 378.532C108.24 382.621 111.813 380.105 113.961 379.248Z" fill="#18A532"/>
<path opacity="0.1" d="M113.961 379.248C116.752 379.342 118.503 383.803 120.678 385.105C121.829 385.798 122.95 385.756 123.758 384.621C125.913 381.613 122.956 377.901 120.175 375.825C122.164 376.643 123.814 378.079 125.958 378.487C127.257 378.725 128.266 378.243 128.569 376.924C129.514 372.822 124.369 370.997 120.839 370.911C122.55 369.721 127.455 366.487 124.849 364.897C122.209 363.3 116.453 367.925 114.576 369.447C111.817 371.686 108.526 375.031 108.402 378.532C108.24 382.621 111.813 380.105 113.961 379.248Z" fill="black"/>
<path d="M113.157 379.936C116.726 378.314 123.581 380.649 124.164 379.298C125.346 376.549 119.867 374.662 116.91 374.297C119.634 373.56 124.852 372.384 124.692 369.757C124.496 366.55 116.688 369.308 112.736 372.338C107.758 376.156 107.79 379.84 108.613 380.577C109.741 381.59 112.567 380.204 113.157 379.936Z" fill="#18A532"/>
<path d="M73.9671 375.822C90.7834 391.078 94.4409 415.53 91.8424 437.169C91.7729 437.661 91.0131 437.557 90.9957 437.098C90.8095 432.202 90.7722 427.344 90.5736 422.508C90.4767 422.29 90.3948 422.086 90.2967 421.866C85.9489 418.95 81.9265 415.623 79.3342 410.951C76.4241 405.729 75.1304 399.764 72.8485 394.28C72.6362 393.755 73.2098 393.889 73.5922 394.15C83.7304 401.047 87.1731 408.756 90.401 419.106C90.0608 413.682 89.4401 408.269 88.0657 402.885C85.5579 393.04 80.968 383.363 73.5574 376.268C73.2781 375.997 73.6754 375.552 73.9671 375.822Z" fill="#263238"/>
<path d="M70.9912 377.789C68.2053 377.989 66.6273 382.515 64.5031 383.898C63.3795 384.634 62.2584 384.634 61.4067 383.531C59.1385 380.606 61.9518 376.785 64.652 374.605C62.6954 375.498 61.1013 376.996 58.9746 377.485C57.6859 377.772 56.6592 377.33 56.3054 376.023C55.2054 371.959 60.277 369.941 63.8004 369.721C62.0449 368.597 57.0205 365.552 59.5643 363.863C62.1417 362.167 68.0699 366.569 70.003 368.02C72.8448 370.152 76.2602 373.37 76.5184 376.863C76.835 380.942 73.1701 378.564 70.9912 377.789Z" fill="#18A532"/>
<path opacity="0.1" d="M70.9912 377.789C68.2053 377.989 66.6273 382.515 64.5031 383.898C63.3795 384.634 62.2584 384.634 61.4067 383.531C59.1385 380.606 61.9518 376.785 64.652 374.605C62.6954 375.498 61.1013 376.996 58.9746 377.485C57.6859 377.772 56.6592 377.33 56.3054 376.023C55.2054 371.959 60.277 369.941 63.8004 369.721C62.0449 368.597 57.0205 365.552 59.5643 363.863C62.1417 362.167 68.0699 366.569 70.003 368.02C72.8448 370.152 76.2602 373.37 76.5184 376.863C76.835 380.942 73.1701 378.564 70.9912 377.789Z" fill="black"/>
<path d="M71.8242 378.445C68.1965 376.958 61.434 379.553 60.8008 378.226C59.5159 375.523 64.9177 373.431 67.8588 372.953C65.1089 372.32 59.8498 371.344 59.9107 368.714C59.9839 365.502 67.8911 367.96 71.9558 370.838C77.0758 374.463 77.1838 378.145 76.3893 378.914C75.2992 379.968 72.4226 378.69 71.8242 378.445Z" fill="#18A532"/>
<path d="M91.1647 416.114C92.4062 424.154 93.9457 432.467 96.3865 440.235C96.6199 440.943 97.6703 440.761 97.5622 439.998C96.4573 432.565 94.4436 425.268 93.3399 417.836C92.2175 410.314 91.6179 402.689 92.0487 395.082C92.7563 382.557 96.1581 369.233 104.332 359.431C104.512 359.199 104.131 358.87 103.946 359.086C87.5817 378.166 90.1852 401.559 90.2001 403.656C87.8834 395.757 85.496 386.703 76.7334 378.66C76.356 378.312 76.0605 378.477 76.1238 379.067C77.6906 393.718 81.764 401.367 90.2584 409.2C90.4968 411.521 90.796 413.832 91.1647 416.114Z" fill="#263238"/>
<path d="M104.478 361.627C107.422 360.32 111.483 364.068 114.396 364.324C115.937 364.463 117.08 363.854 117.348 362.271C118.07 358.064 113.133 355.702 109.202 354.948C111.678 354.795 114.112 355.455 116.542 354.799C118.01 354.391 118.814 353.385 118.465 351.862C117.38 347.13 111.124 347.826 107.418 349.515C108.595 347.419 112.055 341.594 108.552 341.256C105.008 340.928 101.365 348.623 100.183 351.149C98.447 354.861 96.7164 359.987 98.3502 363.683C100.241 368.006 102.682 363.597 104.478 361.627Z" fill="#18A532"/>
<path opacity="0.1" d="M104.478 361.627C107.422 360.32 111.483 364.068 114.396 364.324C115.937 364.463 117.08 363.854 117.348 362.271C118.07 358.064 113.133 355.702 109.202 354.948C111.678 354.795 114.112 355.455 116.542 354.799C118.01 354.391 118.814 353.385 118.465 351.862C117.38 347.13 111.124 347.826 107.418 349.515C108.595 347.419 112.055 341.594 108.552 341.256C105.008 340.928 101.365 348.623 100.183 351.149C98.447 354.861 96.7164 359.987 98.3502 363.683C100.241 368.006 102.682 363.597 104.478 361.627Z" fill="black"/>
<path d="M103.988 362.748C106.874 359.268 115.163 358.24 115.087 356.545C114.929 353.099 108.296 353.899 105.043 355.008C107.497 352.871 112.319 349.025 110.831 346.381C109.013 343.152 102.3 349.944 99.7256 355.078C96.4815 361.545 98.3686 365.35 99.5952 365.701C101.277 366.182 103.512 363.322 103.988 362.748Z" fill="#18A532"/>
<path d="M80.3966 420.524L73.1797 475.667H117.097C116.192 470.781 108.018 420.461 108.018 420.461L80.3966 420.524Z" fill="#18A532"/>
<path d="M54.4707 475.852L118.602 475.55L182.735 475.441L310.999 475.232L439.264 475.44L503.395 475.549L567.528 475.852L503.395 476.156L439.264 476.265L310.999 476.471L182.735 476.264L118.602 476.154L54.4707 475.852Z" fill="#263238"/>
<path d="M310.999 583.828C413.203 583.828 496.055 572.113 496.055 557.663C496.055 543.212 413.203 531.498 310.999 531.498C208.796 531.498 125.943 543.212 125.943 557.663C125.943 572.113 208.796 583.828 310.999 583.828Z" fill="#EBEBEB"/>
<path d="M196.251 282.833L188.543 252.503L127.661 267.976L119.615 236.318L168.268 125.436L192.399 119.303L215.861 211.62L235.343 206.669L243.445 238.549L223.963 243.5L231.672 273.83L196.251 282.833ZM154.539 227.206L184.648 219.555L174.689 180.369L154.539 227.206Z" fill="#263238"/>
<path d="M370.621 181.581C370.621 191.632 369.096 200.883 366.052 209.335C363.004 217.787 358.816 225.096 353.487 231.264C348.154 237.432 341.873 242.229 334.643 245.654C327.407 249.081 319.526 250.794 310.999 250.794C302.469 250.794 294.553 249.081 287.243 245.654C279.933 242.227 273.613 237.43 268.284 231.264C262.952 225.096 258.804 217.787 255.835 209.335C252.866 200.883 251.381 191.632 251.381 181.581C251.381 171.531 252.866 162.279 255.835 153.828C258.805 145.376 262.952 138.067 268.284 131.899C273.613 125.731 279.933 120.899 287.243 117.395C294.553 113.894 302.469 112.141 310.999 112.141C319.526 112.141 327.406 113.894 334.643 117.395C341.873 120.899 348.154 125.731 353.487 131.899C358.816 138.067 363.004 145.376 366.052 153.828C369.096 162.279 370.621 171.531 370.621 181.581ZM333.843 181.581C333.843 170.924 331.709 162.279 327.447 155.654C323.181 149.031 317.701 145.719 311.001 145.719C303.995 145.719 298.398 149.031 294.212 155.654C290.022 162.279 287.93 170.924 287.93 181.581C287.93 192.242 290.022 200.848 294.212 207.393C298.398 213.942 303.995 217.216 311.001 217.216C317.701 217.216 323.181 213.943 327.447 207.393C331.71 200.848 333.843 192.242 333.843 181.581Z" fill="#263238"/>
<path d="M436.198 276.988L441.203 246.097L379.195 236.051L384.42 203.806L473.198 121.463L497.776 125.444L482.542 219.472L502.386 222.686L497.125 255.156L477.282 251.942L472.278 282.833L436.198 276.988ZM420.082 209.353L450.747 214.322L457.213 174.411L420.082 209.353Z" fill="#263238"/>
<path d="M259.694 90.1328C257.086 90.1328 254.721 89.6225 252.598 88.6033C250.474 87.584 248.652 86.2295 247.132 84.541C245.609 82.8538 244.431 80.922 243.596 78.7494C242.76 76.5767 242.342 74.3532 242.342 72.0787C242.342 69.705 242.784 67.4318 243.67 65.2579C244.555 63.0852 245.777 61.1621 247.331 59.4898C248.886 57.8175 250.733 56.4891 252.874 55.5021C255.013 54.5163 257.337 54.0234 259.845 54.0234C262.42 54.0234 264.767 54.5498 266.891 55.6026C269.014 56.6554 270.828 58.0348 272.333 59.7406C273.838 61.4464 275.007 63.3857 275.844 65.5583C276.68 67.7322 277.098 69.9384 277.098 72.1793C277.098 74.5543 276.662 76.8176 275.794 78.9753C274.924 81.1318 273.721 83.0376 272.183 84.6925C270.645 86.3474 268.806 87.6684 266.667 88.6542C264.525 89.6399 262.202 90.1328 259.694 90.1328ZM249.363 72.0775C249.363 73.6157 249.596 75.1043 250.064 76.5407C250.532 77.9784 251.209 79.2497 252.095 80.3522C252.98 81.4559 254.068 82.3411 255.355 83.0103C256.642 83.6794 258.105 84.0134 259.744 84.0134C261.415 84.0134 262.895 83.6707 264.182 82.9854C265.47 82.3014 266.556 81.3888 267.443 80.2516C268.328 79.1156 268.997 77.8369 269.449 76.4153C269.901 74.9938 270.126 73.5487 270.126 72.0763C270.126 70.5393 269.882 69.0507 269.398 67.613C268.913 66.1754 268.227 64.9053 267.342 63.8016C266.456 62.6979 265.369 61.8214 264.083 61.1683C262.796 60.5165 261.349 60.19 259.745 60.19C258.073 60.19 256.586 60.5327 255.281 61.218C253.977 61.9033 252.891 62.8059 252.022 63.9257C251.152 65.0468 250.492 66.3169 250.04 67.7372C249.589 69.1612 249.363 70.6063 249.363 72.0775Z" fill="#263238"/>
<path d="M293.899 90.3842C291.758 90.3842 289.836 90.0167 288.132 89.2805C286.426 88.5455 284.98 87.5498 283.793 86.2971C282.606 85.0432 281.695 83.5968 281.059 81.958C280.423 80.3205 280.105 78.5973 280.105 76.7921C280.105 74.9534 280.423 73.2153 281.059 71.5765C281.693 69.939 282.606 68.4926 283.793 67.2387C284.98 65.9848 286.426 64.9903 288.132 64.2541C289.836 63.5191 291.758 63.1504 293.899 63.1504C296.038 63.1504 297.952 63.5191 299.642 64.2541C301.329 64.9903 302.768 65.9848 303.955 67.2387C305.142 68.4926 306.053 69.939 306.689 71.5765C307.323 73.2153 307.641 74.9534 307.641 76.7921C307.641 78.5973 307.323 80.3205 306.689 81.958C306.053 83.5968 305.15 85.042 303.981 86.2971C302.81 87.5511 301.373 88.5468 299.668 89.2805C297.961 90.0155 296.038 90.3842 293.899 90.3842ZM287.027 76.7921C287.027 77.9629 287.203 79.0244 287.553 79.9766C287.905 80.9301 288.389 81.7569 289.007 82.4596C289.625 83.1611 290.353 83.7049 291.188 84.0897C292.024 84.4746 292.927 84.667 293.897 84.667C294.867 84.667 295.77 84.4746 296.605 84.0897C297.441 83.7061 298.168 83.1623 298.786 82.4596C299.405 81.7569 299.89 80.9214 300.24 79.9518C300.592 78.9821 300.767 77.9132 300.767 76.7425C300.767 75.6065 300.59 74.5537 300.24 73.5828C299.889 72.6132 299.405 71.7777 298.786 71.075C298.167 70.3723 297.439 69.8297 296.605 69.4449C295.77 69.06 294.867 68.8676 293.897 68.8676C292.927 68.8676 292.024 69.0687 291.188 69.4697C290.353 69.8707 289.625 70.4232 289.007 71.1246C288.388 71.8273 287.903 72.6628 287.553 73.6325C287.202 74.6033 287.027 75.6561 287.027 76.7921Z" fill="#263238"/>
<path d="M327.9 90.3842C325.826 90.3842 324.021 89.9248 322.484 89.0049C320.946 88.0862 319.742 86.8409 318.873 85.2692V100.566H312.152V63.6023H318.02V68.1152C318.989 66.5782 320.243 65.3652 321.782 64.4788C323.318 63.5936 325.091 63.1504 327.096 63.1504C328.869 63.1504 330.507 63.5104 332.012 64.2293C333.516 64.9481 334.812 65.9177 335.899 67.1381C336.985 68.3585 337.838 69.7962 338.457 71.4511C339.076 73.1061 339.385 74.8541 339.385 76.6928C339.385 78.5985 339.101 80.3875 338.532 82.0586C337.963 83.7309 337.169 85.186 336.15 86.4225C335.129 87.6603 333.917 88.6287 332.513 89.3314C331.11 90.0328 329.572 90.3842 327.9 90.3842ZM325.644 84.667C326.647 84.667 327.574 84.4498 328.427 84.0152C329.279 83.5807 330.007 82.996 330.609 82.2597C331.21 81.5248 331.678 80.6718 332.013 79.701C332.348 78.7314 332.514 77.7295 332.514 76.6928C332.514 75.5891 332.331 74.5611 331.963 73.6089C331.594 72.6554 331.085 71.8286 330.434 71.1259C329.782 70.4244 329.012 69.8719 328.127 69.4709C327.24 69.0699 326.28 68.8688 325.244 68.8688C324.608 68.8688 323.957 68.978 323.289 69.1953C322.62 69.4126 322.001 69.7217 321.433 70.124C320.864 70.525 320.355 70.9943 319.903 71.5281C319.452 72.0632 319.109 72.6492 318.875 73.2836V79.4527C319.477 80.9574 320.397 82.2026 321.634 83.1884C322.868 84.1741 324.206 84.667 325.644 84.667Z" fill="#263238"/>
<path d="M353.882 90.3843C351.676 90.3843 349.518 90.033 347.413 89.3315C345.306 88.6301 343.501 87.6257 341.996 86.3221L344.504 82.1096C346.109 83.2469 347.672 84.1072 349.193 84.692C350.715 85.278 352.227 85.5697 353.732 85.5697C355.068 85.5697 356.122 85.3189 356.892 84.8174C357.66 84.3158 358.045 83.597 358.045 82.6609C358.045 81.7248 357.594 81.0395 356.691 80.6049C355.788 80.1704 354.317 79.6688 352.277 79.1002C350.572 78.6322 349.117 78.1803 347.913 77.7457C346.709 77.3112 345.739 76.8183 345.004 76.2658C344.268 75.7146 343.734 75.079 343.399 74.3601C343.064 73.6413 342.899 72.7797 342.899 71.7765C342.899 70.4394 343.157 69.2364 343.676 68.165C344.194 67.096 344.921 66.1835 345.857 65.4312C346.793 64.6788 347.89 64.1028 349.142 63.7017C350.396 63.3007 351.757 63.0996 353.229 63.0996C355.202 63.0996 357.048 63.3839 358.771 63.9525C360.493 64.5211 362.073 65.4399 363.51 66.7112L360.801 70.7734C359.464 69.7703 358.169 69.0353 356.914 68.5672C355.66 68.0992 354.415 67.8658 353.178 67.8658C352.041 67.8658 351.088 68.1004 350.319 68.5672C349.549 69.0353 349.165 69.7876 349.165 70.8243C349.165 71.2923 349.256 71.6772 349.441 71.9777C349.624 72.2781 349.918 72.5463 350.319 72.7797C350.72 73.0143 351.247 73.2403 351.898 73.4563C352.55 73.6748 353.361 73.8995 354.331 74.1329C356.136 74.601 357.681 75.069 358.969 75.5371C360.256 76.0051 361.309 76.5402 362.128 77.1411C362.948 77.7432 363.55 78.4372 363.935 79.2219C364.318 80.0078 364.511 80.9526 364.511 82.0563C364.511 84.6311 363.559 86.6623 361.652 88.1496C359.751 89.6406 357.159 90.3843 353.882 90.3843Z" fill="#263238"/>
<path d="M370.18 76.4913V53.9219H376.9V76.4913H370.18ZM370.18 89.8823V82.309H376.9V89.8823H370.18Z" fill="#263238"/>
<path d="M336.577 389.816H292.488V393.428H336.577V389.816Z" fill="#37474F"/>
<path d="M336.577 394.52H292.488V398.131H336.577V394.52Z" fill="#37474F"/>
<path d="M336.577 399.225H292.488V402.836H336.577V399.225Z" fill="#37474F"/>
<path d="M336.577 403.928H292.488V407.539H336.577V403.928Z" fill="#37474F"/>
<path d="M336.577 408.633H292.488V412.244H336.577V408.633Z" fill="#37474F"/>
<path d="M355.664 502.484H271.842V506.096H355.664V502.484Z" fill="#37474F"/>
<path d="M355.664 507.188H271.842V510.799H355.664V507.188Z" fill="#37474F"/>
<path d="M355.664 511.893H271.842V515.504H355.664V511.893Z" fill="#37474F"/>
<path d="M355.664 516.596H271.842V520.207H355.664V516.596Z" fill="#37474F"/>
<path d="M355.664 521.301H271.842V524.912H355.664V521.301Z" fill="#37474F"/>
<path d="M235.065 359.965C235.106 359.477 216.719 353.317 216.719 353.317L217.805 290.142L242.187 284.91L235.065 359.965Z" fill="#18A532"/>
<path opacity="0.2" d="M235.065 359.965C235.106 359.477 216.719 353.317 216.719 353.317L217.805 290.142L242.187 284.91L235.065 359.965Z" fill="black"/>
<path d="M403.48 384.761C403.61 384.288 422.995 384.833 422.995 384.833L443.715 325.143L422.623 311.84L403.48 384.761Z" fill="#18A532"/>
<path opacity="0.2" d="M403.48 384.761C403.61 384.288 422.995 384.833 422.995 384.833L443.715 325.143L422.623 311.84L403.48 384.761Z" fill="black"/>
<path d="M231.525 383.227C231.525 383.227 238.343 281.053 244.322 247.441C244.322 247.441 367.749 256.776 434.38 282.243C434.38 282.243 400.028 401.588 398.25 407.51C398.25 407.51 311.335 390.388 231.525 383.227Z" fill="#18A532"/>
<path opacity="0.1" d="M341.695 261.086C339.689 273.388 337.658 285.686 335.556 297.972L329.194 334.819L328.852 334.299L370.208 344.123L390.864 349.129L411.497 354.234L390.755 349.592L370.036 344.852L328.643 335.183L328.225 335.085L328.3 334.662L334.887 297.855C337.1 285.588 339.386 273.335 341.695 261.086Z" fill="black"/>
<path opacity="0.1" d="M337.155 268.097C337.177 269.224 336.279 270.382 334.988 270.495C334.362 270.555 333.681 270.355 333.172 269.912C332.663 269.469 332.359 268.786 332.355 268.097C332.359 267.408 332.661 266.724 333.171 266.28C333.679 265.833 334.362 265.637 334.988 265.696C336.28 265.809 337.177 266.969 337.155 268.097ZM337.155 268.097C337.15 267.528 336.898 266.969 336.475 266.611C336.05 266.252 335.494 266.105 334.989 266.164C333.947 266.284 333.272 267.219 333.287 268.097C333.27 268.974 333.945 269.914 334.989 270.032C335.494 270.089 336.051 269.943 336.476 269.584C336.898 269.224 337.15 268.665 337.155 268.097Z" fill="black"/>
<path opacity="0.1" d="M334.987 283.3C335.01 284.427 334.111 285.587 332.82 285.698C332.194 285.758 331.513 285.558 331.004 285.115C330.495 284.672 330.191 283.989 330.188 283.3C330.191 282.611 330.493 281.927 331.003 281.483C331.511 281.037 332.194 280.84 332.82 280.899C334.113 281.013 335.011 282.174 334.987 283.3ZM334.987 283.3C334.982 282.731 334.73 282.173 334.307 281.814C333.882 281.455 333.326 281.308 332.821 281.367C331.779 281.487 331.104 282.422 331.119 283.3C331.102 284.178 331.777 285.117 332.821 285.235C333.326 285.292 333.883 285.146 334.308 284.786C334.731 284.428 334.982 283.868 334.987 283.3Z" fill="black"/>
<path opacity="0.1" d="M332.321 299.364C332.344 300.492 331.445 301.651 330.153 301.763C329.528 301.822 328.847 301.624 328.338 301.179C327.829 300.736 327.525 300.053 327.521 299.364C327.525 298.675 327.827 297.991 328.337 297.548C328.845 297.101 329.528 296.905 330.153 296.963C331.447 297.077 332.345 298.237 332.321 299.364ZM332.321 299.364C332.316 298.796 332.064 298.237 331.641 297.878C331.216 297.519 330.66 297.373 330.155 297.431C329.113 297.552 328.438 298.487 328.453 299.364C328.436 300.242 329.111 301.182 330.155 301.3C330.66 301.358 331.217 301.21 331.642 300.852C332.064 300.492 332.316 299.933 332.321 299.364Z" fill="black"/>
<path opacity="0.1" d="M329.651 315.427C329.675 316.554 328.775 317.712 327.484 317.825C326.858 317.884 326.177 317.685 325.668 317.242C325.159 316.799 324.855 316.116 324.852 315.427C324.854 314.738 325.158 314.054 325.667 313.61C326.175 313.163 326.858 312.967 327.484 313.026C328.777 313.139 329.675 314.299 329.651 315.427ZM329.651 315.427C329.646 314.858 329.394 314.299 328.97 313.941C328.545 313.582 327.989 313.435 327.484 313.494C326.442 313.614 325.767 314.549 325.781 315.427C325.765 316.304 326.439 317.244 327.484 317.362C327.989 317.419 328.546 317.273 328.971 316.914C329.394 316.554 329.646 315.995 329.651 315.427Z" fill="black"/>
<path opacity="0.1" d="M338.747 341.048C338.771 342.175 337.87 343.333 336.579 343.446C335.954 343.505 335.273 343.306 334.764 342.863C334.255 342.42 333.951 341.737 333.947 341.048C333.95 340.359 334.253 339.675 334.763 339.231C335.271 338.785 335.954 338.588 336.579 338.647C337.872 338.76 338.769 339.921 338.747 341.048ZM338.747 341.048C338.742 340.479 338.49 339.921 338.065 339.562C337.641 339.203 337.085 339.056 336.579 339.115C335.538 339.235 334.862 340.17 334.877 341.048C334.861 341.926 335.535 342.865 336.579 342.983C337.085 343.042 337.642 342.894 338.067 342.534C338.49 342.175 338.741 341.616 338.747 341.048Z" fill="black"/>
<path opacity="0.1" d="M353.909 344.747C353.933 345.874 353.033 347.034 351.741 347.146C351.116 347.204 350.435 347.005 349.926 346.562C349.417 346.119 349.113 345.436 349.109 344.747C349.113 344.058 349.416 343.374 349.925 342.931C350.433 342.484 351.116 342.288 351.741 342.346C353.035 342.46 353.933 343.62 353.909 344.747ZM353.909 344.747C353.904 344.178 353.652 343.62 353.229 343.261C352.804 342.902 352.248 342.756 351.743 342.814C350.701 342.934 350.026 343.869 350.041 344.747C350.024 345.625 350.699 346.565 351.743 346.683C352.248 346.74 352.805 346.593 353.23 346.233C353.652 345.874 353.904 345.316 353.909 344.747Z" fill="black"/>
<path opacity="0.1" d="M369.071 348.446C369.094 349.574 368.195 350.732 366.904 350.845C366.278 350.903 365.597 350.705 365.088 350.261C364.579 349.818 364.275 349.135 364.271 348.446C364.275 347.757 364.577 347.073 365.087 346.63C365.595 346.183 366.278 345.987 366.904 346.045C368.196 346.158 369.094 347.319 369.071 348.446ZM369.071 348.446C369.066 347.878 368.814 347.319 368.391 346.96C367.966 346.601 367.41 346.455 366.905 346.513C365.863 346.634 365.188 347.569 365.203 348.446C365.186 349.324 365.861 350.264 366.905 350.382C367.41 350.439 367.967 350.292 368.392 349.932C368.814 349.574 369.065 349.014 369.071 348.446Z" fill="black"/>
<path opacity="0.1" d="M384.233 352.144C384.257 353.271 383.357 354.429 382.066 354.542C381.44 354.6 380.76 354.403 380.25 353.959C379.741 353.515 379.437 352.833 379.434 352.144C379.437 351.454 379.739 350.77 380.249 350.327C380.757 349.88 381.44 349.684 382.066 349.742C383.359 349.855 384.256 351.016 384.233 352.144ZM384.233 352.144C384.228 351.575 383.976 351.016 383.553 350.657C383.128 350.299 382.572 350.152 382.067 350.21C381.025 350.331 380.35 351.266 380.365 352.144C380.349 353.021 381.023 353.961 382.067 354.079C382.572 354.136 383.13 353.99 383.554 353.631C383.976 353.271 384.228 352.712 384.233 352.144Z" fill="black"/>
<path opacity="0.1" d="M399.39 356.008C399.327 357.134 398.341 358.22 397.045 358.233C396.416 358.244 395.754 357.993 395.279 357.512C394.805 357.03 394.554 356.327 394.604 355.639C394.66 354.953 395.015 354.295 395.557 353.891C396.099 353.485 396.794 353.341 397.413 353.448C398.695 353.66 399.499 354.887 399.39 356.008ZM399.39 356.008C399.428 355.441 399.22 354.865 398.825 354.474C398.429 354.082 397.885 353.894 397.377 353.914C396.33 353.953 395.583 354.834 395.531 355.71C395.447 356.584 396.048 357.572 397.079 357.771C397.579 357.868 398.146 357.765 398.597 357.438C399.047 357.113 399.341 356.575 399.39 356.008Z" fill="black"/>
<path opacity="0.1" d="M326.981 331.492C327.004 332.619 326.105 333.778 324.814 333.89C324.188 333.95 323.508 333.751 322.999 333.307C322.49 332.863 322.185 332.181 322.182 331.492C322.185 330.802 322.488 330.118 322.997 329.675C323.505 329.228 324.188 329.031 324.814 329.09C326.107 329.203 327.005 330.364 326.981 331.492ZM326.981 331.492C326.976 330.923 326.724 330.364 326.3 330.005C325.875 329.647 325.319 329.5 324.814 329.559C323.772 329.679 323.097 330.614 323.112 331.492C323.095 332.369 323.77 333.309 324.814 333.427C325.319 333.484 325.876 333.338 326.3 332.978C326.726 332.619 326.976 332.06 326.981 331.492Z" fill="black"/>
<path opacity="0.2" d="M301.448 358.107C315.842 345.165 317.019 323.005 304.076 308.611C291.134 294.217 268.974 293.04 254.58 305.982C240.186 318.924 239.009 341.085 251.951 355.479C264.894 369.872 287.054 371.049 301.448 358.107Z" fill="black"/>
<path d="M304.291 341.998C309.787 327.48 302.473 311.256 287.954 305.76C273.436 300.265 257.212 307.579 251.716 322.097C246.221 336.615 253.535 352.84 268.053 358.335C282.571 363.831 298.796 356.517 304.291 341.998Z" fill="#263238"/>
<path d="M276.317 321.711L269.746 320.646L268.682 327.218L275.253 328.282L276.317 321.711Z" fill="#18A532"/>
<path d="M270.811 314.076L264.24 313.012L263.176 319.583L269.747 320.647L270.811 314.076Z" fill="#18A532"/>
<path d="M297.095 318.334L290.523 317.27L289.459 323.841L296.03 324.905L297.095 318.334Z" fill="#18A532"/>
<path d="M266.577 340.211L260.006 339.146L258.941 345.718L265.513 346.782L266.577 340.211Z" fill="#18A532"/>
<path d="M292.862 344.469L286.291 343.404L285.227 349.975L291.798 351.04L292.862 344.469Z" fill="#18A532"/>
<path d="M274.212 334.707L267.641 333.643L266.576 340.214L273.147 341.278L274.212 334.707Z" fill="#18A532"/>
<path d="M281.837 329.271L275.266 328.207L274.201 334.778L280.772 335.843L281.837 329.271Z" fill="#18A532"/>
<path d="M289.46 323.84L282.889 322.775L281.824 329.347L288.395 330.411L289.46 323.84Z" fill="#18A532"/>
<path d="M287.362 336.832L280.791 335.768L279.727 342.339L286.298 343.403L287.362 336.832Z" fill="#18A532"/>
<path d="M399.189 368.929C411.458 353.956 409.265 331.873 394.293 319.604C379.32 307.336 357.237 309.528 344.968 324.501C332.7 339.474 334.892 361.557 349.864 373.825C364.837 386.094 386.92 383.902 399.189 368.929Z" fill="#18A532"/>
<path opacity="0.2" d="M399.189 368.929C411.458 353.956 409.265 331.873 394.293 319.604C379.32 307.336 357.237 309.528 344.968 324.501C332.7 339.474 334.892 361.557 349.864 373.825C364.837 386.094 386.92 383.902 399.189 368.929Z" fill="black"/>
<path opacity="0.2" d="M406.181 354.839C406.02 355.529 405.836 356.196 405.628 356.862L337.311 342.291C337.472 341.072 337.69 339.852 337.977 338.622C342.452 319.795 361.347 308.155 380.187 312.629C399.016 317.103 410.655 335.999 406.181 354.839Z" fill="black"/>
<path d="M382.907 372.673C397.231 366.689 403.992 350.225 398.007 335.901C392.023 321.577 375.559 314.816 361.235 320.801C346.911 326.785 340.15 343.249 346.135 357.573C352.119 371.897 368.583 378.658 382.907 372.673Z" fill="#263238"/>
<path d="M379.15 331.375L372.674 329.836L365.013 362.073L371.49 363.612L379.15 331.375Z" fill="#18A532"/>
<path d="M408.214 354.181L336.453 337.126C341.162 317.314 361.046 305.073 380.858 309.781C400.672 314.491 412.923 334.369 408.214 354.181Z" fill="#18A532"/>
<path opacity="0.2" d="M408.214 354.181L336.453 337.126C341.162 317.314 361.046 305.073 380.858 309.781C400.672 314.491 412.923 334.369 408.214 354.181Z" fill="black"/>
<path opacity="0.1" d="M311.094 367.566C311.275 364.764 312.304 361.922 314.337 359.675C315.338 358.543 316.676 357.654 318.148 357.112C319.628 356.569 321.227 356.473 322.743 356.602C324.286 356.782 325.862 357.326 327.148 358.299C328.409 359.292 329.376 360.587 329.945 361.981C331.116 364.76 331.243 367.73 330.676 370.483C330.209 367.731 329.498 365.058 328.206 362.864C326.923 360.653 324.894 359.279 322.477 359.065C320.012 358.759 317.605 359.42 315.667 361.058C313.729 362.69 312.25 365.028 311.094 367.566Z" fill="black"/>
<path d="M241.125 296.078C241.416 292.334 241.836 288.607 242.191 284.871C242.59 281.142 243 277.414 243.453 273.693C243.884 269.968 244.369 266.251 244.846 262.532C245.313 258.812 245.851 255.102 246.351 251.386L246.483 250.395L247.489 250.458C255.576 250.967 263.646 251.62 271.705 252.449C275.733 252.863 279.757 253.331 283.776 253.847C287.787 254.423 291.805 254.955 295.792 255.685L271.562 254.185L247.356 252.619L248.495 251.691C247.945 255.399 247.433 259.112 246.851 262.816C246.277 266.521 245.712 270.226 245.094 273.925C244.498 277.626 243.859 281.322 243.207 285.015C242.513 288.703 241.884 292.4 241.125 296.078Z" fill="white"/>
<path d="M246.955 324.405C247.768 319.904 249.814 315.614 252.563 311.878C253.247 310.939 254.025 310.071 254.774 309.177C255.585 308.34 256.428 307.531 257.26 306.71C258.167 305.973 259.083 305.241 260.015 304.532C261.004 303.905 261.981 303.251 262.987 302.649C264.046 302.14 265.099 301.616 266.167 301.132L269.497 299.98L272.944 299.268C274.101 299.1 275.276 299.064 276.437 298.977C281.11 298.856 285.71 299.853 289.931 301.563C285.438 300.721 280.961 300.254 276.548 300.675C272.145 301.085 267.867 302.401 264.042 304.556C260.187 306.66 256.773 309.563 253.889 312.935C251.017 316.324 248.64 320.163 246.955 324.405Z" fill="white"/>
<path d="M343.637 333.873C345.064 329.526 347.683 325.561 350.921 322.24C351.728 321.404 352.619 320.652 353.484 319.87C354.402 319.154 355.349 318.468 356.287 317.769C357.287 317.163 358.295 316.566 359.316 315.993C360.382 315.509 361.44 314.994 362.52 314.538C363.64 314.18 364.755 313.806 365.88 313.475L369.337 312.793L372.849 312.565C374.019 312.556 375.187 312.684 376.349 312.757C380.995 313.284 385.411 314.906 389.357 317.182C385.023 315.728 380.654 314.647 376.224 314.456C371.807 314.255 367.388 314.967 363.302 316.574C359.194 318.126 355.411 320.529 352.089 323.47C348.774 326.431 345.89 329.904 343.637 333.873Z" fill="white"/>
<path d="M235.444 446.19C226.465 446.19 206.81 444.172 194.161 427.909C177.979 407.104 183.828 367.182 184.084 365.492L191.11 366.559C191.051 366.942 185.468 405.157 199.77 423.547C213.754 441.525 239.116 438.944 239.371 438.913L240.17 445.973C239.894 446.007 238.154 446.19 235.444 446.19Z" fill="#18A532"/>
<path opacity="0.4" d="M235.444 446.19C226.465 446.19 206.81 444.172 194.161 427.909C177.979 407.104 183.828 367.182 184.084 365.492L191.11 366.559C191.051 366.942 185.468 405.157 199.77 423.547C213.754 441.525 239.116 438.944 239.371 438.913L240.17 445.973C239.894 446.007 238.154 446.19 235.444 446.19Z" fill="white"/>
<path d="M193.179 371.395C191.898 371.395 190.589 371.288 189.257 371.072C177.405 369.153 172.159 362.061 169.843 356.45C167.523 350.826 166.987 344.022 168.249 336.23L183.279 338.666C182.497 343.493 182.724 347.748 183.918 350.643C184.77 352.709 186.424 355.19 191.691 356.043C194.098 356.432 196.699 356.226 199.422 352.118C201.524 348.947 202.788 344.632 203.23 341.898L218.26 344.333C217.912 346.483 216.439 354.006 212.112 360.532C207.407 367.63 200.783 371.395 193.179 371.395Z" fill="#18A532"/>
<path d="M250.291 466.527C250.265 466.203 237.558 464.173 237.558 464.173L231.391 422.701L246.782 416.621L250.291 466.527Z" fill="#18A532"/>
<path opacity="0.2" d="M250.291 466.527C250.265 466.203 237.558 464.173 237.558 464.173L231.391 422.701L246.782 416.621L250.291 466.527Z" fill="black"/>
<path d="M375.926 466.606C375.959 466.283 388.708 464.534 388.708 464.534L395.791 423.208L380.538 416.789L375.926 466.606Z" fill="#18A532"/>
<path opacity="0.2" d="M375.926 466.606C375.959 466.283 388.708 464.534 388.708 464.534L395.791 423.208L380.538 416.789L375.926 466.606Z" fill="black"/>
<path d="M245.005 407.336C245.005 407.336 347.785 402.941 382.504 408.728C382.504 408.728 372.309 508.181 371.758 510.11C371.758 510.11 269.518 509.834 253.536 510.11C253.536 510.11 244.874 443.978 245.005 407.336Z" fill="#18A532"/>
<path opacity="0.2" d="M276.223 434.589C276.223 434.589 332.33 432.373 351.284 435.291C351.284 435.291 345.719 485.44 345.418 486.412C345.418 486.412 289.605 486.273 280.881 486.412C280.878 486.412 277.045 452.089 276.223 434.589Z" fill="black"/>
<path opacity="0.2" d="M283.891 486.39C282.606 486.39 281.588 486.406 280.876 486.414C280.876 486.414 277.047 452.085 276.219 434.585C276.219 434.585 277.495 434.535 279.724 434.461L283.891 486.39Z" fill="black"/>
<path d="M300.437 446.963C297.292 445.973 293.942 447.718 292.951 450.86C291.959 454.009 293.707 457.356 296.852 458.347C299.994 459.337 303.341 457.593 304.332 454.448C305.323 451.307 303.579 447.954 300.437 446.963ZM303.64 454.23C302.77 456.993 299.829 458.525 297.069 457.655C294.309 456.785 292.776 453.845 293.647 451.081C294.518 448.321 297.459 446.788 300.221 447.66C302.977 448.529 304.511 451.47 303.64 454.23ZM300.437 446.963C297.292 445.973 293.942 447.718 292.951 450.86C291.959 454.009 293.707 457.356 296.852 458.347C299.994 459.337 303.341 457.593 304.332 454.448C305.323 451.307 303.579 447.954 300.437 446.963ZM303.64 454.23C302.77 456.993 299.829 458.525 297.069 457.655C294.309 456.785 292.776 453.845 293.647 451.081C294.518 448.321 297.459 446.788 300.221 447.66C302.977 448.529 304.511 451.47 303.64 454.23ZM300.437 446.963C297.292 445.973 293.942 447.718 292.951 450.86C291.959 454.009 293.707 457.356 296.852 458.347C299.994 459.337 303.341 457.593 304.332 454.448C305.323 451.307 303.579 447.954 300.437 446.963ZM303.64 454.23C302.77 456.993 299.829 458.525 297.069 457.655C294.309 456.785 292.776 453.845 293.647 451.081C294.518 448.321 297.459 446.788 300.221 447.66C302.977 448.529 304.511 451.47 303.64 454.23ZM302.426 440.659C295.795 438.571 288.735 442.254 286.645 448.875C284.558 455.5 288.234 462.565 294.863 464.652C301.484 466.738 308.551 463.059 310.637 456.435C312.727 449.814 309.048 442.745 302.426 440.659ZM305.22 454.726C304.076 458.355 300.198 460.377 296.572 459.233C292.947 458.091 290.926 454.212 292.068 450.583C293.212 446.955 297.093 444.937 300.718 446.079C304.341 447.223 306.362 451.101 305.22 454.726ZM304.332 454.45C305.323 451.307 303.579 447.955 300.437 446.964C297.292 445.974 293.942 447.719 292.951 450.862C291.959 454.01 293.707 457.357 296.852 458.348C299.994 459.339 303.341 457.594 304.332 454.45ZM303.64 454.23C302.77 456.993 299.829 458.525 297.069 457.655C294.309 456.785 292.776 453.845 293.647 451.081C294.518 448.321 297.459 446.788 300.221 447.66C302.977 448.529 304.511 451.47 303.64 454.23ZM300.437 446.963C297.292 445.973 293.942 447.718 292.951 450.86C291.959 454.009 293.707 457.356 296.852 458.347C299.994 459.337 303.341 457.593 304.332 454.448C305.323 451.307 303.579 447.954 300.437 446.963ZM303.64 454.23C302.77 456.993 299.829 458.525 297.069 457.655C294.309 456.785 292.776 453.845 293.647 451.081C294.518 448.321 297.459 446.788 300.221 447.66C302.977 448.529 304.511 451.47 303.64 454.23ZM300.437 446.963C297.292 445.973 293.942 447.718 292.951 450.86C291.959 454.009 293.707 457.356 296.852 458.347C299.994 459.337 303.341 457.593 304.332 454.448C305.323 451.307 303.579 447.954 300.437 446.963ZM303.64 454.23C302.77 456.993 299.829 458.525 297.069 457.655C294.309 456.785 292.776 453.845 293.647 451.081C294.518 448.321 297.459 446.788 300.221 447.66C302.977 448.529 304.511 451.47 303.64 454.23Z" fill="#18A532"/>
<path d="M297.324 464.88L292.712 463.426L291.938 466.772L296.041 468.064L297.324 464.88Z" fill="#18A532"/>
<path d="M289.038 460.559L286.803 456.27L283.891 458.088L285.877 461.904L289.038 460.559Z" fill="#18A532"/>
<path d="M286.229 451.642L287.681 447.029L284.337 446.256L283.043 450.358L286.229 451.642Z" fill="#18A532"/>
<path d="M290.55 443.352L294.839 441.119L293.02 438.205L289.205 440.193L290.55 443.352Z" fill="#18A532"/>
<path d="M299.465 440.546L304.078 442L304.852 438.654L300.75 437.361L299.465 440.546Z" fill="#18A532"/>
<path d="M307.758 444.867L309.991 449.156L312.905 447.339L310.917 443.523L307.758 444.867Z" fill="#18A532"/>
<path d="M310.563 453.783L309.109 458.395L312.455 459.17L313.748 455.067L310.563 453.783Z" fill="#18A532"/>
<path d="M306.242 462.072L301.951 464.307L303.77 467.22L307.585 465.233L306.242 462.072Z" fill="#18A532"/>
<path d="M320.728 464.517C318.868 463.305 316.379 463.833 315.168 465.69C313.955 467.552 314.484 470.039 316.344 471.251C318.202 472.461 320.688 471.935 321.9 470.075C323.11 468.218 322.586 465.727 320.728 464.517ZM321.491 469.808C320.427 471.443 318.242 471.905 316.609 470.841C314.977 469.778 314.515 467.593 315.579 465.959C316.642 464.327 318.827 463.865 320.461 464.929C322.092 465.992 322.554 468.175 321.491 469.808ZM320.728 464.517C318.868 463.305 316.379 463.833 315.168 465.69C313.955 467.552 314.484 470.039 316.344 471.251C318.202 472.461 320.688 471.935 321.9 470.075C323.11 468.218 322.586 465.727 320.728 464.517ZM321.491 469.808C320.427 471.443 318.242 471.905 316.609 470.841C314.977 469.778 314.515 467.593 315.579 465.959C316.642 464.327 318.827 463.865 320.461 464.929C322.092 465.992 322.554 468.175 321.491 469.808ZM320.728 464.517C318.868 463.305 316.379 463.833 315.168 465.69C313.955 467.552 314.484 470.039 316.344 471.251C318.202 472.461 320.688 471.935 321.9 470.075C323.11 468.218 322.586 465.727 320.728 464.517ZM321.491 469.808C320.427 471.443 318.242 471.905 316.609 470.841C314.977 469.778 314.515 467.593 315.579 465.959C316.642 464.327 318.827 463.865 320.461 464.929C322.092 465.992 322.554 468.175 321.491 469.808ZM323.157 460.788C319.234 458.236 313.99 459.347 311.437 463.264C308.886 467.184 309.992 472.43 313.913 474.981C317.83 477.532 323.078 476.423 325.629 472.505C328.182 468.588 327.074 463.339 323.157 460.788ZM322.425 470.416C321.027 472.563 318.146 473.173 316.002 471.776C313.858 470.379 313.247 467.499 314.645 465.352C316.043 463.206 318.925 462.599 321.069 463.995C323.212 465.391 323.821 468.271 322.425 470.416ZM321.9 470.075C323.11 468.216 322.586 465.728 320.728 464.518C318.868 463.306 316.379 463.834 315.168 465.691C313.955 467.554 314.484 470.04 316.344 471.252C318.202 472.462 320.688 471.935 321.9 470.075ZM321.491 469.808C320.427 471.443 318.242 471.905 316.609 470.841C314.977 469.778 314.515 467.593 315.579 465.959C316.642 464.327 318.827 463.865 320.461 464.929C322.092 465.992 322.554 468.175 321.491 469.808ZM320.728 464.517C318.868 463.305 316.379 463.833 315.168 465.69C313.955 467.552 314.484 470.039 316.344 471.251C318.202 472.461 320.688 471.935 321.9 470.075C323.11 468.218 322.586 465.727 320.728 464.517ZM321.491 469.808C320.427 471.443 318.242 471.905 316.609 470.841C314.977 469.778 314.515 467.593 315.579 465.959C316.642 464.327 318.827 463.865 320.461 464.929C322.092 465.992 322.554 468.175 321.491 469.808ZM320.728 464.517C318.868 463.305 316.379 463.833 315.168 465.69C313.955 467.552 314.484 470.039 316.344 471.251C318.202 472.461 320.688 471.935 321.9 470.075C323.11 468.218 322.586 465.727 320.728 464.517ZM321.491 469.808C320.427 471.443 318.242 471.905 316.609 470.841C314.977 469.778 314.515 467.593 315.579 465.959C316.642 464.327 318.827 463.865 320.461 464.929C322.092 465.992 322.554 468.175 321.491 469.808Z" fill="#DBDBDB"/>
<path d="M315.47 475.575L312.741 473.799L311.635 475.829L314.062 477.409L315.47 475.575Z" fill="#DBDBDB"/>
<path d="M310.876 471.274L310.203 468.088L307.984 468.741L308.584 471.574L310.876 471.274Z" fill="#DBDBDB"/>
<path d="M310.67 464.985L312.446 462.257L310.416 461.15L308.836 463.578L310.67 464.985Z" fill="#DBDBDB"/>
<path d="M314.97 460.39L318.156 459.717L317.503 457.5L314.67 458.098L314.97 460.39Z" fill="#DBDBDB"/>
<path d="M321.26 460.181L323.987 461.958L325.095 459.928L322.668 458.348L321.26 460.181Z" fill="#DBDBDB"/>
<path d="M325.855 464.482L326.528 467.668L328.746 467.015L328.147 464.182L325.855 464.482Z" fill="#DBDBDB"/>
<path d="M326.064 470.773L324.287 473.502L326.317 474.608L327.897 472.181L326.064 470.773Z" fill="#DBDBDB"/>
<path d="M321.762 475.369L318.576 476.042L319.228 478.259L322.062 477.661L321.762 475.369Z" fill="#DBDBDB"/>
<path d="M380.023 498.536L383.974 499.271L395.27 422.76L390.77 421.934L380.023 498.536Z" fill="#18A532"/>
<path d="M345.418 486.412L351.284 435.29L390.769 421.934C390.769 421.934 380.023 499.363 380.023 498.536L345.418 486.412Z" fill="#18A532"/>
<path opacity="0.4" d="M345.418 486.412L351.284 435.29L390.769 421.934C390.769 421.934 380.023 499.363 380.023 498.536L345.418 486.412Z" fill="white"/>
<path d="M249.72 437.361C249.077 433.127 248.729 428.857 248.465 424.584C248.343 422.446 248.289 420.305 248.241 418.165C248.199 416.025 248.162 413.882 248.225 411.74L248.243 411.178L248.79 411.148C256.634 410.727 264.473 410.212 272.322 409.869C280.168 409.482 288.014 409.131 295.867 408.885C288.039 409.594 280.208 410.197 272.374 410.766C264.542 411.378 256.702 411.817 248.867 412.351L249.431 411.759L249.398 418.153L249.473 424.549C249.484 426.683 249.523 428.816 249.585 430.95L249.72 437.361Z" fill="white"/>
<path d="M356.791 436.039C359.237 434.877 361.721 433.797 364.235 432.8C366.742 431.779 369.271 430.813 371.829 429.927C374.392 429.052 376.963 428.195 379.578 427.469C382.187 426.734 384.822 426.055 387.513 425.614L388.175 425.506L388.057 426.138C387.438 429.448 386.79 432.753 386.024 436.039C386.31 432.677 386.715 429.332 387.148 425.994L387.692 426.518C385.084 427.14 382.497 427.867 379.917 428.629C377.339 429.4 374.769 430.212 372.207 431.047L356.791 436.039Z" fill="white"/>
<path opacity="0.1" d="M266.809 407.543L267.474 420.329L268.043 433.119L269.028 458.704L269.799 484.297L270.107 497.096L270.318 509.898L269.652 497.112L269.083 484.322L268.099 458.737L267.33 433.144L267.021 420.345L266.809 407.543Z" fill="black"/>
<path opacity="0.1" d="M263.146 415.249C263.392 416.35 262.739 417.663 261.496 418.028C260.894 418.21 260.189 418.15 259.602 417.815C259.014 417.481 258.581 416.872 258.442 416.197C258.309 415.52 258.471 414.79 258.883 414.255C259.292 413.718 259.923 413.389 260.548 413.323C261.836 413.179 262.946 414.14 263.146 415.249ZM263.146 415.249C263.028 414.692 262.671 414.195 262.185 413.926C261.698 413.658 261.124 413.625 260.639 413.782C259.643 414.106 259.165 415.155 259.353 416.015C259.511 416.877 260.358 417.666 261.404 417.575C261.911 417.532 262.428 417.278 262.772 416.841C263.118 416.406 263.253 415.807 263.146 415.249Z" fill="black"/>
<path opacity="0.1" d="M264.025 430.581C264.271 431.682 263.618 432.995 262.375 433.36C261.773 433.542 261.068 433.482 260.48 433.147C259.893 432.813 259.46 432.204 259.321 431.529C259.188 430.852 259.349 430.122 259.762 429.587C260.171 429.05 260.802 428.721 261.426 428.655C262.715 428.511 263.825 429.472 264.025 430.581ZM264.025 430.581C263.907 430.024 263.549 429.527 263.064 429.258C262.577 428.99 262.003 428.957 261.518 429.114C260.521 429.438 260.043 430.489 260.232 431.347C260.39 432.209 261.237 432.998 262.283 432.907C262.79 432.864 263.307 432.609 263.653 432.173C263.996 431.738 264.133 431.139 264.025 430.581Z" fill="black"/>
<path opacity="0.1" d="M264.584 446.856C264.829 447.957 264.176 449.271 262.934 449.636C262.331 449.817 261.626 449.757 261.039 449.422C260.452 449.088 260.019 448.48 259.879 447.804C259.747 447.129 259.908 446.398 260.32 445.863C260.73 445.324 261.361 444.996 261.985 444.93C263.274 444.786 264.384 445.747 264.584 446.856ZM264.584 446.856C264.466 446.3 264.108 445.802 263.623 445.534C263.136 445.266 262.561 445.232 262.077 445.39C261.08 445.714 260.602 446.763 260.791 447.621C260.948 448.485 261.795 449.272 262.842 449.181C263.348 449.138 263.866 448.885 264.21 448.448C264.555 448.012 264.69 447.415 264.584 446.856Z" fill="black"/>
<path opacity="0.1" d="M265.144 463.131C265.39 464.233 264.737 465.546 263.494 465.911C262.892 466.092 262.187 466.033 261.6 465.698C261.012 465.364 260.579 464.755 260.44 464.08C260.307 463.403 260.469 462.673 260.881 462.138C261.29 461.601 261.92 461.272 262.546 461.206C263.834 461.062 264.944 462.023 265.144 463.131ZM265.144 463.131C265.026 462.575 264.67 462.077 264.183 461.809C263.697 461.541 263.122 461.507 262.638 461.665C261.641 461.989 261.163 463.038 261.351 463.897C261.509 464.76 262.356 465.549 263.402 465.458C263.909 465.414 264.427 465.161 264.77 464.724C265.116 464.288 265.251 463.69 265.144 463.131Z" fill="black"/>
<path opacity="0.1" d="M265.701 479.405C265.947 480.506 265.294 481.82 264.051 482.185C263.449 482.366 262.743 482.306 262.156 481.971C261.569 481.637 261.136 481.029 260.997 480.353C260.864 479.677 261.025 478.947 261.437 478.412C261.847 477.874 262.478 477.545 263.102 477.479C264.391 477.335 265.501 478.295 265.701 479.405ZM265.701 479.405C265.583 478.849 265.225 478.351 264.74 478.083C264.253 477.814 263.678 477.781 263.194 477.939C262.197 478.263 261.719 479.312 261.908 480.171C262.066 481.035 262.912 481.822 263.959 481.731C264.465 481.688 264.983 481.435 265.328 480.998C265.672 480.561 265.808 479.962 265.701 479.405Z" fill="black"/>
<path opacity="0.1" d="M266.261 495.678C266.507 496.779 265.854 498.093 264.611 498.458C264.009 498.639 263.304 498.58 262.717 498.244C262.13 497.91 261.696 497.302 261.557 496.627C261.424 495.951 261.586 495.22 261.998 494.685C262.408 494.146 263.037 493.818 263.663 493.753C264.952 493.609 266.06 494.57 266.261 495.678ZM266.261 495.678C266.143 495.122 265.786 494.624 265.3 494.356C264.814 494.088 264.239 494.054 263.755 494.212C262.758 494.536 262.28 495.585 262.468 496.444C262.626 497.308 263.473 498.095 264.519 498.005C265.026 497.961 265.544 497.707 265.888 497.271C266.233 496.834 266.368 496.237 266.261 495.678Z" fill="black"/>
<path d="M271.284 520.562L213.088 538.197L215.148 544.997L273.344 527.362L271.284 520.562Z" fill="#18A532"/>
<path opacity="0.4" d="M271.284 520.562L213.088 538.197L215.148 544.997L273.344 527.362L271.284 520.562Z" fill="white"/>
<path d="M243.441 526.692L236.67 528.846L239.869 538.904L246.64 536.75L243.441 526.692Z" fill="#18A532"/>
<path d="M214.695 554.957L199.677 489.928L154.35 500.674L176.67 564.05L214.695 554.957Z" fill="#18A532"/>
<path d="M224.753 551.651L214.695 554.957L199.678 489.928L214.144 493.372L224.753 551.651Z" fill="#18A532"/>
<path opacity="0.2" d="M224.753 551.651L214.695 554.957L199.678 489.928L214.144 493.372L224.753 551.651Z" fill="black"/>
<path d="M272.34 531.672C276.6 531.672 280.055 528.218 280.055 523.957C280.055 519.696 276.6 516.242 272.34 516.242C268.079 516.242 264.625 519.696 264.625 523.957C264.625 528.218 268.079 531.672 272.34 531.672Z" fill="#18A532"/>
<path d="M351.725 520.376L349.65 527.172L407.81 544.929L409.884 538.133L351.725 520.376Z" fill="#18A532"/>
<path opacity="0.4" d="M351.725 520.376L349.65 527.172L407.81 544.929L409.884 538.133L351.725 520.376Z" fill="white"/>
<path d="M379.612 526.535L376.391 536.586L383.157 538.754L386.378 528.704L379.612 526.535Z" fill="#18A532"/>
<path d="M408.285 554.906L423.442 489.908L468.746 500.752L446.292 564.08L408.285 554.906Z" fill="#18A532"/>
<path d="M398.236 551.578L408.286 554.906L423.443 489.908L408.969 493.322L398.236 551.578Z" fill="#18A532"/>
<path opacity="0.2" d="M398.236 551.578L408.286 554.906L423.443 489.908L408.969 493.322L398.236 551.578Z" fill="black"/>
<path d="M342.988 523.767C342.98 528.028 346.426 531.489 350.687 531.499C354.948 531.508 358.409 528.061 358.419 523.801C358.428 519.54 354.981 516.078 350.72 516.068C346.458 516.058 342.997 519.506 342.988 523.767Z" fill="#18A532"/>
<path d="M401.212 443.559C401.394 443.388 420.086 426.05 442.076 431.981C464.562 438.048 483.128 471.916 483.312 472.259L489.561 468.881C488.749 467.377 469.386 431.978 443.925 425.122C418.03 418.139 397.192 437.58 396.316 438.412L401.212 443.559Z" fill="#18A532"/>
<path opacity="0.4" d="M401.212 443.559C401.394 443.388 420.086 426.05 442.076 431.981C464.562 438.048 483.128 471.916 483.312 472.259L489.561 468.881C488.749 467.377 469.386 431.978 443.925 425.122C418.03 418.139 397.192 437.58 396.316 438.412L401.212 443.559Z" fill="white"/>
<path d="M475.025 506.355L488.49 499.247C487.198 496.799 485.606 492.593 485.375 488.795C485.076 483.874 487.029 482.143 489.183 481.005C493.901 478.513 496.717 479.502 498.64 480.634C501.338 482.227 504.081 485.486 506.364 489.811L519.83 482.702C516.145 475.722 511.62 470.615 506.379 467.521C501.151 464.44 492.692 461.935 482.074 467.54C473.798 471.908 469.573 479.786 470.178 489.719C470.652 497.536 474.008 504.429 475.025 506.355Z" fill="#18A532"/>
<path d="M404.049 419.833C406.968 417.817 409.955 415.917 412.953 414.035C415.944 412.142 418.984 410.332 422.025 408.522C425.08 406.738 428.137 404.956 431.243 403.257L435.904 400.711C437.48 399.902 439.035 399.056 440.631 398.279C439.179 399.299 437.685 400.248 436.213 401.235L431.728 404.078C428.736 405.972 425.697 407.782 422.655 409.589C419.599 411.372 416.542 413.154 413.436 414.852C410.337 416.566 407.227 418.258 404.049 419.833Z" fill="#263238"/>
<path d="M396.316 448.885C400.495 451.266 404.457 453.954 408.365 456.716C412.251 459.51 416.083 462.379 419.693 465.557C415.511 463.178 411.551 460.49 407.644 457.726C403.761 454.931 399.929 452.062 396.316 448.885Z" fill="#263238"/>
<path d="M403.18 445.314C406.405 446.294 409.581 447.401 412.748 448.527C415.921 449.64 419.06 450.844 422.197 452.048C425.325 453.28 428.451 454.514 431.542 455.837L436.178 457.826C437.706 458.532 439.251 459.197 440.765 459.938C439.149 459.46 437.56 458.906 435.957 458.394L431.196 456.728C428.022 455.614 424.884 454.411 421.748 453.205C418.622 451.973 415.494 450.739 412.404 449.414C409.308 448.102 406.22 446.772 403.18 445.314Z" fill="#263238"/>
<path d="M412.344 422.558C415.435 421.755 418.549 421.086 421.668 420.436C424.782 419.773 427.916 419.207 431.048 418.64C434.186 418.102 437.324 417.567 440.479 417.127L445.212 416.47C446.797 416.296 448.375 416.08 449.968 415.943C448.425 416.358 446.868 416.693 445.317 417.069L440.644 418.066C437.528 418.728 434.395 419.295 431.263 419.86C428.125 420.395 424.987 420.932 421.833 421.371C418.68 421.827 415.523 422.26 412.344 422.558Z" fill="#263238"/>
<path d="M337.842 441.886C338.366 439.374 339.209 436.926 340.299 434.592C341.39 432.261 342.726 430.025 344.402 428.037C346.083 426.07 348.151 424.336 350.641 423.376C353.13 422.449 355.979 422.456 358.476 423.453C361.002 424.438 362.995 426.561 364.069 429.002C364.626 430.221 364.975 431.528 365.119 432.865C365.244 434.2 365.191 435.588 364.66 436.921C364.389 437.577 363.966 438.238 363.288 438.679C362.96 438.908 362.559 439.038 362.165 439.099C361.778 439.155 361.381 439.137 360.929 438.981C360.098 438.627 359.682 437.959 359.325 437.357C359.006 436.731 358.76 436.091 358.592 435.444C357.895 432.853 357.824 430.217 357.947 427.611C358.317 422.42 359.68 417.228 362.477 412.761C363.889 410.554 365.659 408.522 367.86 407.037C370.033 405.542 372.577 404.513 375.174 404.215C376.452 403.906 377.771 403.934 379.076 403.871C379.73 403.801 380.38 403.96 381.031 403.994C381.678 404.079 382.341 404.068 382.971 404.256C385.551 404.719 387.975 405.754 390.24 407.007C392.491 408.304 394.496 409.97 396.326 411.778C398.14 413.604 399.79 415.602 401.115 417.802C398.179 413.612 394.399 409.974 389.942 407.538C387.698 406.373 385.328 405.415 382.832 405.028C382.222 404.858 381.583 404.888 380.959 404.818C380.333 404.8 379.708 404.657 379.08 404.741C377.827 404.833 376.566 404.827 375.343 405.156C372.84 405.508 370.518 406.515 368.475 407.918C366.421 409.324 364.765 411.252 363.434 413.362C360.799 417.632 359.507 422.675 359.186 427.686C359.046 430.19 359.109 432.75 359.735 435.128C360.034 436.266 360.571 437.547 361.355 437.906C361.455 437.916 361.522 437.969 361.644 437.973C361.766 437.963 361.896 437.99 362.012 437.96C362.247 437.922 362.477 437.859 362.674 437.717C363.082 437.461 363.405 437.007 363.622 436.485C364.058 435.43 364.137 434.179 364.028 432.973C363.906 431.76 363.596 430.556 363.094 429.439C362.112 427.205 360.37 425.276 358.113 424.33C355.869 423.376 353.24 423.299 350.91 424.11C348.568 424.951 346.546 426.565 344.86 428.435C341.477 432.222 339.196 436.958 337.842 441.886Z" fill="#263238"/>
<path d="M223.121 474.064C224.319 471.805 226.081 469.851 228.138 468.307C230.193 466.762 232.552 465.564 235.091 464.977C237.616 464.372 240.328 464.362 242.855 465.13C245.383 465.886 247.66 467.368 249.482 469.257C251.317 471.144 252.689 473.435 253.631 475.873C254.556 478.315 255.111 480.93 254.915 483.606C254.782 484.922 254.515 486.343 253.474 487.482C252.957 488.042 252.16 488.412 251.382 488.424C250.634 488.417 249.928 488.306 249.243 487.94C248.561 487.589 248.015 486.978 247.703 486.302C247.386 485.626 247.269 484.91 247.236 484.217C247.187 482.826 247.487 481.505 247.895 480.249C248.729 477.732 250.097 475.465 251.696 473.411C253.303 471.358 255.196 469.531 257.316 468.009C261.522 464.955 266.881 463.258 272.107 463.942C274.687 464.29 277.247 465.035 279.506 466.351C281.784 467.624 283.759 469.391 285.369 471.409C286.978 473.437 288.232 475.715 289.198 478.089C290.164 480.464 290.877 482.943 291.227 485.473C290.184 480.498 288.138 475.666 284.879 471.81C283.265 469.883 281.319 468.23 279.112 467.064C276.923 465.856 274.468 465.208 271.996 464.931C267.03 464.391 261.992 465.974 257.985 468.939C253.984 471.882 250.71 475.99 249.055 480.637C248.665 481.796 248.393 483.007 248.429 484.175C248.457 485.333 248.864 486.445 249.794 486.915C250.232 487.167 250.827 487.265 251.346 487.273C251.848 487.26 252.295 487.06 252.654 486.689C253.379 485.933 253.69 484.696 253.8 483.509C253.995 481.083 253.493 478.574 252.626 476.256C251.747 473.932 250.441 471.764 248.752 469.951C247.067 468.139 244.944 466.726 242.595 465.958C240.25 465.177 237.679 465.112 235.236 465.63C230.348 466.669 225.819 469.726 223.121 474.064Z" fill="#263238"/>
<path d="M165.682 174.243C165.542 169.134 164.458 163.99 162.081 159.508C160.89 157.288 159.311 155.238 157.238 153.863C155.168 152.52 152.598 151.967 150.191 152.357C147.774 152.737 145.622 154.196 144.135 156.129C143.381 157.095 142.791 158.189 142.384 159.338C141.989 160.483 141.768 161.717 141.94 162.846C142.025 163.403 142.23 163.921 142.566 164.267C142.724 164.452 142.932 164.567 143.152 164.662C143.257 164.718 143.39 164.723 143.505 164.761C143.625 164.786 143.702 164.75 143.802 164.765C144.648 164.603 145.477 163.487 146.038 162.454C147.214 160.294 147.887 157.822 148.347 155.358C149.23 150.415 149.18 145.21 147.64 140.435C146.852 138.067 145.703 135.799 144.044 133.946C142.394 132.096 140.38 130.564 138.034 129.624C136.925 129.013 135.699 128.719 134.504 128.329C133.915 128.098 133.274 128.088 132.661 127.955C132.039 127.875 131.425 127.693 130.792 127.712C128.276 127.492 125.746 127.856 123.289 128.453C118.378 129.755 113.839 132.385 109.988 135.753C111.801 133.934 113.879 132.387 116.077 131.047C118.285 129.728 120.629 128.59 123.125 127.866C125.621 127.189 128.225 126.762 130.839 126.929C131.496 126.896 132.136 127.066 132.785 127.137C133.426 127.259 134.095 127.26 134.713 127.484C135.964 127.857 137.254 128.144 138.42 128.749C140.871 129.657 143.096 131.264 144.849 133.234C146.631 135.201 147.866 137.597 148.71 140.077C150.36 145.082 150.444 150.45 149.564 155.579C149.062 158.139 148.363 160.682 147.069 163.032C146.751 163.62 146.358 164.184 145.9 164.715C145.41 165.214 144.846 165.764 143.956 165.91C143.479 165.953 143.091 165.875 142.727 165.728C142.359 165.574 142.001 165.353 141.737 165.053C141.185 164.463 140.93 163.72 140.825 163.019C140.626 161.599 140.906 160.238 141.346 158.971C141.804 157.706 142.456 156.52 143.288 155.47C144.913 153.357 147.355 151.77 150.043 151.417C152.706 151.045 155.475 151.718 157.671 153.214C159.859 154.74 161.454 156.919 162.617 159.229C163.771 161.559 164.533 164.05 165.037 166.574C165.538 169.099 165.773 171.678 165.682 174.243Z" fill="#263238"/>
<path d="M439.829 239.003C434.828 237.948 429.573 237.802 424.66 239.068C422.224 239.709 419.862 240.765 418.04 242.46C416.251 244.158 415.114 246.529 414.932 248.962C414.737 251.4 415.653 253.833 417.186 255.73C417.949 256.689 418.876 257.517 419.898 258.181C420.918 258.832 422.068 259.336 423.205 259.432C423.768 259.478 424.319 259.4 424.733 259.156C424.949 259.045 425.111 258.87 425.254 258.679C425.333 258.589 425.369 258.462 425.434 258.359C425.486 258.249 425.468 258.165 425.507 258.072C425.548 257.211 424.655 256.145 423.782 255.359C421.956 253.713 419.709 252.481 417.421 251.458C412.821 249.447 407.747 248.28 402.744 248.664C400.258 248.877 397.784 249.466 395.594 250.645C393.41 251.817 391.451 253.419 389.99 255.481C389.137 256.417 388.564 257.54 387.908 258.611C387.545 259.131 387.386 259.75 387.114 260.316C386.89 260.902 386.571 261.456 386.443 262.076C385.642 264.472 385.405 267.017 385.412 269.545C385.533 274.622 387.031 279.65 389.407 284.182C388.062 281.996 387.042 279.613 386.252 277.164C385.486 274.708 384.924 272.163 384.804 269.567C384.729 266.981 384.921 264.35 385.693 261.846C385.815 261.2 386.129 260.617 386.35 260.002C386.618 259.408 386.775 258.757 387.137 258.208C387.792 257.079 388.372 255.892 389.232 254.898C390.689 252.727 392.769 250.939 395.094 249.694C397.423 248.419 400.04 247.778 402.649 247.536C407.901 247.101 413.141 248.27 417.923 250.322C420.295 251.407 422.604 252.68 424.587 254.489C425.085 254.934 425.542 255.447 425.951 256.018C426.323 256.61 426.725 257.287 426.659 258.187C426.591 258.66 426.423 259.022 426.196 259.341C425.961 259.662 425.661 259.959 425.308 260.145C424.607 260.545 423.823 260.618 423.117 260.557C421.689 260.418 420.432 259.83 419.302 259.106C418.179 258.365 417.178 257.455 416.35 256.401C414.673 254.327 413.701 251.582 413.984 248.887C414.244 246.212 415.545 243.675 417.51 241.889C419.504 240.117 421.995 239.075 424.514 238.483C427.049 237.906 429.649 237.744 432.221 237.844C434.795 237.943 437.356 238.317 439.829 239.003Z" fill="#263238"/>
<path d="M362.969 158.679C362.12 155.738 362.006 152.592 362.484 149.554C362.959 146.516 363.988 143.528 365.669 140.911C367.326 138.291 369.636 136.025 372.431 134.581C375.218 133.126 378.394 132.494 381.52 132.59C384.655 132.674 387.736 133.486 390.573 134.78C393.397 136.092 396.052 137.865 398.106 140.304C399.086 141.531 400.032 142.963 400.089 144.761C400.114 145.648 399.754 146.597 399.117 147.24C398.486 147.843 397.797 148.334 396.929 148.586C396.075 148.848 395.126 148.783 394.312 148.473C393.494 148.165 392.805 147.659 392.208 147.101C391.017 145.966 390.174 144.593 389.478 143.183C388.095 140.346 387.367 137.269 387.017 134.182C386.676 131.089 386.764 127.949 387.302 124.881C388.339 118.763 391.493 112.855 396.515 109.071C399.004 107.212 401.806 105.708 404.83 104.942C407.835 104.121 410.996 103.976 414.06 104.349C417.13 104.729 420.11 105.619 422.927 106.835C425.744 108.052 428.433 109.569 430.86 111.431C425.817 108.019 420.02 105.576 413.99 104.98C410.99 104.675 407.928 104.879 405.048 105.727C402.149 106.522 399.488 108.023 397.127 109.858C394.793 111.726 392.806 114.024 391.355 116.638C389.891 119.245 388.935 122.127 388.43 125.079C387.463 130.974 388.087 137.252 390.577 142.649C391.218 143.976 392.004 145.251 393.03 146.235C394.035 147.216 395.363 147.859 396.605 147.466C397.216 147.307 397.817 146.886 398.286 146.442C398.726 145.991 398.954 145.407 398.947 144.766C398.931 143.462 398.145 142.132 397.239 141.014C395.358 138.754 392.816 137.022 390.12 135.758C387.408 134.501 384.461 133.732 381.483 133.597C378.508 133.46 375.491 134.033 372.823 135.355C370.149 136.663 367.887 138.775 366.228 141.276C362.916 146.284 361.617 152.711 362.969 158.679Z" fill="#263238"/>
<path d="M218.973 474.332C216.191 473.455 213.228 475 212.351 477.779C211.473 480.564 213.019 483.525 215.801 484.403C218.581 485.279 221.542 483.736 222.419 480.954C223.295 478.174 221.753 475.207 218.973 474.332ZM221.806 480.759C221.037 483.203 218.435 484.559 215.994 483.789C213.552 483.02 212.196 480.419 212.967 477.974C213.737 475.532 216.338 474.176 218.782 474.947C221.22 475.716 222.576 478.317 221.806 480.759ZM218.973 474.332C216.191 473.455 213.228 475 212.351 477.779C211.473 480.564 213.019 483.525 215.801 484.403C218.581 485.279 221.542 483.736 222.419 480.954C223.295 478.174 221.753 475.207 218.973 474.332ZM221.806 480.759C221.037 483.203 218.435 484.559 215.994 483.789C213.552 483.02 212.196 480.419 212.967 477.974C213.737 475.532 216.338 474.176 218.782 474.947C221.22 475.716 222.576 478.317 221.806 480.759ZM218.973 474.332C216.191 473.455 213.228 475 212.351 477.779C211.473 480.564 213.019 483.525 215.801 484.403C218.581 485.279 221.542 483.736 222.419 480.954C223.295 478.174 221.753 475.207 218.973 474.332ZM221.806 480.759C221.037 483.203 218.435 484.559 215.994 483.789C213.552 483.02 212.196 480.419 212.967 477.974C213.737 475.532 216.338 474.176 218.782 474.947C221.22 475.716 222.576 478.317 221.806 480.759ZM220.733 468.754C214.866 466.906 208.62 470.165 206.773 476.023C204.927 481.883 208.18 488.134 214.042 489.98C219.9 491.825 226.151 488.571 227.997 482.709C229.845 476.853 226.591 470.598 220.733 468.754ZM223.203 481.198C222.191 484.409 218.761 486.197 215.554 485.186C212.347 484.176 210.558 480.744 211.57 477.535C212.582 474.325 216.015 472.54 219.222 473.551C222.426 474.56 224.214 477.992 223.203 481.198ZM222.419 480.953C223.295 478.173 221.753 475.207 218.973 474.33C216.191 473.454 213.228 474.998 212.351 477.778C211.473 480.563 213.019 483.524 215.801 484.402C218.581 485.278 221.542 483.735 222.419 480.953ZM221.806 480.759C221.037 483.203 218.435 484.559 215.994 483.789C213.552 483.02 212.196 480.419 212.967 477.974C213.737 475.532 216.338 474.176 218.782 474.947C221.22 475.716 222.576 478.317 221.806 480.759ZM218.973 474.332C216.191 473.455 213.228 475 212.351 477.779C211.473 480.564 213.019 483.525 215.801 484.403C218.581 485.279 221.542 483.736 222.419 480.954C223.295 478.174 221.753 475.207 218.973 474.332ZM221.806 480.759C221.037 483.203 218.435 484.559 215.994 483.789C213.552 483.02 212.196 480.419 212.967 477.974C213.737 475.532 216.338 474.176 218.782 474.947C221.22 475.716 222.576 478.317 221.806 480.759ZM218.973 474.332C216.191 473.455 213.228 475 212.351 477.779C211.473 480.564 213.019 483.525 215.801 484.403C218.581 485.279 221.542 483.736 222.419 480.954C223.295 478.174 221.753 475.207 218.973 474.332ZM221.806 480.759C221.037 483.203 218.435 484.559 215.994 483.789C213.552 483.02 212.196 480.419 212.967 477.974C213.737 475.532 216.338 474.176 218.782 474.947C221.22 475.716 222.576 478.317 221.806 480.759Z" fill="#455A64"/>
<path d="M216.22 490.178L212.139 488.893L211.455 491.852L215.084 492.996L216.22 490.178Z" fill="#455A64"/>
<path d="M208.885 486.358L206.908 482.562L204.332 484.171L206.089 487.547L208.885 486.358Z" fill="#455A64"/>
<path d="M206.403 478.47L207.689 474.389L204.729 473.705L203.586 477.334L206.403 478.47Z" fill="#455A64"/>
<path d="M210.226 471.136L214.021 469.159L212.412 466.582L209.037 468.34L210.226 471.136Z" fill="#455A64"/>
<path d="M218.113 468.653L222.194 469.938L222.879 466.979L219.249 465.836L218.113 468.653Z" fill="#455A64"/>
<path d="M225.447 472.475L227.424 476.271L230.001 474.662L228.243 471.287L225.447 472.475Z" fill="#455A64"/>
<path d="M227.929 480.363L226.643 484.444L229.602 485.129L230.746 481.499L227.929 480.363Z" fill="#455A64"/>
<path d="M224.108 487.697L220.312 489.674L221.922 492.251L225.297 490.493L224.108 487.697Z" fill="#455A64"/>
<path d="M424.809 438.86C430.406 431.319 428.829 420.666 421.288 415.07C413.745 409.472 403.091 411.049 397.496 418.589C391.898 426.132 393.475 436.786 401.018 442.384C408.558 447.98 419.211 446.405 424.809 438.86ZM417.53 433.458C414.914 436.983 409.942 437.719 406.42 435.106C402.895 432.49 402.159 427.518 404.775 423.992C407.388 420.47 412.362 419.733 415.886 422.349C419.407 424.964 420.144 429.936 417.53 433.458Z" fill="#263238"/>
<path d="M404.063 443.762L398.812 439.865L396.344 443.798L401.014 447.265L404.063 443.762Z" fill="#263238"/>
<path d="M395.381 434.579L394.423 428.109L389.896 429.145L390.748 434.899L395.381 434.579Z" fill="#263238"/>
<path d="M395.737 421.94L399.636 416.689L395.703 414.221L392.236 418.891L395.737 421.94Z" fill="#263238"/>
<path d="M404.926 413.258L411.395 412.3L410.36 407.773L404.605 408.625L404.926 413.258Z" fill="#263238"/>
<path d="M417.561 413.614L422.812 417.513L425.28 413.58L420.61 410.113L417.561 413.614Z" fill="#263238"/>
<path d="M426.244 422.803L427.201 429.272L431.728 428.237L430.876 422.482L426.244 422.803Z" fill="#263238"/>
<path d="M425.887 435.438L421.988 440.689L425.921 443.157L429.388 438.487L425.887 435.438Z" fill="#263238"/>
<path d="M416.702 444.121L410.232 445.078L411.268 449.605L417.022 448.754L416.702 444.121Z" fill="#263238"/>
<path d="M405.062 429.541L408.675 434.098L414.428 433.243L416.564 427.839L412.955 423.285L407.202 424.134L405.062 429.541ZM411.911 427.21C412.73 427.818 412.9 428.969 412.292 429.788C411.686 430.604 410.533 430.778 409.713 430.169C408.898 429.563 408.726 428.406 409.332 427.591C409.94 426.773 411.095 426.605 411.911 427.21Z" fill="#263238"/>
<path d="M437.559 107.69C435.124 106.923 432.531 108.275 431.763 110.707C430.996 113.144 432.348 115.735 434.783 116.503C437.215 117.27 439.806 115.919 440.573 113.484C441.34 111.052 439.991 108.456 437.559 107.69ZM440.038 113.314C439.364 115.454 437.088 116.639 434.95 115.966C432.814 115.293 431.628 113.016 432.301 110.877C432.974 108.741 435.251 107.555 437.39 108.228C439.525 108.901 440.712 111.178 440.038 113.314ZM437.559 107.69C435.124 106.923 432.531 108.275 431.763 110.707C430.996 113.144 432.348 115.735 434.783 116.503C437.215 117.27 439.806 115.919 440.573 113.484C441.34 111.052 439.991 108.456 437.559 107.69ZM440.038 113.314C439.364 115.454 437.088 116.639 434.95 115.966C432.814 115.293 431.628 113.016 432.301 110.877C432.974 108.741 435.251 107.555 437.39 108.228C439.525 108.901 440.712 111.178 440.038 113.314ZM437.559 107.69C435.124 106.923 432.531 108.275 431.763 110.707C430.996 113.144 432.348 115.735 434.783 116.503C437.215 117.27 439.806 115.919 440.573 113.484C441.34 111.052 439.991 108.456 437.559 107.69ZM440.038 113.314C439.364 115.454 437.088 116.639 434.95 115.966C432.814 115.293 431.628 113.016 432.301 110.877C432.974 108.741 435.251 107.555 437.39 108.228C439.525 108.901 440.712 111.178 440.038 113.314ZM439.099 102.81C433.967 101.193 428.501 104.045 426.884 109.17C425.269 114.298 428.114 119.768 433.246 121.383C438.372 122.998 443.841 120.15 445.456 115.021C447.072 109.896 444.224 104.424 439.099 102.81ZM441.261 113.699C440.376 116.508 437.374 118.073 434.567 117.188C431.76 116.303 430.195 113.301 431.08 110.492C431.966 107.684 434.97 106.121 437.776 107.006C440.58 107.89 442.145 110.892 441.261 113.699ZM440.574 113.484C441.342 111.052 439.992 108.456 437.56 107.69C435.125 106.923 432.532 108.275 431.765 110.707C430.997 113.144 432.349 115.735 434.784 116.503C437.216 117.269 439.807 115.919 440.574 113.484ZM440.038 113.314C439.364 115.454 437.088 116.639 434.95 115.966C432.814 115.293 431.628 113.016 432.301 110.877C432.974 108.741 435.251 107.555 437.39 108.228C439.525 108.901 440.712 111.178 440.038 113.314ZM437.559 107.69C435.124 106.923 432.531 108.275 431.763 110.707C430.996 113.144 432.348 115.735 434.783 116.503C437.215 117.27 439.806 115.919 440.573 113.484C441.34 111.052 439.991 108.456 437.559 107.69ZM440.038 113.314C439.364 115.454 437.088 116.639 434.95 115.966C432.814 115.293 431.628 113.016 432.301 110.877C432.974 108.741 435.251 107.555 437.39 108.228C439.525 108.901 440.712 111.178 440.038 113.314ZM437.559 107.69C435.124 106.923 432.531 108.275 431.763 110.707C430.996 113.144 432.348 115.735 434.783 116.503C437.215 117.27 439.806 115.919 440.573 113.484C441.34 111.052 439.991 108.456 437.559 107.69ZM440.038 113.314C439.364 115.454 437.088 116.639 434.95 115.966C432.814 115.293 431.628 113.016 432.301 110.877C432.974 108.741 435.251 107.555 437.39 108.228C439.525 108.901 440.712 111.178 440.038 113.314Z" fill="#263238"/>
<path d="M435.151 121.558L431.581 120.434L430.982 123.023L434.158 124.024L435.151 121.558Z" fill="#263238"/>
<path d="M428.732 118.212L427.003 114.893L424.748 116.299L426.286 119.253L428.732 118.212Z" fill="#263238"/>
<path d="M426.56 111.31L427.686 107.739L425.096 107.141L424.096 110.316L426.56 111.31Z" fill="#263238"/>
<path d="M429.906 104.892L433.227 103.163L431.819 100.908L428.865 102.446L429.906 104.892Z" fill="#263238"/>
<path d="M436.807 102.72L440.377 103.844L440.977 101.255L437.801 100.254L436.807 102.72Z" fill="#263238"/>
<path d="M443.225 106.064L444.954 109.385L447.209 107.977L445.67 105.023L443.225 106.064Z" fill="#263238"/>
<path d="M445.398 112.967L444.273 116.537L446.863 117.137L447.864 113.961L445.398 112.967Z" fill="#263238"/>
<path d="M442.052 119.383L438.732 121.112L440.139 123.367L443.093 121.829L442.052 119.383Z" fill="#263238"/>
<path d="M390.113 285.059C387.678 284.292 385.084 285.644 384.317 288.076C383.55 290.513 384.902 293.104 387.337 293.872C389.769 294.639 392.36 293.288 393.127 290.854C393.893 288.421 392.545 285.825 390.113 285.059ZM392.591 290.684C391.917 292.823 389.641 294.008 387.504 293.335C385.368 292.662 384.182 290.386 384.855 288.246C385.528 286.11 387.805 284.924 389.944 285.597C392.078 286.27 393.265 288.547 392.591 290.684ZM390.113 285.059C387.678 284.292 385.084 285.644 384.317 288.076C383.55 290.513 384.902 293.104 387.337 293.872C389.769 294.639 392.36 293.288 393.127 290.854C393.893 288.421 392.545 285.825 390.113 285.059ZM392.591 290.684C391.917 292.823 389.641 294.008 387.504 293.335C385.368 292.662 384.182 290.386 384.855 288.246C385.528 286.11 387.805 284.924 389.944 285.597C392.078 286.27 393.265 288.547 392.591 290.684ZM390.113 285.059C387.678 284.292 385.084 285.644 384.317 288.076C383.55 290.513 384.902 293.104 387.337 293.872C389.769 294.639 392.36 293.288 393.127 290.854C393.893 288.421 392.545 285.825 390.113 285.059ZM392.591 290.684C391.917 292.823 389.641 294.008 387.504 293.335C385.368 292.662 384.182 290.386 384.855 288.246C385.528 286.11 387.805 284.924 389.944 285.597C392.078 286.27 393.265 288.547 392.591 290.684ZM391.652 280.179C386.52 278.563 381.053 281.414 379.437 286.539C377.822 291.668 380.667 297.137 385.798 298.752C390.925 300.367 396.393 297.519 398.009 292.391C399.625 287.266 396.777 281.793 391.652 280.179ZM393.814 291.068C392.928 293.877 389.926 295.442 387.119 294.557C384.314 293.673 382.748 290.67 383.633 287.862C384.518 285.053 387.523 283.49 390.329 284.375C393.133 285.259 394.698 288.261 393.814 291.068ZM393.127 290.854C393.893 288.421 392.545 285.825 390.113 285.059C387.678 284.292 385.084 285.644 384.317 288.076C383.55 290.513 384.902 293.104 387.337 293.872C389.769 294.639 392.36 293.288 393.127 290.854ZM392.591 290.684C391.917 292.823 389.641 294.008 387.504 293.335C385.368 292.662 384.182 290.386 384.855 288.246C385.528 286.11 387.805 284.924 389.944 285.597C392.078 286.27 393.265 288.547 392.591 290.684ZM390.113 285.059C387.678 284.292 385.084 285.644 384.317 288.076C383.55 290.513 384.902 293.104 387.337 293.872C389.769 294.639 392.36 293.288 393.127 290.854C393.893 288.421 392.545 285.825 390.113 285.059ZM392.591 290.684C391.917 292.823 389.641 294.008 387.504 293.335C385.368 292.662 384.182 290.386 384.855 288.246C385.528 286.11 387.805 284.924 389.944 285.597C392.078 286.27 393.265 288.547 392.591 290.684ZM390.113 285.059C387.678 284.292 385.084 285.644 384.317 288.076C383.55 290.513 384.902 293.104 387.337 293.872C389.769 294.639 392.36 293.288 393.127 290.854C393.893 288.421 392.545 285.825 390.113 285.059ZM392.591 290.684C391.917 292.823 389.641 294.008 387.504 293.335C385.368 292.662 384.182 290.386 384.855 288.246C385.528 286.11 387.805 284.924 389.944 285.597C392.078 286.27 393.265 288.547 392.591 290.684Z" fill="#263238"/>
<path d="M387.704 298.929L384.134 297.805L383.535 300.394L386.711 301.395L387.704 298.929Z" fill="#263238"/>
<path d="M381.285 295.583L379.557 292.264L377.301 293.67L378.839 296.624L381.285 295.583Z" fill="#263238"/>
<path d="M379.113 288.683L380.239 285.112L377.649 284.514L376.648 287.689L379.113 288.683Z" fill="#263238"/>
<path d="M382.458 282.263L385.779 280.535L384.372 278.279L381.418 279.818L382.458 282.263Z" fill="#263238"/>
<path d="M389.359 280.091L392.93 281.217L393.53 278.628L390.354 277.627L389.359 280.091Z" fill="#263238"/>
<path d="M395.777 283.437L397.507 286.758L399.761 285.35L398.223 282.396L395.777 283.437Z" fill="#263238"/>
<path d="M397.951 290.338L396.826 293.908L399.416 294.508L400.417 291.332L397.951 290.338Z" fill="#263238"/>
<path d="M394.605 296.756L391.285 298.485L392.692 300.74L395.645 299.202L394.605 296.756Z" fill="#263238"/>
<path d="M118.589 145.425C120.504 137.569 115.685 129.646 107.829 127.732C99.9702 125.818 92.0469 130.636 90.1324 138.492C88.218 146.351 93.0363 154.274 100.895 156.189C108.753 158.102 116.675 153.284 118.589 145.425ZM111.006 143.577C110.111 147.25 106.414 149.499 102.744 148.604C99.0713 147.709 96.8217 144.012 97.7168 140.34C98.6107 136.67 102.309 134.421 105.982 135.316C109.65 136.21 111.9 139.908 111.006 143.577Z" fill="#263238"/>
<path d="M103.774 156.259L98.3027 154.926L97.6621 158.873L102.528 160.058L103.774 156.259Z" fill="#263238"/>
<path d="M93.8109 151.88L90.8847 147.068L87.6406 149.406L90.2428 153.686L93.8109 151.88Z" fill="#263238"/>
<path d="M89.8615 141.737L91.1949 136.267L87.2481 135.625L86.0625 140.492L89.8615 141.737Z" fill="#263238"/>
<path d="M94.2427 131.772L99.0535 128.846L96.717 125.602L92.4375 128.205L94.2427 131.772Z" fill="#263238"/>
<path d="M104.387 127.824L109.858 129.158L110.5 125.211L105.633 124.025L104.387 127.824Z" fill="#263238"/>
<path d="M114.35 132.206L117.276 137.018L120.52 134.68L117.918 130.4L114.35 132.206Z" fill="#263238"/>
<path d="M118.3 142.35L116.967 147.821L120.914 148.462L122.099 143.595L118.3 142.35Z" fill="#263238"/>
<path d="M113.918 152.312L109.107 155.239L111.445 158.483L115.725 155.879L113.918 152.312Z" fill="#263238"/>
<path d="M99.803 144.645L104.194 147.049L108.471 144.445L108.356 139.443L103.967 137.039L99.6875 139.639L99.803 144.645ZM104.455 140.502C105.309 140.709 105.829 141.566 105.621 142.42C105.413 143.27 104.557 143.794 103.703 143.586C102.852 143.378 102.329 142.518 102.537 141.667C102.745 140.815 103.604 140.294 104.455 140.502Z" fill="#263238"/>
<path d="M449.538 296.82C446.199 291.735 444.321 286.015 444.321 279.969C444.321 258.62 467.765 241.311 496.666 241.311C525.567 241.311 548.99 258.621 548.99 279.969C548.99 301.317 525.567 318.627 496.666 318.627C482.652 318.627 469.948 314.567 460.562 307.931L442.531 312.516L449.538 296.82Z" fill="white"/>
<path d="M449.54 296.82C446.389 292.125 444.414 286.582 444.207 280.887C444.05 275.205 445.451 269.455 448.37 264.538C451.223 259.584 455.289 255.408 459.882 252.048C464.481 248.67 469.659 246.119 475.063 244.325C480.469 242.518 486.102 241.436 491.783 240.981C497.473 240.565 503.201 240.918 508.824 241.848C510.221 242.135 511.638 242.326 513.018 242.692L517.152 243.805L521.191 245.231C522.534 245.715 523.81 246.37 525.124 246.931C530.278 249.383 535.112 252.596 539.176 256.652C543.231 260.692 546.501 265.628 548.226 271.151C549.946 276.655 550.072 282.696 548.397 288.231C546.768 293.784 543.574 298.771 539.574 302.865C535.565 306.974 530.77 310.244 525.641 312.752C520.514 315.29 514.989 316.942 509.386 317.96C503.773 318.924 498.046 319.336 492.363 318.935C486.68 318.576 481.035 317.538 475.627 315.753C470.225 313.974 465.027 311.489 460.401 308.163L460.635 308.207L442.568 312.649L442.295 312.716L442.41 312.461L449.54 296.82ZM449.54 296.82L442.657 312.569L442.5 312.382L460.494 307.656L460.618 307.623L460.728 307.699C470.012 314.108 481.209 317.444 492.416 318.043C498.033 318.39 503.681 317.93 509.199 316.933C514.711 315.909 520.141 314.272 525.162 311.766C530.185 309.292 534.865 306.076 538.752 302.066C542.631 298.071 545.698 293.238 547.249 287.898C548.846 282.575 548.694 276.794 547.044 271.515C545.404 266.21 542.268 261.429 538.336 257.489C534.396 253.534 529.684 250.376 524.637 247.957C523.351 247.404 522.102 246.757 520.785 246.279L516.823 244.866L512.762 243.761C511.407 243.396 510.012 243.206 508.639 242.919C503.108 241.981 497.465 241.641 491.855 242.001C486.252 242.399 480.687 243.417 475.341 245.152C469.996 246.874 464.868 249.344 460.308 252.633C455.748 255.902 451.73 259.986 448.833 264.807C445.883 269.603 444.412 275.245 444.476 280.879C444.589 286.524 446.463 292.077 449.54 296.82Z" fill="#263238"/>
<path d="M469.741 286.298V289.172H458.027V272.303H469.527V275.178H461.307V279.24H468.411V281.902H461.307V286.297L469.741 286.298Z" fill="#263238"/>
<path d="M472.309 289.174V272.305H479.77C480.546 272.305 481.262 272.467 481.919 272.793C482.576 273.118 483.142 273.545 483.618 274.075C484.093 274.606 484.466 275.209 484.734 275.881C485.003 276.554 485.137 277.232 485.137 277.913C485.137 279.005 484.864 280 484.318 280.895C483.773 281.79 483.032 282.435 482.097 282.83L485.947 289.174H482.263L478.819 283.519H475.587V289.174H472.309ZM475.587 280.644H479.698C479.999 280.644 480.28 280.573 480.541 280.43C480.803 280.288 481.028 280.094 481.219 279.848C481.409 279.604 481.559 279.314 481.67 278.982C481.781 278.649 481.837 278.292 481.837 277.913C481.837 277.517 481.773 277.153 481.647 276.82C481.519 276.487 481.351 276.199 481.136 275.954C480.922 275.708 480.676 275.518 480.4 275.382C480.121 275.248 479.841 275.18 479.555 275.18H475.589V280.644H475.587Z" fill="#263238"/>
<path d="M488.107 289.174V272.305H495.569C496.345 272.305 497.061 272.467 497.718 272.793C498.375 273.118 498.941 273.545 499.416 274.075C499.892 274.606 500.264 275.209 500.532 275.881C500.802 276.554 500.936 277.232 500.936 277.913C500.936 279.005 500.663 280 500.117 280.895C499.572 281.79 498.83 282.435 497.896 282.83L501.744 289.174H498.061L494.615 283.519H491.385V289.174H488.107ZM491.387 280.644H495.497C495.797 280.644 496.079 280.573 496.34 280.43C496.602 280.288 496.827 280.094 497.018 279.848C497.208 279.604 497.358 279.314 497.468 278.982C497.58 278.649 497.636 278.292 497.636 277.913C497.636 277.517 497.571 277.153 497.446 276.82C497.318 276.487 497.149 276.199 496.935 275.954C496.721 275.708 496.475 275.518 496.198 275.382C495.92 275.248 495.64 275.18 495.354 275.18H491.387V280.644Z" fill="#263238"/>
<path d="M511.107 289.291C509.871 289.291 508.752 289.05 507.745 288.567C506.738 288.084 505.875 287.442 505.155 286.643C504.434 285.843 503.876 284.928 503.479 283.899C503.084 282.87 502.887 281.816 502.887 280.74C502.887 279.615 503.097 278.538 503.516 277.508C503.936 276.479 504.514 275.567 505.249 274.775C505.987 273.983 506.862 273.354 507.875 272.887C508.888 272.42 509.989 272.186 511.178 272.186C512.397 272.186 513.509 272.435 514.516 272.934C515.523 273.433 516.382 274.086 517.093 274.895C517.806 275.702 518.361 276.621 518.757 277.651C519.153 278.681 519.35 279.725 519.35 280.787C519.35 281.912 519.144 282.984 518.733 284.006C518.321 285.028 517.75 285.93 517.023 286.715C516.294 287.5 515.422 288.125 514.409 288.592C513.395 289.058 512.295 289.291 511.107 289.291ZM506.211 280.738C506.211 281.467 506.322 282.172 506.544 282.853C506.766 283.534 507.088 284.136 507.506 284.659C507.926 285.182 508.441 285.601 509.051 285.918C509.66 286.234 510.353 286.393 511.13 286.393C511.922 286.393 512.623 286.232 513.232 285.907C513.842 285.583 514.356 285.151 514.777 284.612C515.196 284.073 515.513 283.467 515.728 282.794C515.941 282.121 516.048 281.436 516.048 280.74C516.048 280.012 515.933 279.307 515.704 278.625C515.474 277.945 515.15 277.342 514.731 276.819C514.31 276.296 513.796 275.88 513.186 275.572C512.577 275.263 511.891 275.108 511.132 275.108C510.338 275.108 509.634 275.271 509.017 275.596C508.399 275.921 507.884 276.348 507.473 276.878C507.061 277.41 506.748 278.012 506.534 278.685C506.318 279.357 506.211 280.042 506.211 280.738Z" fill="#263238"/>
<path d="M521.871 289.174V272.305H529.333C530.109 272.305 530.825 272.467 531.482 272.793C532.138 273.118 532.705 273.545 533.18 274.075C533.656 274.606 534.028 275.209 534.296 275.881C534.566 276.554 534.7 277.232 534.7 277.913C534.7 279.005 534.427 280 533.88 280.895C533.335 281.79 532.594 282.435 531.659 282.83L535.509 289.174H531.826L528.382 283.519H525.15V289.174H521.871ZM525.15 280.644H529.261C529.561 280.644 529.843 280.573 530.104 280.43C530.366 280.288 530.591 280.094 530.781 279.848C530.971 279.604 531.122 279.314 531.232 278.982C531.344 278.649 531.4 278.292 531.4 277.913C531.4 277.517 531.335 277.153 531.21 276.82C531.082 276.487 530.913 276.199 530.698 275.954C530.485 275.708 530.239 275.518 529.962 275.382C529.684 275.248 529.403 275.18 529.118 275.18H525.151V280.644H525.15Z" fill="#263238"/>
</svg>
