<svg width="51" height="50" viewBox="0 0 51 50" fill="none" xmlns="http://www.w3.org/2000/svg">
<rect x="0.728516" width="50" height="50" rx="10" fill="#006B14"/>
<path d="M37.3608 32.3847C37.3608 32.8047 37.2675 33.2363 37.0692 33.6563C36.8708 34.0763 36.6142 34.473 36.2758 34.8463C35.7042 35.4763 35.0742 35.9313 34.3625 36.223C33.6625 36.5147 32.9042 36.6663 32.0875 36.6663C30.8975 36.6663 29.6258 36.3863 28.2842 35.8147C26.9425 35.243 25.6008 34.473 24.2708 33.5047C22.9292 32.5247 21.6575 31.4397 20.4442 30.238C19.2425 29.0247 18.1575 27.753 17.1892 26.423C16.2325 25.093 15.4625 23.763 14.9025 22.4447C14.3425 21.1147 14.0625 19.843 14.0625 18.6297C14.0625 17.8363 14.2025 17.078 14.4825 16.378C14.7625 15.6663 15.2058 15.013 15.8242 14.4297C16.5708 13.6947 17.3875 13.333 18.2508 13.333C18.5775 13.333 18.9042 13.403 19.1958 13.543C19.4992 13.683 19.7675 13.893 19.9775 14.1963L22.6842 18.0113C22.8942 18.303 23.0458 18.5713 23.1508 18.828C23.2558 19.073 23.3142 19.318 23.3142 19.5397C23.3142 19.8197 23.2325 20.0997 23.0692 20.368C22.9175 20.6363 22.6958 20.9163 22.4158 21.1963L21.5292 22.118C21.4008 22.2463 21.3425 22.398 21.3425 22.5847C21.3425 22.678 21.3542 22.7597 21.3775 22.853C21.4125 22.9463 21.4475 23.0163 21.4708 23.0863C21.6808 23.4713 22.0425 23.973 22.5558 24.5797C23.0808 25.1863 23.6408 25.8047 24.2475 26.423C24.8775 27.0413 25.4842 27.613 26.1025 28.138C26.7092 28.6513 27.2108 29.0013 27.6075 29.2113C27.6658 29.2347 27.7358 29.2697 27.8175 29.3047C27.9108 29.3397 28.0042 29.3513 28.1092 29.3513C28.3075 29.3513 28.4592 29.2813 28.5875 29.153L29.4742 28.278C29.7658 27.9863 30.0458 27.7647 30.3142 27.6247C30.5825 27.4613 30.8508 27.3797 31.1425 27.3797C31.3642 27.3797 31.5975 27.4263 31.8542 27.5313C32.1108 27.6363 32.3792 27.788 32.6708 27.9863L36.5325 30.728C36.8358 30.938 37.0458 31.183 37.1742 31.4747C37.2908 31.7663 37.3608 32.058 37.3608 32.3847Z" stroke="white" stroke-width="1.5" stroke-miterlimit="10"/>
<path opacity="0.4" d="M30.6289 20.1H36.2289M30.6289 20.1V14.5V20.1Z" stroke="white" stroke-width="1.5" stroke-linecap="round" stroke-linejoin="round"/>
</svg>
