<svg width="599" height="300" viewBox="0 0 599 300" fill="none" xmlns="http://www.w3.org/2000/svg">
<g clip-path="url(#clip0_490_15024)">
<rect x="0.791016" width="597.536" height="299.795" rx="12.3203" fill="#18A532"/>
<path d="M453.713 138.748C485.245 155.471 537.917 185.282 537.917 185.282L504.812 276.23C504.812 276.23 454.658 224.201 428.429 222.435C402.2 220.67 366.864 216.526 366.864 216.526L354.758 151.94C354.758 151.94 416.803 138.534 433.482 139.723C450.16 140.912 453.713 138.748 453.713 138.748Z" fill="#F2A894"/>
<path d="M532.459 184.994L540.849 191.346C571.719 214.707 603.658 236.541 636.665 256.849L727.576 308.317L571.82 367.009C564.552 332.049 494.84 263.4 494.84 263.4L532.459 184.994Z" fill="#FF79B1"/>
<path d="M509.199 278.927C514.99 294.985 516.142 302.275 541.005 319.478C556.287 330.048 542.482 355.102 551.346 363.707C573.822 376.855 601.898 369.358 626.214 365.406C666.1 356.24 708.069 353.027 746.789 340.329C757.868 334.073 756.265 320.866 747.173 313.532C734.387 301.411 723.92 284.186 706.851 278.077C696.347 274.894 684.174 277.774 674.713 272.213C664.438 266.163 661.085 252.269 651.076 245.799C639.797 238.568 623.496 242.955 612.889 234.756C603.124 227.185 595.501 210.618 577.966 207.53C565.757 205.373 545.296 209.362 534.83 213.196C512.257 225.76 519.57 256.723 509.199 278.927Z" fill="#FFDD8B"/>
<path d="M474.734 249.292L523.388 174.218C523.605 173.883 523.889 173.596 524.221 173.375C524.554 173.155 524.928 173.005 525.321 172.936C525.714 172.866 526.117 172.879 526.505 172.972C526.893 173.066 527.258 173.238 527.576 173.479C534.298 178.531 553.022 192.543 563.769 199.989C564.093 200.212 564.368 200.5 564.578 200.833C564.787 201.167 564.926 201.539 564.987 201.928C565.048 202.317 565.029 202.715 564.931 203.096C564.834 203.478 564.66 203.835 564.419 204.147L506.725 279.724C506.469 280.06 506.143 280.337 505.77 280.534C505.397 280.732 504.985 280.846 504.563 280.868C504.142 280.891 503.72 280.821 503.328 280.665C502.936 280.508 502.583 280.268 502.293 279.961C496.938 274.281 483.65 260.342 475.31 253.089C474.778 252.629 474.427 251.993 474.322 251.297C474.216 250.601 474.362 249.89 474.734 249.292Z" fill="#FFBF23"/>
<path d="M437.027 247.114L377.198 258.26C376.044 258.475 374.859 258.462 373.71 258.219C372.561 257.976 371.472 257.51 370.504 256.846C369.536 256.181 368.708 255.333 368.069 254.349C367.429 253.365 366.989 252.264 366.775 251.11L342.644 121.679C342.21 119.348 342.72 116.941 344.061 114.987C345.402 113.032 347.464 111.691 349.794 111.257L409.624 100.103C411.954 99.6693 414.361 100.179 416.315 101.52C418.27 102.861 419.612 104.923 420.046 107.253L444.17 236.684C444.604 239.014 444.095 241.421 442.756 243.377C441.417 245.332 439.356 246.676 437.027 247.114Z" fill="black"/>
<path d="M409.265 103.493L351.371 114.286C347.762 114.958 345.381 118.43 346.054 122.039L369.823 249.539C370.496 253.149 373.967 255.529 377.577 254.856L435.471 244.063C439.08 243.391 441.46 239.919 440.787 236.31L417.018 108.81C416.346 105.2 412.874 102.82 409.265 103.493Z" fill="#FEEAB9"/>
<g style="mix-blend-mode:soft-light" opacity="0.45">
<path d="M416.833 107.851L420.888 129.611L363.149 213.816L352.513 156.756L386.061 107.836L410.23 103.338C411.703 103.063 413.226 103.384 414.464 104.23C415.701 105.076 416.553 106.378 416.833 107.851Z" fill="#F3F7FF"/>
<path d="M422.137 136.304L426.022 157.148L368.283 241.345L364.397 220.486L422.137 136.304Z" fill="#F3F7FF"/>
<path d="M431.458 186.302L434.952 205.056L404.195 249.898L385.56 253.37L431.458 186.302Z" fill="#F3F7FF"/>
</g>
<g style="mix-blend-mode:overlay">
<path d="M391.431 114.949L373.77 118.236C373.463 118.294 373.147 118.29 372.841 118.225C372.534 118.161 372.244 118.036 371.986 117.859C371.728 117.682 371.507 117.456 371.337 117.194C371.167 116.931 371.05 116.638 370.993 116.33C370.935 116.023 370.939 115.708 371.004 115.402C371.068 115.096 371.193 114.807 371.37 114.549C371.547 114.292 371.773 114.072 372.035 113.902C372.298 113.733 372.591 113.616 372.898 113.56L390.544 110.266C391.165 110.152 391.806 110.288 392.327 110.645C392.847 111.002 393.205 111.551 393.322 112.172C393.437 112.791 393.302 113.43 392.948 113.95C392.594 114.47 392.049 114.829 391.431 114.949Z" fill="#291930"/>
</g>
<g opacity="0.35">
<g style="mix-blend-mode:overlay">
<path d="M409.989 122.824L357.665 132.578C355.744 132.936 354.477 134.784 354.835 136.705L360.145 165.191C360.503 167.112 362.351 168.378 364.272 168.02L416.596 158.266C418.517 157.908 419.784 156.06 419.426 154.139L414.116 125.653C413.758 123.733 411.91 122.466 409.989 122.824Z" fill="#291930"/>
</g>
<g style="mix-blend-mode:overlay">
<path d="M417.453 162.873L365.129 172.628C363.208 172.986 361.941 174.834 362.299 176.755L364.588 189.033C364.946 190.954 366.793 192.221 368.714 191.863L421.039 182.109C422.96 181.75 424.227 179.903 423.869 177.982L421.58 165.703C421.222 163.782 419.374 162.515 417.453 162.873Z" fill="#291930"/>
</g>
<g style="mix-blend-mode:overlay">
<path d="M421.886 186.662L369.561 196.416C367.64 196.774 366.373 198.622 366.731 200.543L369.02 212.821C369.379 214.742 371.226 216.009 373.147 215.651L425.472 205.897C427.392 205.539 428.659 203.691 428.301 201.77L426.012 189.491C425.654 187.57 423.807 186.303 421.886 186.662Z" fill="#291930"/>
</g>
<g style="mix-blend-mode:overlay">
<path d="M426.381 210.782L374.056 220.536C372.135 220.894 370.868 222.742 371.227 224.663L372.028 228.961C372.386 230.882 374.234 232.149 376.154 231.791L428.479 222.037C430.4 221.679 431.667 219.831 431.309 217.91L430.507 213.611C430.149 211.691 428.302 210.424 426.381 210.782Z" fill="#291930"/>
</g>
</g>
<path d="M432.861 247.18L381.895 256.686C378.499 257.317 374.992 256.573 372.145 254.619C369.297 252.664 367.342 249.659 366.709 246.264L366.436 244.787L443.025 230.517L443.298 231.994C443.611 233.676 443.589 235.404 443.234 237.078C442.878 238.752 442.197 240.34 441.227 241.75C440.258 243.161 439.02 244.366 437.585 245.298C436.149 246.23 434.544 246.869 432.861 247.18Z" fill="black"/>
<path d="M405.605 86.6302C405.743 87.3656 406.024 88.0666 406.432 88.6933C406.841 89.3199 407.369 89.8599 407.986 90.2825C408.604 90.705 409.298 91.0018 410.03 91.1558C410.762 91.3098 411.518 91.3181 412.253 91.1802L425.94 164.468C426.223 165.985 425.891 167.552 425.019 168.825C424.146 170.098 422.804 170.972 421.286 171.256L364.596 181.811C363.08 182.091 361.515 181.759 360.243 180.887C358.972 180.014 358.099 178.673 357.816 177.157L344.129 103.87C344.906 103.78 345.656 103.53 346.332 103.137C347.009 102.744 347.597 102.216 348.06 101.585C348.523 100.955 348.852 100.236 349.025 99.4725C349.198 98.7096 349.212 97.9191 349.066 97.1505C348.92 96.382 348.617 95.6517 348.176 95.0053C347.735 94.3589 347.166 93.8102 346.504 93.3935C345.842 92.9768 345.101 92.7009 344.328 92.5832C343.554 92.4655 342.765 92.5084 342.009 92.7092L334.778 53.9604C334.495 52.4443 334.825 50.8778 335.696 49.6051C336.567 48.3323 337.908 47.4574 339.424 47.1723L396.106 36.5877C396.857 36.4477 397.628 36.4571 398.375 36.6152C399.123 36.7734 399.831 37.0772 400.461 37.5094C401.091 37.9415 401.629 38.4935 402.045 39.1338C402.462 39.7741 402.748 40.4902 402.887 41.2411L410.126 79.9899C408.648 80.2746 407.342 81.1329 406.495 82.3773C405.648 83.6216 405.328 85.1507 405.605 86.6302Z" fill="#FBFBFB"/>
<mask id="mask0_490_15024" style="mask-type:luminance" maskUnits="userSpaceOnUse" x="334" y="36" width="93" height="146">
<path d="M405.605 86.6302C405.743 87.3656 406.024 88.0666 406.432 88.6933C406.841 89.3199 407.369 89.8599 407.986 90.2825C408.604 90.705 409.298 91.0018 410.03 91.1558C410.762 91.3098 411.518 91.3181 412.253 91.1802L425.94 164.468C426.223 165.985 425.891 167.552 425.019 168.825C424.146 170.098 422.804 170.972 421.286 171.256L364.596 181.811C363.08 182.091 361.515 181.759 360.243 180.887C358.972 180.014 358.099 178.673 357.816 177.157L344.129 103.87C344.906 103.78 345.656 103.53 346.332 103.137C347.009 102.744 347.597 102.216 348.06 101.585C348.523 100.955 348.852 100.236 349.025 99.4725C349.198 98.7096 349.212 97.9191 349.066 97.1505C348.92 96.382 348.617 95.6517 348.176 95.0053C347.735 94.3589 347.166 93.8102 346.504 93.3935C345.842 92.9768 345.101 92.7009 344.328 92.5832C343.554 92.4655 342.765 92.5084 342.009 92.7092L334.778 53.9604C334.495 52.4443 334.825 50.8778 335.696 49.6051C336.567 48.3323 337.908 47.4574 339.424 47.1723L396.106 36.5877C396.857 36.4477 397.628 36.4571 398.375 36.6152C399.123 36.7734 399.831 37.0772 400.461 37.5094C401.091 37.9415 401.629 38.4935 402.045 39.1338C402.462 39.7741 402.748 40.4902 402.887 41.2411L410.126 79.9899C408.648 80.2746 407.342 81.1329 406.495 82.3773C405.648 83.6216 405.328 85.1507 405.605 86.6302Z" fill="white"/>
</mask>
<g mask="url(#mask0_490_15024)">
<g opacity="0.09">
<path d="M419.203 161.225C414.066 162.185 408.76 161.601 403.956 159.545C399.151 157.489 395.064 154.055 392.212 149.677C389.359 145.299 387.869 140.173 387.93 134.947C387.99 129.722 389.599 124.632 392.553 120.321C395.506 116.01 399.672 112.672 404.522 110.728C409.373 108.785 414.691 108.323 419.804 109.402C424.917 110.482 429.596 113.053 433.248 116.79C436.899 120.528 439.361 125.265 440.32 130.402C441.599 137.289 440.094 144.402 436.135 150.18C432.176 155.958 426.087 159.931 419.203 161.225ZM410.864 116.575C407.167 117.263 403.758 119.032 401.068 121.658C398.377 124.284 396.526 127.649 395.748 131.327C394.97 135.006 395.301 138.832 396.699 142.322C398.096 145.813 400.497 148.81 403.598 150.936C406.7 153.061 410.362 154.219 414.121 154.263C417.88 154.306 421.568 153.234 424.718 151.181C427.868 149.129 430.338 146.188 431.817 142.731C433.295 139.274 433.715 135.457 433.023 131.761C432.094 126.811 429.239 122.432 425.084 119.584C420.93 116.737 415.815 115.655 410.864 116.575Z" fill="#FECB51"/>
<path d="M340.679 105.621C337.45 106.22 334.117 105.848 331.1 104.553C328.082 103.257 325.517 101.096 323.728 98.3431C321.938 95.5899 321.006 92.3681 321.047 89.0848C321.089 85.8016 322.103 82.6043 323.961 79.8973C325.82 77.1903 328.439 75.095 331.488 73.8764C334.537 72.6577 337.879 72.3704 341.091 73.0508C344.303 73.7311 347.242 75.3486 349.535 77.6987C351.828 80.0488 353.373 83.026 353.974 86.254C354.779 90.5853 353.83 95.0589 351.337 98.6908C348.844 102.323 345.01 104.816 340.679 105.621ZM335.944 80.271C334.157 80.6045 332.51 81.4604 331.209 82.7303C329.909 84.0003 329.015 85.6274 328.639 87.4057C328.264 89.1841 328.424 91.0338 329.1 92.721C329.776 94.4082 330.937 95.857 332.437 96.8842C333.936 97.9114 335.707 98.4708 337.524 98.4917C339.342 98.5126 341.124 97.994 342.647 97.0016C344.17 96.0092 345.364 94.5875 346.078 92.9163C346.793 91.2451 346.996 89.3996 346.662 87.6131C346.212 85.2195 344.83 83.1022 342.821 81.7257C340.812 80.3493 338.339 79.8261 335.944 80.271Z" fill="#FECB51"/>
<path d="M360.858 60.7927C358.519 61.233 356.102 60.9695 353.912 60.0355C351.722 59.1015 349.859 57.539 348.558 55.5457C347.256 53.5524 346.576 51.2179 346.601 48.8376C346.627 46.4573 347.358 44.1381 348.703 42.1734C350.047 40.2088 351.944 38.687 354.153 37.8007C356.362 36.9144 358.785 36.7033 361.114 37.1941C363.443 37.685 365.575 38.8558 367.239 40.5583C368.902 42.2608 370.024 44.4186 370.461 46.7586C371.04 49.892 370.355 53.1274 368.556 55.7572C366.756 58.3871 363.989 60.1975 360.858 60.7927ZM357.808 44.4245C356.91 44.5905 356.081 45.0192 355.427 45.6564C354.772 46.2935 354.321 47.1105 354.131 48.0039C353.941 48.8973 354.021 49.8269 354.359 50.6753C354.698 51.5236 355.28 52.2524 356.033 52.7695C356.786 53.2866 357.676 53.5687 358.589 53.5802C359.502 53.5917 360.398 53.332 361.164 52.834C361.93 52.336 362.53 51.622 362.89 50.7825C363.25 49.943 363.353 49.0156 363.185 48.1177C362.957 46.9172 362.264 45.8555 361.257 45.1637C360.25 44.472 359.01 44.2063 357.808 44.4245Z" fill="#FECB51"/>
<path d="M408.936 96.1657C406.596 96.606 404.179 96.3425 401.989 95.4085C399.8 94.4745 397.936 92.9121 396.635 90.9188C395.334 88.9255 394.653 86.591 394.678 84.2107C394.704 81.8303 395.435 79.5111 396.78 77.5465C398.124 75.5819 400.021 74.0601 402.23 73.1738C404.439 72.2874 406.862 72.0763 409.191 72.5672C411.521 73.0581 413.652 74.2288 415.316 75.9313C416.979 77.6339 418.101 79.7916 418.538 82.1316C419.117 85.2651 418.432 88.5004 416.633 91.1303C414.834 93.7602 412.066 95.5706 408.936 96.1657ZM405.878 79.8049C404.98 79.9723 404.152 80.402 403.499 81.0398C402.846 81.6776 402.396 82.4947 402.207 83.388C402.018 84.2812 402.099 85.2104 402.438 86.0581C402.777 86.9058 403.36 87.6338 404.113 88.1503C404.866 88.6667 405.755 88.9482 406.668 88.9593C407.581 88.9704 408.476 88.7106 409.242 88.2126C410.007 87.7147 410.607 87.001 410.967 86.1619C411.327 85.3227 411.429 84.3957 411.262 83.4981C411.152 82.9016 410.925 82.3326 410.595 81.8239C410.265 81.3152 409.837 80.8767 409.337 80.5336C408.837 80.1905 408.273 79.9495 407.68 79.8245C407.086 79.6994 406.474 79.6928 405.878 79.8049Z" fill="#FECB51"/>
</g>
<path d="M338.699 46.8247L334.748 52.5935L331.32 53.2287L336.668 45.4287L338.699 46.8247Z" fill="#E7CF95"/>
<path d="M345.473 45.562L341.522 51.3308L338.087 51.966L343.427 44.166L345.473 45.562Z" fill="#E7CF95"/>
<path d="M352.231 44.2984L348.287 50.0671L344.853 50.7023L350.2 42.9023L352.231 44.2984Z" fill="#E7CF95"/>
<path d="M359.005 43.0357L355.053 48.797L351.618 49.4396L356.966 41.6396L359.005 43.0357Z" fill="#E7CF95"/>
<path d="M365.77 41.772L361.818 47.5334L358.384 48.176L363.732 40.376L365.77 41.772Z" fill="#E7CF95"/>
<path d="M372.537 40.5093L368.585 46.2707L365.15 46.9133L370.498 39.1133L372.537 40.5093Z" fill="#E7CF95"/>
<path d="M379.302 39.2466L375.351 45.008L371.916 45.6506L377.264 37.8506L379.302 39.2466Z" fill="#E7CF95"/>
<path d="M386.068 37.9829L382.116 43.7443L378.682 44.3869L384.029 36.5869L386.068 37.9829Z" fill="#E7CF95"/>
<path d="M392.834 36.7124L388.882 42.4812L385.455 43.1238L390.795 35.3164L392.834 36.7124Z" fill="#E7CF95"/>
<path d="M399.607 35.4497L395.655 41.2185L392.221 41.8611L397.568 34.0537L399.607 35.4497Z" fill="#E7CF95"/>
<path d="M406.366 34.187L402.422 39.9558L398.979 40.5984L404.335 32.791L406.366 34.187Z" fill="#E7CF95"/>
<path d="M413.132 32.9234L409.18 38.6921L405.753 39.3347L411.101 31.5273L413.132 32.9234Z" fill="#E7CF95"/>
<path d="M419.905 31.6607L415.953 37.4294L412.519 38.072L417.866 30.2646L419.905 31.6607Z" fill="#E7CF95"/>
<path d="M423.199 170.302L427.151 164.541L430.586 163.898L425.238 171.698L423.199 170.302Z" fill="#2F3449"/>
<path d="M416.434 171.565L420.385 165.804L423.82 165.161L418.472 172.961L416.434 171.565Z" fill="#2F3449"/>
<path d="M409.668 172.829L413.62 167.067L417.054 166.425L411.707 174.225L409.668 172.829Z" fill="#2F3449"/>
<path d="M402.901 174.091L406.853 168.33L410.288 167.688L404.94 175.487L402.901 174.091Z" fill="#2F3449"/>
<path d="M396.136 175.355L400.087 169.594L403.522 168.951L398.174 176.751L396.136 175.355Z" fill="#2F3449"/>
<path d="M389.37 176.625L393.322 170.856L396.749 170.214L391.409 178.021L389.37 176.625Z" fill="#2F3449"/>
<path d="M382.604 177.888L386.549 172.119L389.991 171.477L384.643 179.284L382.604 177.888Z" fill="#2F3449"/>
<path d="M375.838 179.152L379.79 173.383L383.224 172.74L377.869 180.548L375.838 179.152Z" fill="#2F3449"/>
<path d="M369.072 180.414L373.024 174.646L376.451 174.003L371.104 181.81L369.072 180.414Z" fill="#2F3449"/>
<path d="M362.299 181.677L366.251 175.908L369.685 175.266L364.337 183.073L362.299 181.677Z" fill="#2F3449"/>
<path d="M355.54 182.941L359.484 177.172L362.919 176.529L357.571 184.337L355.54 182.941Z" fill="#2F3449"/>
<path d="M348.768 184.203L352.719 178.435L356.154 177.792L350.806 185.599L348.768 184.203Z" fill="#2F3449"/>
<path d="M342.001 185.466L345.953 179.697L349.387 179.055L344.04 186.862L342.001 185.466Z" fill="#2F3449"/>
<path d="M335.235 186.73L339.187 180.961L342.622 180.326L337.274 188.126L335.235 186.73Z" fill="#2F3449"/>
<path d="M328.47 187.992L332.421 182.224L335.856 181.581L330.508 189.388L328.47 187.992Z" fill="#2F3449"/>
</g>
<path d="M405.635 86.7705L404.853 86.9182" stroke="#2F3449" stroke-width="0.317613" stroke-linecap="round" stroke-linejoin="round"/>
<path d="M403.272 87.2139L350.282 97.1042" stroke="#2F3449" stroke-width="0.317613" stroke-linecap="round" stroke-linejoin="round" stroke-dasharray="1.61 1.61"/>
<path d="M349.491 97.252L348.708 97.3997" stroke="#2F3449" stroke-width="0.317613" stroke-linecap="round" stroke-linejoin="round"/>
<path d="M381.962 96.1292C381.943 96.3478 381.855 96.5548 381.711 96.7201L377.774 102.267C377.762 102.291 377.755 102.318 377.755 102.345C377.755 102.372 377.762 102.398 377.774 102.422C377.855 102.733 377.929 103.043 378.003 103.36C378.009 103.39 378.009 103.42 378.003 103.449L377.774 103.781L377.626 103.671C377.523 103.597 377.412 103.516 377.301 103.449C377.266 103.429 377.236 103.401 377.213 103.368C377.19 103.335 377.175 103.297 377.168 103.257C377.117 102.998 377.057 102.74 376.998 102.481H376.932L376.193 102.592C376.163 102.599 376.131 102.599 376.101 102.593C376.07 102.586 376.041 102.574 376.016 102.555L375.514 102.208L375.765 101.839C375.765 101.839 375.765 101.839 375.817 101.839L376.784 101.713C376.808 101.712 376.832 101.704 376.852 101.691C376.873 101.678 376.89 101.661 376.902 101.639L380.721 95.8633C380.771 95.7727 380.84 95.6936 380.923 95.6313C381.005 95.5689 381.1 95.5246 381.201 95.5014C381.358 95.4659 381.522 95.4864 381.665 95.5592C381.808 95.6321 381.921 95.7527 381.984 95.9002C381.984 95.9002 381.984 95.9372 381.984 95.9593L381.962 96.1292Z" fill="#FFBF23"/>
<path d="M380.795 103.205L380.381 102.629L379.273 101.026C379.26 101.012 379.252 100.994 379.252 100.975C379.252 100.955 379.26 100.937 379.273 100.923L381.061 98.4115V98.3672C381.061 98.3672 381.061 98.3672 381.061 98.4115C381.349 99.9405 381.629 101.462 381.917 102.991L380.795 103.205Z" fill="#FFBF23"/>
<path d="M374.635 97.9755L379.259 97.1113L379.214 97.1852L377.538 99.7187C377.529 99.7399 377.513 99.7571 377.493 99.7667C377.472 99.7763 377.448 99.7777 377.427 99.7704L374.923 99.1574C374.9 99.1543 374.88 99.144 374.864 99.128C374.848 99.112 374.837 99.0911 374.834 99.0687C374.775 98.7289 374.709 98.3892 374.65 98.0494L374.635 97.9755Z" fill="#FFBF23"/>
<path d="M369.922 106.913L389.296 103.301" stroke="#2F3449" stroke-width="0.317613" stroke-miterlimit="10"/>
<path d="M387.42 105.207C387.392 105.177 387.377 105.137 387.377 105.096C387.377 105.055 387.392 105.015 387.42 104.985L389.215 103.309L386.94 102.4C386.901 102.382 386.87 102.35 386.854 102.311C386.837 102.271 386.837 102.226 386.852 102.186C386.868 102.147 386.899 102.117 386.937 102.1C386.976 102.084 387.019 102.083 387.058 102.097L389.562 103.109C389.589 103.118 389.612 103.133 389.63 103.154C389.649 103.175 389.661 103.2 389.666 103.227C389.672 103.254 389.67 103.282 389.66 103.308C389.651 103.334 389.635 103.357 389.614 103.375L387.642 105.214C387.619 105.236 387.591 105.251 387.561 105.259C387.535 105.261 387.509 105.258 387.485 105.249C387.46 105.24 387.438 105.226 387.42 105.207Z" fill="#2F3449"/>
<path d="M369.922 106.913L389.296 103.301" stroke="#2F3449" stroke-width="0.317613" stroke-miterlimit="10"/>
<path d="M387.42 105.207C387.392 105.177 387.377 105.137 387.377 105.096C387.377 105.055 387.392 105.015 387.42 104.985L389.215 103.309L386.94 102.4C386.901 102.382 386.87 102.35 386.854 102.311C386.837 102.271 386.837 102.226 386.852 102.186C386.868 102.147 386.899 102.117 386.937 102.1C386.976 102.084 387.019 102.083 387.058 102.097L389.562 103.109C389.589 103.118 389.612 103.133 389.63 103.154C389.649 103.175 389.661 103.2 389.666 103.227C389.672 103.254 389.67 103.282 389.66 103.308C389.651 103.334 389.635 103.357 389.614 103.375L387.642 105.214C387.619 105.236 387.591 105.251 387.561 105.259C387.535 105.261 387.509 105.258 387.485 105.249C387.46 105.24 387.438 105.226 387.42 105.207Z" fill="#2F3449"/>
<path d="M360.09 156.558L358.014 156.946L360.032 167.75L362.108 167.362L360.09 156.558Z" fill="#2F3449"/>
<path d="M361.703 156.262L360.665 156.456L362.683 167.26L363.721 167.066L361.703 156.262Z" fill="#2F3449"/>
<path d="M363.038 156.023L362.516 156.12L364.532 166.924L365.055 166.827L363.038 156.023Z" fill="#2F3449"/>
<path d="M369.462 154.807L367.386 155.195L369.404 165.999L371.48 165.611L369.462 154.807Z" fill="#2F3449"/>
<path d="M371.075 154.511L370.037 154.705L372.055 165.509L373.093 165.315L371.075 154.511Z" fill="#2F3449"/>
<path d="M372.411 154.274L371.889 154.371L373.905 165.175L374.428 165.078L372.411 154.274Z" fill="#2F3449"/>
<path d="M364.09 155.817L363.567 155.915L365.585 166.719L366.108 166.621L364.09 155.817Z" fill="#2F3449"/>
<path d="M365.138 155.628L364.615 155.726L366.633 166.53L367.156 166.432L365.138 155.628Z" fill="#2F3449"/>
<path d="M366.186 155.427L365.663 155.524L367.679 166.329L368.202 166.231L366.186 155.427Z" fill="#2F3449"/>
<path d="M375.793 153.629L373.717 154.017L375.735 164.821L377.811 164.433L375.793 153.629Z" fill="#2F3449"/>
<path d="M377.413 153.326L376.375 153.52L378.393 164.324L379.431 164.13L377.413 153.326Z" fill="#2F3449"/>
<path d="M378.754 153.083L378.231 153.181L380.249 163.985L380.772 163.887L378.754 153.083Z" fill="#2F3449"/>
<path d="M385.165 151.871L383.089 152.259L385.107 163.063L387.183 162.675L385.165 151.871Z" fill="#2F3449"/>
<path d="M386.786 151.568L385.748 151.762L387.766 162.566L388.804 162.372L386.786 151.568Z" fill="#2F3449"/>
<path d="M388.119 151.333L387.597 151.431L389.615 162.235L390.137 162.137L388.119 151.333Z" fill="#2F3449"/>
<path d="M379.796 152.892L379.273 152.989L381.29 163.794L381.812 163.696L379.796 152.892Z" fill="#2F3449"/>
<path d="M380.841 152.691L380.318 152.789L382.336 163.593L382.859 163.495L380.841 152.691Z" fill="#2F3449"/>
<path d="M381.894 152.487L381.371 152.585L383.389 163.389L383.912 163.291L381.894 152.487Z" fill="#2F3449"/>
<path d="M389.684 151.033L387.607 151.421L389.625 162.225L391.702 161.837L389.684 151.033Z" fill="#2F3449"/>
<path d="M391.304 150.73L390.266 150.924L392.284 161.728L393.322 161.534L391.304 150.73Z" fill="#2F3449"/>
<path d="M391.586 150.458L391.064 150.554L393.043 161.325L393.564 161.229L391.586 150.458Z" fill="#2F3449"/>
<path d="M399.056 149.283L396.979 149.671L398.998 160.475L401.074 160.087L399.056 149.283Z" fill="#2F3449"/>
<path d="M400.677 148.979L399.639 149.173L401.657 159.977L402.695 159.783L400.677 148.979Z" fill="#2F3449"/>
<path d="M402.01 148.746L401.487 148.844L403.505 159.648L404.028 159.55L402.01 148.746Z" fill="#2F3449"/>
<path d="M392.636 150.253L392.115 150.349L394.094 161.12L394.615 161.024L392.636 150.253Z" fill="#2F3449"/>
<path d="M394.728 150.111L394.205 150.209L396.221 161.013L396.744 160.916L394.728 150.111Z" fill="#2F3449"/>
<path d="M394.711 149.885L394.189 149.98L396.168 160.752L396.689 160.656L394.711 149.885Z" fill="#2F3449"/>
<path d="M405.387 148.097L403.311 148.484L405.329 159.288L407.405 158.901L405.387 148.097Z" fill="#2F3449"/>
<path d="M406.999 147.807L405.961 148.001L407.979 158.805L409.017 158.611L406.999 147.807Z" fill="#2F3449"/>
<path d="M408.345 147.561L407.822 147.658L409.838 158.463L410.361 158.365L408.345 147.561Z" fill="#2F3449"/>
<path d="M414.759 146.347L412.683 146.734L414.701 157.538L416.777 157.151L414.759 146.347Z" fill="#2F3449"/>
<path d="M416.372 146.057L415.334 146.251L417.352 157.055L418.39 156.861L416.372 146.057Z" fill="#2F3449"/>
<path d="M417.711 145.821L417.188 145.919L419.205 156.723L419.727 156.626L417.711 145.821Z" fill="#2F3449"/>
<path d="M408.296 147.396L407.774 147.492L409.753 158.263L410.274 158.168L408.296 147.396Z" fill="#2F3449"/>
<path d="M410.435 147.166L409.912 147.264L411.93 158.068L412.453 157.97L410.435 147.166Z" fill="#2F3449"/>
<path d="M411.478 146.975L410.955 147.072L412.971 157.877L413.494 157.779L411.478 146.975Z" fill="#2F3449"/>
<path d="M412.377 161.369L369.219 169.431L369.463 170.738L412.621 162.676L412.377 161.369Z" fill="#2F3449"/>
<path d="M370.464 122.398L351.753 125.893L351.943 126.909L370.654 123.414L370.464 122.398Z" fill="#90959B"/>
<path d="M384.167 126.072L352.902 131.912L353.251 133.778L384.516 127.938L384.167 126.072Z" fill="#2F3449"/>
<path d="M373.759 137.192L355.048 140.687L355.238 141.703L373.949 138.208L373.759 137.192Z" fill="#90959B"/>
<path d="M387.47 140.866L356.205 146.706L356.554 148.572L387.819 142.732L387.47 140.866Z" fill="#2F3449"/>
<path d="M358.758 73.5229L344.309 76.2217L344.498 77.2382L358.947 74.5394L358.758 73.5229Z" fill="#90959B"/>
<path d="M355.288 77.0813L344.832 79.0342L345.022 80.0507L355.477 78.0978L355.288 77.0813Z" fill="#90959B"/>
<path d="M369.417 77.7358L345.275 82.2451L345.624 84.1111L369.766 79.6018L369.417 77.7358Z" fill="#2F3449"/>
<path d="M390.217 67.1029L375.768 69.8018L375.957 70.8183L390.406 68.1194L390.217 67.1029Z" fill="#90959B"/>
<path d="M386.748 70.6682L376.292 72.6211L376.482 73.6376L386.937 71.6847L386.748 70.6682Z" fill="#90959B"/>
<path d="M400.875 71.3149L376.733 75.8242L377.082 77.6902L401.224 73.1809L400.875 71.3149Z" fill="#2F3449"/>
<g opacity="0.35">
<g style="mix-blend-mode:overlay">
<path d="M345.555 149.909C366.177 149.606 391.35 152.236 397.17 152.967C397.608 153.024 398.014 153.221 398.33 153.529C398.645 153.836 398.853 154.238 398.921 154.673C398.996 155.179 398.878 155.694 398.59 156.117C398.303 156.539 397.868 156.839 397.37 156.956L348.915 167.939" fill="black"/>
<path d="M345.555 149.687C354.463 148.262 363.444 149.074 372.389 149.451C380.47 149.894 388.588 150.581 396.639 151.475C400.989 151.475 401.809 157.317 397.569 158.373L396.55 158.602C381.127 162.111 364.641 165.908 349.233 169.32L348.605 166.55C357.292 164.541 365.99 162.571 374.701 160.641L394.282 156.209L396.727 155.655L396.934 155.611L397.074 155.574C397.164 155.549 397.246 155.503 397.315 155.441C397.384 155.378 397.438 155.301 397.472 155.215C397.507 155.128 397.521 155.035 397.513 154.942C397.505 154.85 397.477 154.76 397.429 154.68C397.384 154.611 397.325 154.551 397.257 154.504C397.188 154.457 397.111 154.424 397.03 154.407L395.472 154.215C387.753 153.292 379.96 152.627 372.219 151.999C363.319 151.216 354.448 151.334 345.562 150.115V149.672L345.555 149.687Z" fill="black"/>
</g>
<g style="mix-blend-mode:overlay">
<path d="M350.562 164.726C372.168 165.302 398.574 168.493 405.354 169.357C405.832 169.417 406.277 169.631 406.623 169.967C406.968 170.303 407.194 170.742 407.268 171.218C407.35 171.771 407.221 172.334 406.906 172.796C406.591 173.258 406.114 173.583 405.569 173.707L352.586 185.725" fill="black"/>
<path d="M350.562 164.726C372.168 165.302 398.574 168.493 405.354 169.357C405.832 169.417 406.277 169.631 406.623 169.967C406.968 170.303 407.194 170.742 407.268 171.218C407.35 171.771 407.221 172.334 406.906 172.796C406.591 173.258 406.114 173.583 405.569 173.707L352.586 185.725" stroke="black" stroke-width="2.84374" stroke-miterlimit="10"/>
</g>
<g style="mix-blend-mode:overlay">
<path d="M351.553 183.059C370.211 183.553 393.012 186.316 398.884 187.055C399.297 187.108 399.68 187.293 399.978 187.584C400.275 187.875 400.469 188.254 400.532 188.665C400.603 189.144 400.49 189.631 400.216 190.03C399.942 190.429 399.527 190.709 399.054 190.814L353.325 201.155" fill="black"/>
<path d="M351.553 183.059C370.211 183.553 393.012 186.316 398.884 187.055C399.297 187.108 399.68 187.293 399.978 187.584C400.275 187.875 400.469 188.254 400.532 188.665C400.603 189.144 400.49 189.631 400.216 190.03C399.942 190.429 399.527 190.709 399.054 190.814L353.325 201.155" stroke="black" stroke-width="2.84374" stroke-miterlimit="10"/>
</g>
<g style="mix-blend-mode:overlay">
<path d="M356.398 200.1C371.947 200.572 390.582 202.825 395.443 203.438C395.791 203.481 396.116 203.638 396.366 203.883C396.617 204.129 396.781 204.45 396.831 204.797C396.892 205.198 396.798 205.607 396.569 205.941C396.34 206.275 395.993 206.511 395.598 206.6L358.26 216.527" fill="black"/>
<path d="M356.443 198.674C366.783 198.91 377.065 199.811 387.325 200.949L392.451 201.547C392.872 201.606 395.28 201.887 395.671 201.946C396.188 202.019 396.679 202.22 397.099 202.531C397.518 202.842 397.853 203.253 398.073 203.726C398.293 204.2 398.392 204.721 398.359 205.242C398.327 205.763 398.165 206.268 397.887 206.71C397.44 207.393 396.747 207.877 395.952 208.062L393.463 208.697L388.485 209.982L368.541 215.108C366.902 215.744 365.055 215.315 363.371 215.744C361.687 216.071 360.034 216.541 358.429 217.147L358.09 215.884C359.785 215.608 361.455 215.193 363.083 214.643C364.737 214.193 366.133 212.907 367.877 212.641L392.702 205.846L395.184 205.166C395.302 205.13 395.25 205.166 395.28 205.13V205.093C395.289 205.078 395.294 205.061 395.294 205.045C395.295 205.028 395.292 205.011 395.284 204.995C395.277 204.98 395.266 204.967 395.252 204.957C395.239 204.947 395.223 204.94 395.206 204.937C389.201 204.199 382.76 203.497 376.74 202.958C369.937 202.323 363.12 201.82 356.31 201.518L356.398 198.674H356.443Z" fill="black"/>
</g>
</g>
<path d="M336.684 160.804C336.469 159.399 336.565 157.964 336.966 156.6C337.367 155.237 338.062 153.977 339.002 152.912C339.942 151.846 341.105 151 342.408 150.432C343.712 149.865 345.123 149.591 346.544 149.628C366.318 150.153 390.478 153.078 396.698 153.861C397.135 153.918 397.541 154.115 397.857 154.422C398.173 154.73 398.38 155.132 398.448 155.567C398.523 156.073 398.405 156.588 398.118 157.011C397.83 157.433 397.395 157.733 396.897 157.849L348.443 168.833C347.139 169.128 345.789 169.152 344.477 168.902C343.164 168.652 341.917 168.134 340.814 167.38C339.71 166.627 338.774 165.654 338.063 164.523C337.353 163.391 336.883 162.125 336.684 160.804Z" fill="#F2A894"/>
<path d="M339.254 177.837C339.023 176.297 339.133 174.725 339.576 173.232C340.019 171.739 340.784 170.361 341.818 169.196C342.851 168.031 344.127 167.107 345.557 166.489C346.986 165.871 348.534 165.574 350.09 165.62C371.695 166.196 398.101 169.387 404.882 170.251C405.36 170.311 405.805 170.525 406.15 170.861C406.495 171.197 406.722 171.636 406.795 172.112C406.878 172.665 406.749 173.229 406.434 173.69C406.119 174.152 405.641 174.477 405.096 174.602L352.114 186.619C350.689 186.942 349.212 186.968 347.776 186.694C346.341 186.421 344.977 185.855 343.77 185.03C342.563 184.206 341.539 183.142 340.762 181.904C339.985 180.667 339.472 179.282 339.254 177.837Z" fill="#F2A894"/>
<path d="M341.765 194.5C341.564 193.174 341.656 191.819 342.035 190.532C342.414 189.245 343.07 188.057 343.958 187.051C344.847 186.045 345.945 185.246 347.175 184.711C348.405 184.176 349.738 183.917 351.079 183.952C369.73 184.447 392.531 187.21 398.411 187.948C398.823 188.002 399.207 188.187 399.504 188.478C399.801 188.768 399.996 189.148 400.058 189.559C400.129 190.037 400.017 190.525 399.743 190.924C399.468 191.323 399.053 191.603 398.581 191.708L352.852 202.049C351.623 202.324 350.351 202.343 349.115 202.105C347.879 201.867 346.705 201.378 345.666 200.667C344.627 199.956 343.745 199.039 343.075 197.973C342.405 196.908 341.962 195.715 341.772 194.471L341.765 194.5Z" fill="#F2A894"/>
<path d="M347.408 210.617C347.223 209.406 347.307 208.169 347.654 206.995C348.001 205.82 348.602 204.735 349.415 203.819C350.228 202.903 351.232 202.176 352.357 201.692C353.482 201.207 354.7 200.976 355.925 201.015C371.436 201.488 390.109 203.741 394.969 204.354C395.317 204.398 395.641 204.555 395.891 204.8C396.142 205.045 396.306 205.366 396.357 205.713C396.416 206.113 396.322 206.521 396.093 206.855C395.864 207.189 395.518 207.425 395.124 207.515L357.808 217.427C356.675 217.728 355.491 217.787 354.333 217.6C353.176 217.413 352.07 216.984 351.089 216.342C350.108 215.699 349.274 214.858 348.639 213.871C348.005 212.885 347.586 211.776 347.408 210.617Z" fill="#F2A894"/>
<path d="M397.909 155.766C397.909 156.86 395.893 157.805 393.352 157.872C390.811 157.938 388.713 157.096 388.684 156.003C388.654 154.91 390.7 153.972 393.249 153.905C395.797 153.839 397.88 154.673 397.909 155.766Z" fill="#1F3C99"/>
<path d="M395.634 205.838C395.715 206.658 394.238 207.478 392.325 207.67C390.411 207.862 388.801 207.352 388.72 206.532C388.639 205.713 390.116 204.893 392.029 204.701C393.942 204.509 395.552 205.018 395.634 205.838Z" fill="#1F3C99"/>
<path d="M406.219 172.209C406.3 173.398 404.136 174.513 401.381 174.705C398.626 174.897 396.329 174.1 396.247 172.918C396.166 171.736 398.33 170.621 401.078 170.421C403.826 170.222 406.13 171.056 406.219 172.209Z" fill="#1F3C99"/>
<path d="M399.305 189.987C399.305 191.176 397.09 192.203 394.349 192.203C391.609 192.203 389.334 191.331 389.312 190.149C389.29 188.968 391.528 187.934 394.268 187.934C397.008 187.934 399.283 188.805 399.305 189.987Z" fill="#1F3C99"/>
<g style="mix-blend-mode:overlay">
<path d="M425.719 140.551C431.879 149.23 439.937 156.106 448.498 162.274C449.732 163.175 451.01 164.01 452.228 165.007C440.846 161.794 428.932 152.251 425.719 140.551Z" fill="black"/>
</g>
<path d="M477.962 158.174L449.569 163.345C440.979 159.172 433.371 149.961 425.829 141.274C422.875 137.832 419.92 134.486 416.862 131.561C414.949 129.705 412.935 127.957 410.828 126.325C407.767 123.95 404.513 121.835 401.1 120.002C397.725 118.226 394.873 115.598 392.827 112.379C392.677 112.141 392.587 111.871 392.563 111.59C392.539 111.31 392.583 111.028 392.691 110.768C392.799 110.509 392.967 110.278 393.183 110.097C393.398 109.916 393.653 109.789 393.928 109.727C394.204 109.661 394.493 109.661 394.77 109.727L407.009 113.029L413.095 114.654L422.565 117.173C449.259 124.663 464.94 140.322 472.467 149.961C474.529 152.537 476.368 155.285 477.962 158.174Z" fill="#F2A894"/>
<path d="M401.137 114.403C394.689 113.155 393.928 109.742 393.928 109.742C394.205 109.676 394.493 109.676 394.77 109.742L407.009 113.029C407.009 113.029 407.585 115.651 401.137 114.403Z" fill="#1F3C99"/>
<path d="M328.741 113.972C331.671 111.14 331.75 106.468 328.918 103.538C326.085 100.608 321.414 100.529 318.484 103.362C315.554 106.194 315.475 110.865 318.307 113.796C321.14 116.726 325.811 116.805 328.741 113.972Z" fill="#FBFBFB"/>
<path d="M442.685 101.426C439.59 102.253 439.199 102.726 438.955 105.916C438.127 102.822 437.662 102.43 434.464 102.223C437.559 101.396 437.95 100.923 438.194 97.7324C439.014 100.798 439.509 101.189 442.685 101.426Z" fill="#FBFBFB"/>
<path d="M437.101 129.013C434.006 129.84 433.615 130.313 433.371 133.504C432.551 130.409 432.078 130.018 428.88 129.811C431.975 128.984 432.366 128.511 432.573 125.312C433.43 128.385 433.903 128.777 437.101 129.013Z" fill="#FBFBFB"/>
<path d="M437.638 94.8852C441.366 90.3997 440.752 83.7411 436.266 80.0129C431.781 76.2847 425.122 76.8986 421.394 81.3841C417.666 85.8696 418.28 92.5282 422.765 96.2564C427.251 99.9846 433.909 99.3707 437.638 94.8852Z" fill="#FBFBFB"/>
<path d="M414.491 55.3241C416.125 53.7328 416.159 51.1187 414.568 49.4853C412.977 47.8519 410.363 47.8177 408.729 49.4089C407.096 51.0001 407.061 53.6142 408.653 55.2476C410.244 56.8811 412.858 56.9153 414.491 55.3241Z" fill="#FBFBFB"/>
<path d="M336.322 124.035C333.227 124.862 332.835 125.335 332.629 128.525C331.809 125.431 331.336 125.039 328.138 124.832C331.233 124.005 331.624 123.532 331.831 120.334C332.658 123.407 333.146 123.798 336.322 124.035Z" fill="#FBFBFB"/>
<path d="M351.633 112.44L350.866 112.583L350.177 108.896L350.945 108.752L351.633 112.44ZM353.711 111.447C353.833 111.424 353.93 111.391 354.003 111.348C354.077 111.302 354.133 111.251 354.171 111.193C354.209 111.135 354.232 111.072 354.239 111.006C354.245 110.938 354.242 110.871 354.23 110.803C354.216 110.728 354.192 110.663 354.159 110.608C354.126 110.553 354.081 110.51 354.024 110.478C353.967 110.445 353.897 110.425 353.813 110.418C353.731 110.41 353.632 110.417 353.517 110.439L352.869 110.56L353.058 111.569L353.711 111.447ZM352.586 109.045L352.772 110.041L353.273 109.948C353.38 109.928 353.473 109.902 353.553 109.869C353.632 109.835 353.697 109.793 353.745 109.744C353.794 109.695 353.827 109.636 353.844 109.568C353.862 109.498 353.863 109.418 353.846 109.328C353.829 109.237 353.802 109.161 353.765 109.101C353.729 109.041 353.682 108.997 353.624 108.967C353.566 108.938 353.496 108.922 353.415 108.919C353.334 108.915 353.239 108.923 353.133 108.943L352.586 109.045ZM353.025 108.364C353.272 108.318 353.487 108.302 353.671 108.317C353.855 108.33 354.011 108.369 354.137 108.435C354.265 108.499 354.365 108.587 354.439 108.699C354.513 108.812 354.563 108.943 354.592 109.094C354.607 109.179 354.61 109.263 354.599 109.345C354.59 109.428 354.566 109.508 354.526 109.588C354.488 109.665 354.433 109.739 354.362 109.81C354.292 109.881 354.204 109.947 354.099 110.007C354.361 110.019 354.565 110.081 354.71 110.192C354.855 110.304 354.948 110.466 354.988 110.68C355.017 110.836 355.013 110.986 354.977 111.131C354.943 111.276 354.878 111.409 354.781 111.528C354.684 111.648 354.556 111.752 354.397 111.839C354.239 111.925 354.051 111.988 353.833 112.029L352.404 112.296L351.716 108.608L353.025 108.364ZM357.4 109.913L356.79 108.86C356.756 108.805 356.717 108.74 356.675 108.666C356.635 108.591 356.594 108.509 356.553 108.42C356.547 108.519 356.538 108.612 356.526 108.699C356.516 108.783 356.504 108.857 356.492 108.921L356.305 110.118L357.4 109.913ZM358.943 111.074L358.35 111.185C358.284 111.197 358.227 111.192 358.179 111.17C358.133 111.145 358.094 111.11 358.065 111.065L357.684 110.407L356.216 110.682L356.098 111.432C356.089 111.478 356.067 111.522 356.031 111.566C355.995 111.608 355.945 111.634 355.88 111.646L355.283 111.758L356.035 107.801L356.815 107.656L358.943 111.074ZM362.245 108.548C362.296 108.818 362.296 109.074 362.247 109.318C362.2 109.561 362.108 109.778 361.972 109.972C361.838 110.165 361.664 110.33 361.449 110.464C361.234 110.599 360.985 110.693 360.702 110.746L359.284 111.011L358.595 107.323L360.013 107.058C360.296 107.006 360.562 107.003 360.811 107.051C361.06 107.1 361.283 107.19 361.478 107.324C361.674 107.456 361.838 107.626 361.97 107.834C362.104 108.043 362.195 108.281 362.245 108.548ZM361.463 108.694C361.427 108.501 361.369 108.332 361.289 108.188C361.21 108.043 361.112 107.926 360.997 107.837C360.883 107.748 360.751 107.688 360.603 107.656C360.457 107.623 360.297 107.623 360.125 107.656L359.474 107.777L359.94 110.27L360.59 110.149C360.763 110.116 360.912 110.06 361.037 109.978C361.164 109.895 361.264 109.791 361.339 109.667C361.414 109.541 361.462 109.396 361.484 109.232C361.506 109.069 361.499 108.889 361.463 108.694ZM364.716 108.547L364.107 107.493C364.072 107.438 364.033 107.374 363.991 107.299C363.951 107.224 363.91 107.142 363.869 107.054C363.863 107.153 363.854 107.246 363.842 107.332C363.832 107.416 363.82 107.491 363.808 107.554L363.621 108.752L364.716 108.547ZM366.259 109.708L365.666 109.819C365.6 109.831 365.543 109.826 365.495 109.803C365.449 109.779 365.411 109.744 365.381 109.698L365.001 109.041L363.532 109.315L363.414 110.066C363.405 110.111 363.383 110.156 363.347 110.199C363.311 110.241 363.261 110.268 363.196 110.28L362.599 110.391L363.351 106.435L364.131 106.289L366.259 109.708ZM369.07 105.367L369.759 109.054L369.365 109.128C369.305 109.139 369.254 109.139 369.21 109.128C369.165 109.115 369.119 109.089 369.071 109.048L366.797 107.054C366.813 107.112 366.828 107.17 366.84 107.227C366.854 107.284 366.866 107.337 366.875 107.386L367.273 109.518L366.6 109.644L365.911 105.957L366.313 105.882C366.345 105.876 366.372 105.872 366.395 105.872C366.419 105.869 366.441 105.871 366.462 105.878C366.482 105.883 366.502 105.891 366.522 105.903C366.542 105.915 366.564 105.932 366.589 105.954L368.878 107.956C368.859 107.893 368.842 107.832 368.828 107.774C368.813 107.713 368.801 107.656 368.79 107.602L368.397 105.493L369.07 105.367Z" fill="#2F3449"/>
<path d="M352.544 117.906C352.339 117.944 352.151 117.935 351.98 117.88C351.809 117.822 351.665 117.723 351.549 117.584C351.435 117.445 351.36 117.275 351.322 117.075C351.27 116.797 351.286 116.534 351.368 116.285C351.453 116.033 351.593 115.822 351.79 115.651C351.987 115.478 352.221 115.366 352.494 115.315C352.701 115.276 352.891 115.286 353.062 115.344C353.236 115.399 353.379 115.497 353.493 115.636C353.606 115.773 353.681 115.942 353.719 116.142C353.771 116.421 353.755 116.687 353.671 116.939C353.588 117.188 353.449 117.4 353.252 117.573C353.055 117.743 352.819 117.854 352.544 117.906ZM352.536 117.608C352.743 117.569 352.917 117.482 353.06 117.346C353.204 117.207 353.306 117.038 353.363 116.84C353.421 116.641 353.431 116.436 353.391 116.225C353.348 115.992 353.246 115.821 353.087 115.712C352.928 115.603 352.733 115.57 352.503 115.613C352.296 115.651 352.12 115.74 351.975 115.879C351.833 116.015 351.733 116.183 351.675 116.381C351.619 116.576 351.61 116.78 351.65 116.992C351.693 117.225 351.794 117.397 351.951 117.509C352.11 117.618 352.305 117.651 352.536 117.608ZM354.299 115.551L354.919 117.049L355.506 115.326L355.838 115.264L354.703 118.419L354.368 118.482L354.741 117.448L353.943 115.618L354.299 115.551ZM357.036 117.074C356.873 117.104 356.724 117.098 356.587 117.056C356.452 117.01 356.339 116.934 356.248 116.827C356.157 116.717 356.097 116.582 356.067 116.422C356.026 116.204 356.039 115.994 356.107 115.794C356.173 115.592 356.285 115.421 356.442 115.282C356.601 115.143 356.79 115.053 357.009 115.012C357.171 114.982 357.321 114.989 357.458 115.034C357.597 115.076 357.713 115.152 357.804 115.262C357.897 115.368 357.958 115.503 357.989 115.665C358.03 115.884 358.015 116.094 357.946 116.294C357.876 116.495 357.761 116.665 357.602 116.804C357.443 116.943 357.255 117.033 357.036 117.074ZM357.024 116.795C357.177 116.766 357.307 116.7 357.414 116.594C357.52 116.487 357.595 116.359 357.638 116.209C357.682 116.057 357.69 115.903 357.66 115.745C357.627 115.566 357.55 115.439 357.429 115.365C357.307 115.287 357.169 115.263 357.013 115.292C356.861 115.321 356.732 115.389 356.628 115.496C356.523 115.601 356.451 115.729 356.411 115.88C356.371 116.031 356.366 116.186 356.396 116.346C356.428 116.52 356.503 116.646 356.62 116.724C356.736 116.8 356.871 116.824 357.024 116.795Z" fill="#90959B"/>
<path d="M396.245 101.66C396.296 101.929 396.296 102.187 396.248 102.435C396.201 102.682 396.111 102.905 395.976 103.104C395.843 103.302 395.669 103.471 395.455 103.611C395.241 103.749 394.992 103.845 394.709 103.898C394.426 103.951 394.16 103.951 393.91 103.9C393.66 103.847 393.436 103.752 393.239 103.615C393.042 103.478 392.876 103.303 392.741 103.09C392.608 102.876 392.517 102.635 392.466 102.365C392.416 102.096 392.414 101.839 392.461 101.593C392.51 101.346 392.602 101.122 392.736 100.924C392.871 100.725 393.045 100.557 393.26 100.418C393.474 100.278 393.722 100.182 394.005 100.129C394.288 100.076 394.555 100.076 394.805 100.13C395.055 100.181 395.278 100.276 395.474 100.415C395.671 100.552 395.836 100.727 395.969 100.941C396.103 101.152 396.195 101.392 396.245 101.66ZM395.465 101.805C395.429 101.612 395.371 101.444 395.292 101.301C395.212 101.156 395.114 101.04 394.998 100.951C394.883 100.86 394.751 100.8 394.604 100.77C394.457 100.737 394.298 100.737 394.125 100.77C393.952 100.802 393.803 100.86 393.676 100.943C393.549 101.024 393.448 101.128 393.371 101.255C393.296 101.379 393.248 101.523 393.226 101.687C393.204 101.849 393.21 102.027 393.247 102.22C393.283 102.414 393.341 102.584 393.421 102.729C393.5 102.872 393.597 102.988 393.712 103.077C393.828 103.166 393.96 103.226 394.108 103.258C394.256 103.288 394.416 103.287 394.589 103.255C394.762 103.223 394.911 103.166 395.036 103.085C395.162 103.001 395.263 102.898 395.338 102.773C395.415 102.648 395.464 102.505 395.487 102.343C395.509 102.179 395.501 102 395.465 101.805ZM398.587 100.047C398.571 100.09 398.552 100.123 398.53 100.147C398.509 100.168 398.479 100.182 398.44 100.19C398.403 100.197 398.36 100.192 398.311 100.174C398.264 100.155 398.209 100.136 398.145 100.116C398.082 100.096 398.011 100.081 397.931 100.069C397.852 100.056 397.762 100.059 397.662 100.077C397.486 100.11 397.361 100.175 397.288 100.271C397.214 100.365 397.189 100.476 397.213 100.603C397.228 100.684 397.265 100.748 397.322 100.793C397.381 100.836 397.453 100.87 397.539 100.895C397.625 100.919 397.722 100.937 397.827 100.948C397.933 100.96 398.042 100.975 398.154 100.993C398.266 101.009 398.376 101.032 398.485 101.062C398.594 101.093 398.695 101.138 398.787 101.198C398.88 101.258 398.961 101.337 399.028 101.437C399.097 101.534 399.146 101.66 399.175 101.814C399.207 101.982 399.206 102.145 399.175 102.304C399.144 102.46 399.084 102.604 398.995 102.734C398.905 102.863 398.784 102.975 398.633 103.068C398.484 103.16 398.307 103.226 398.102 103.264C397.985 103.286 397.866 103.296 397.745 103.294C397.625 103.292 397.507 103.28 397.391 103.258C397.276 103.235 397.166 103.203 397.06 103.162C396.954 103.12 396.859 103.069 396.774 103.01L396.93 102.607C396.944 102.577 396.964 102.55 396.991 102.527C397.018 102.503 397.049 102.488 397.083 102.481C397.129 102.473 397.18 102.481 397.237 102.505C397.294 102.53 397.36 102.556 397.433 102.584C397.507 102.613 397.59 102.636 397.683 102.653C397.777 102.671 397.886 102.668 398.008 102.645C398.185 102.612 398.315 102.546 398.396 102.446C398.48 102.347 398.506 102.216 398.476 102.056C398.459 101.962 398.42 101.892 398.36 101.843C398.302 101.794 398.23 101.758 398.145 101.733C398.06 101.709 397.965 101.693 397.86 101.684C397.754 101.674 397.646 101.662 397.535 101.648C397.423 101.633 397.313 101.612 397.204 101.583C397.095 101.554 396.995 101.508 396.902 101.445C396.81 101.381 396.728 101.297 396.658 101.191C396.589 101.084 396.538 100.946 396.506 100.774C396.481 100.637 396.483 100.499 396.513 100.36C396.543 100.221 396.601 100.092 396.688 99.9726C396.774 99.853 396.888 99.7485 397.029 99.6591C397.172 99.5693 397.342 99.5059 397.54 99.4688C397.762 99.4274 397.974 99.4238 398.175 99.4582C398.377 99.4905 398.555 99.5555 398.708 99.6531L398.587 100.047ZM402.416 98.6002L403.105 102.288L402.337 102.431L402.041 100.843L400.417 101.146L400.713 102.734L399.946 102.878L399.257 99.1903L400.025 99.0469L400.317 100.612L401.941 100.309L401.649 98.7436L402.416 98.6002ZM407.095 99.6329C407.146 99.9023 407.147 100.161 407.098 100.408C407.051 100.655 406.961 100.878 406.826 101.077C406.693 101.276 406.519 101.445 406.305 101.585C406.091 101.723 405.842 101.818 405.559 101.871C405.276 101.924 405.01 101.925 404.76 101.873C404.51 101.82 404.286 101.725 404.089 101.588C403.892 101.452 403.726 101.277 403.591 101.063C403.458 100.85 403.367 100.608 403.316 100.339C403.266 100.069 403.264 99.812 403.312 99.5665C403.36 99.319 403.452 99.0959 403.586 98.8971C403.721 98.6984 403.895 98.5299 404.11 98.3917C404.324 98.2518 404.572 98.1554 404.855 98.1025C405.138 98.0497 405.405 98.0499 405.655 98.1031C405.905 98.1546 406.128 98.2497 406.324 98.3885C406.521 98.5252 406.686 98.7003 406.819 98.914C406.953 99.1256 407.045 99.3653 407.095 99.6329ZM406.315 99.7787C406.279 99.5855 406.221 99.4175 406.142 99.2745C406.062 99.1298 405.964 99.0131 405.848 98.9244C405.733 98.8337 405.601 98.7732 405.454 98.7429C405.307 98.7107 405.148 98.7107 404.975 98.7429C404.802 98.7752 404.653 98.833 404.526 98.9162C404.399 98.9977 404.298 99.1017 404.221 99.2282C404.146 99.3527 404.098 99.4967 404.076 99.6604C404.054 99.8224 404.06 99.9999 404.097 100.193C404.133 100.388 404.191 100.558 404.271 100.702C404.35 100.845 404.447 100.961 404.562 101.05C404.678 101.139 404.811 101.199 404.958 101.231C405.106 101.262 405.266 101.261 405.439 101.228C405.612 101.196 405.761 101.139 405.886 101.058C406.013 100.975 406.113 100.871 406.188 100.747C406.265 100.622 406.314 100.478 406.337 100.316C406.359 100.153 406.351 99.9735 406.315 99.7787ZM410.958 98.9114C411.009 99.1808 411.009 99.4375 410.96 99.6816C410.912 99.9237 410.821 100.142 410.685 100.335C410.551 100.529 410.377 100.693 410.162 100.828C409.947 100.962 409.698 101.056 409.415 101.109L407.997 101.374L407.308 97.6865L408.726 97.4217C409.009 97.3688 409.275 97.3665 409.524 97.4146C409.773 97.4627 409.995 97.5536 410.19 97.6872C410.387 97.8189 410.551 97.989 410.683 98.1975C410.816 98.4058 410.908 98.6437 410.958 98.9114ZM410.176 99.0576C410.139 98.8645 410.082 98.6956 410.002 98.5509C409.922 98.4062 409.825 98.2894 409.71 98.2003C409.596 98.1113 409.464 98.0508 409.316 98.0189C409.17 97.9866 409.01 97.9866 408.837 98.0189L408.187 98.1404L408.653 100.633L409.303 100.512C409.476 100.48 409.625 100.423 409.75 100.342C409.876 100.258 409.977 100.155 410.052 100.03C410.127 99.9039 410.175 99.759 410.197 99.5953C410.219 99.4317 410.212 99.2524 410.176 99.0576ZM412.631 100.508L411.863 100.652L411.174 96.9643L411.942 96.821L412.631 100.508Z" fill="#2F3449"/>
<path d="M393.161 110.042L394.022 109.881L394.022 110.136L392.84 110.357L392.818 107.816L393.139 107.756L393.161 110.042ZM394.23 109.09C394.229 108.885 394.267 108.699 394.345 108.531C394.425 108.361 394.534 108.22 394.672 108.109C394.812 107.997 394.969 107.926 395.143 107.893C395.312 107.861 395.459 107.872 395.583 107.924C395.707 107.976 395.801 108.054 395.864 108.156L395.861 107.792L396.186 107.731L396.205 109.729L395.88 109.789L395.88 109.417C395.817 109.546 395.722 109.661 395.598 109.762C395.472 109.861 395.326 109.926 395.159 109.957C395.009 109.985 394.87 109.978 394.743 109.936C394.615 109.892 394.508 109.816 394.423 109.707C394.337 109.599 394.279 109.466 394.25 109.309C394.236 109.238 394.23 109.165 394.23 109.09ZM395.872 108.787C395.872 108.735 395.867 108.682 395.856 108.625C395.824 108.453 395.747 108.328 395.625 108.248C395.505 108.166 395.367 108.14 395.209 108.169C395.089 108.192 394.979 108.241 394.879 108.318C394.781 108.395 394.704 108.495 394.646 108.618C394.589 108.74 394.561 108.877 394.562 109.028C394.562 109.079 394.567 109.134 394.578 109.193C394.611 109.367 394.687 109.495 394.807 109.577C394.927 109.657 395.065 109.682 395.223 109.653C395.343 109.63 395.452 109.581 395.55 109.504C395.649 109.425 395.728 109.324 395.785 109.201C395.844 109.075 395.873 108.937 395.872 108.787ZM397.527 107.448C397.694 107.416 397.841 107.427 397.968 107.479C398.094 107.53 398.188 107.608 398.249 107.711L398.246 107.346L398.571 107.286L398.591 109.327C398.593 109.509 398.556 109.678 398.481 109.833C398.408 109.99 398.302 110.122 398.164 110.228C398.025 110.335 397.863 110.405 397.677 110.44C397.423 110.487 397.211 110.464 397.04 110.369C396.869 110.277 396.767 110.128 396.733 109.922L397.054 109.862C397.091 109.977 397.163 110.061 397.273 110.113C397.385 110.168 397.519 110.181 397.675 110.152C397.851 110.119 397.995 110.035 398.106 109.9C398.217 109.764 398.271 109.593 398.269 109.387L398.264 108.968C398.201 109.097 398.106 109.212 397.982 109.313C397.859 109.414 397.715 109.48 397.548 109.511C397.397 109.539 397.258 109.532 397.131 109.49C397.003 109.446 396.896 109.37 396.807 109.262C396.721 109.154 396.664 109.021 396.634 108.863C396.621 108.793 396.615 108.72 396.615 108.644C396.614 108.44 396.652 108.254 396.73 108.086C396.81 107.915 396.919 107.774 397.056 107.663C397.196 107.552 397.353 107.48 397.527 107.448ZM398.257 108.341C398.257 108.29 398.252 108.236 398.241 108.18C398.209 108.008 398.132 107.882 398.01 107.803C397.89 107.721 397.751 107.694 397.594 107.724C397.474 107.746 397.364 107.796 397.264 107.873C397.166 107.95 397.088 108.049 397.031 108.172C396.974 108.295 396.945 108.432 396.947 108.582C396.947 108.633 396.952 108.688 396.963 108.747C396.996 108.921 397.072 109.049 397.192 109.132C397.312 109.212 397.45 109.237 397.608 109.207C397.728 109.185 397.837 109.135 397.934 109.059C398.034 108.979 398.112 108.878 398.17 108.756C398.229 108.63 398.258 108.492 398.257 108.341ZM399.989 109.055C399.826 109.085 399.677 109.079 399.54 109.036C399.405 108.991 399.292 108.915 399.201 108.808C399.11 108.698 399.05 108.563 399.02 108.403C398.979 108.184 398.992 107.975 399.059 107.775C399.126 107.573 399.238 107.402 399.395 107.263C399.554 107.124 399.743 107.034 399.961 106.993C400.124 106.963 400.274 106.97 400.411 107.015C400.55 107.057 400.666 107.133 400.757 107.242C400.85 107.349 400.911 107.484 400.942 107.646C400.982 107.865 400.968 108.075 400.898 108.275C400.829 108.476 400.714 108.645 400.555 108.785C400.396 108.924 400.207 109.014 399.989 109.055ZM399.977 108.776C400.13 108.747 400.26 108.68 400.367 108.575C400.473 108.468 400.548 108.339 400.59 108.19C400.635 108.038 400.643 107.883 400.613 107.726C400.58 107.547 400.503 107.42 400.381 107.345C400.26 107.268 400.122 107.244 399.966 107.273C399.813 107.302 399.685 107.37 399.581 107.477C399.476 107.581 399.404 107.709 399.364 107.861C399.324 108.012 399.319 108.167 399.349 108.327C399.381 108.501 399.456 108.627 399.573 108.705C399.689 108.781 399.824 108.804 399.977 108.776ZM402.076 108.665C401.874 108.703 401.699 108.685 401.552 108.613C401.404 108.541 401.316 108.424 401.285 108.261C401.28 108.231 401.277 108.208 401.276 108.194L401.59 108.135C401.6 108.238 401.645 108.315 401.725 108.365C401.807 108.416 401.914 108.429 402.046 108.404C402.178 108.379 402.279 108.335 402.35 108.271C402.422 108.203 402.45 108.124 402.433 108.032C402.419 107.955 402.374 107.9 402.3 107.867C402.226 107.835 402.116 107.805 401.969 107.779C401.841 107.757 401.734 107.733 401.649 107.708C401.564 107.682 401.488 107.639 401.421 107.579C401.353 107.516 401.309 107.429 401.288 107.319C401.268 107.21 401.28 107.108 401.326 107.012C401.374 106.915 401.448 106.835 401.551 106.769C401.655 106.701 401.779 106.654 401.922 106.627C402.12 106.59 402.291 106.609 402.437 106.684C402.582 106.759 402.67 106.877 402.7 107.037C402.706 107.067 402.709 107.091 402.71 107.108L402.403 107.165L402.398 107.122C402.381 107.028 402.33 106.961 402.247 106.92C402.166 106.877 402.067 106.866 401.949 106.888C401.834 106.91 401.743 106.953 401.678 107.019C401.615 107.085 401.591 107.161 401.607 107.248C401.623 107.33 401.669 107.389 401.746 107.423C401.823 107.457 401.938 107.489 402.092 107.519C402.221 107.543 402.326 107.569 402.406 107.595C402.486 107.619 402.558 107.661 402.623 107.719C402.687 107.778 402.729 107.859 402.749 107.962C402.77 108.075 402.754 108.18 402.702 108.278C402.652 108.375 402.572 108.457 402.463 108.523C402.353 108.59 402.225 108.637 402.076 108.665Z" fill="#90959B"/>
<path d="M349.133 104.063L349.03 103.516L350.052 103.325L350.63 106.416L350.019 106.53L349.544 103.986L349.133 104.063ZM351.428 104.573C351.118 104.479 350.934 104.278 350.876 103.97C350.848 103.817 350.86 103.672 350.913 103.533C350.968 103.391 351.067 103.269 351.209 103.166C351.353 103.06 351.538 102.986 351.764 102.944C351.99 102.902 352.188 102.904 352.358 102.952C352.53 102.995 352.666 103.074 352.766 103.187C352.868 103.296 352.934 103.428 352.962 103.58C352.991 103.736 352.979 103.88 352.925 104.013C352.87 104.143 352.785 104.253 352.67 104.341C352.838 104.38 352.978 104.456 353.09 104.57C353.202 104.684 353.275 104.83 353.308 105.008C353.344 105.2 353.326 105.377 353.254 105.54C353.184 105.699 353.072 105.833 352.916 105.941C352.761 106.049 352.577 106.123 352.365 106.162C352.153 106.202 351.955 106.199 351.771 106.155C351.59 106.11 351.437 106.026 351.312 105.903C351.189 105.777 351.109 105.617 351.073 105.425C351.04 105.247 351.055 105.085 351.119 104.938C351.181 104.789 351.284 104.667 351.428 104.573ZM352.402 103.773C352.376 103.634 352.313 103.535 352.214 103.474C352.118 103.413 351.998 103.396 351.854 103.423C351.712 103.45 351.606 103.509 351.536 103.601C351.468 103.693 351.447 103.809 351.474 103.95C351.498 104.078 351.559 104.172 351.658 104.232C351.76 104.292 351.879 104.309 352.014 104.284C352.15 104.259 352.255 104.2 352.328 104.107C352.401 104.011 352.425 103.9 352.402 103.773ZM352.095 104.716C351.934 104.747 351.81 104.812 351.724 104.913C351.64 105.014 351.613 105.14 351.641 105.293C351.668 105.434 351.737 105.541 351.85 105.613C351.966 105.683 352.107 105.702 352.273 105.67C352.44 105.639 352.563 105.57 352.642 105.461C352.722 105.353 352.748 105.229 352.722 105.091C352.694 104.941 352.623 104.834 352.509 104.771C352.394 104.704 352.256 104.686 352.095 104.716ZM354.277 105.766C354.17 105.786 354.075 105.77 353.992 105.718C353.911 105.663 353.862 105.586 353.843 105.487C353.825 105.388 353.843 105.3 353.899 105.222C353.957 105.141 354.04 105.09 354.147 105.07C354.252 105.051 354.344 105.069 354.425 105.124C354.505 105.176 354.554 105.252 354.573 105.351C354.591 105.45 354.573 105.539 354.518 105.62C354.462 105.698 354.382 105.746 354.277 105.766ZM353.949 104.01C353.842 104.03 353.747 104.014 353.664 103.963C353.583 103.907 353.534 103.83 353.515 103.731C353.497 103.633 353.516 103.544 353.571 103.467C353.629 103.385 353.712 103.335 353.819 103.315C353.924 103.295 354.017 103.313 354.097 103.368C354.177 103.421 354.226 103.496 354.245 103.595C354.263 103.694 354.245 103.784 354.19 103.864C354.134 103.942 354.054 103.991 353.949 104.01ZM354.638 103.311C354.599 103.026 354.658 102.79 354.813 102.603C354.97 102.412 355.2 102.289 355.503 102.232C355.709 102.194 355.893 102.198 356.053 102.244C356.214 102.287 356.342 102.364 356.439 102.475C356.538 102.582 356.602 102.713 356.631 102.869C356.664 103.047 356.646 103.207 356.576 103.349C356.508 103.487 356.414 103.589 356.295 103.655L356.298 103.672C356.472 103.693 356.616 103.759 356.731 103.873C356.848 103.985 356.926 104.143 356.964 104.347C356.996 104.516 356.984 104.675 356.93 104.823C356.879 104.97 356.784 105.096 356.645 105.201C356.509 105.302 356.335 105.373 356.123 105.412C355.804 105.472 355.529 105.44 355.298 105.316C355.067 105.193 354.917 104.975 354.847 104.663L355.423 104.556C355.455 104.693 355.522 104.796 355.626 104.864C355.732 104.929 355.862 104.947 356.018 104.918C356.162 104.892 356.265 104.831 356.326 104.738C356.39 104.641 356.41 104.529 356.386 104.402C356.355 104.232 356.278 104.121 356.157 104.067C356.036 104.014 355.862 104.008 355.636 104.051L355.513 104.074L355.422 103.586L355.545 103.563C355.947 103.488 356.122 103.316 356.072 103.048C356.049 102.926 355.995 102.838 355.909 102.784C355.825 102.73 355.716 102.715 355.58 102.74C355.447 102.765 355.351 102.821 355.291 102.908C355.234 102.992 355.21 103.09 355.219 103.203L354.638 103.311ZM357.297 103.53C357.206 103.041 357.222 102.641 357.345 102.332C357.472 102.021 357.74 101.828 358.15 101.751C358.559 101.675 358.878 101.759 359.105 102.003C359.335 102.247 359.495 102.613 359.587 103.102C359.679 103.594 359.662 103.996 359.536 104.31C359.413 104.622 359.146 104.817 358.736 104.893C358.327 104.97 358.006 104.885 357.776 104.638C357.549 104.391 357.389 104.022 357.297 103.53ZM359.002 103.211C358.962 103.002 358.916 102.83 358.861 102.694C358.809 102.554 358.733 102.447 358.634 102.372C358.538 102.296 358.411 102.273 358.253 102.303C358.094 102.332 357.983 102.4 357.917 102.506C357.855 102.611 357.823 102.738 357.822 102.888C357.823 103.034 357.843 103.211 357.882 103.42C357.922 103.635 357.969 103.814 358.022 103.956C358.074 104.096 358.15 104.203 358.249 104.278C358.347 104.35 358.475 104.372 358.634 104.342C358.792 104.313 358.904 104.246 358.969 104.143C359.034 104.038 359.066 103.91 359.065 103.761C359.063 103.61 359.042 103.426 359.002 103.211Z" fill="#2F3449"/>
<path d="M390.452 96.3443L390.35 95.7973L391.372 95.6064L391.949 98.6976L391.338 98.8116L390.863 96.2674L390.452 96.3443ZM393.06 97.5905C393.106 97.7106 393.175 97.7972 393.267 97.8503C393.361 97.9 393.476 97.9122 393.611 97.8868C393.787 97.8541 393.9 97.7582 393.953 97.5993C394.004 97.4375 393.998 97.1842 393.933 96.8393C393.885 96.9419 393.807 97.0297 393.697 97.1028C393.591 97.1753 393.47 97.2243 393.334 97.2496C393.153 97.2834 392.983 97.2773 392.822 97.2312C392.663 97.1818 392.528 97.0916 392.416 96.9604C392.303 96.8264 392.227 96.6534 392.187 96.4414C392.129 96.1276 392.175 95.8614 392.328 95.6428C392.479 95.4214 392.716 95.2806 393.039 95.2204C393.44 95.1454 393.747 95.2213 393.959 95.4479C394.174 95.674 394.329 96.0457 394.426 96.563C394.495 96.9305 394.518 97.2376 394.497 97.4844C394.479 97.7306 394.403 97.9291 394.27 98.0797C394.14 98.2297 393.943 98.3296 393.677 98.3792C393.468 98.4183 393.282 98.412 393.12 98.3603C392.958 98.3058 392.825 98.2209 392.722 98.1056C392.621 97.987 392.55 97.8496 392.509 97.6934L393.06 97.5905ZM393.367 96.7432C393.514 96.7158 393.621 96.6489 393.689 96.5426C393.757 96.4363 393.777 96.3068 393.748 96.1542C393.717 95.9874 393.648 95.8672 393.541 95.7937C393.436 95.7167 393.307 95.6925 393.154 95.7211C393.001 95.7496 392.889 95.8203 392.816 95.9333C392.746 96.043 392.726 96.1756 392.755 96.331C392.783 96.4809 392.848 96.5959 392.951 96.6762C393.056 96.7531 393.195 96.7755 393.367 96.7432ZM395.526 98.0601C395.419 98.0802 395.324 98.0643 395.241 98.0125C395.16 97.9573 395.111 97.8803 395.092 97.7813C395.074 97.6824 395.092 97.5941 395.148 97.5164C395.206 97.4354 395.289 97.3848 395.396 97.3647C395.501 97.3452 395.593 97.363 395.674 97.4182C395.754 97.4705 395.803 97.5462 395.822 97.6451C395.84 97.7441 395.822 97.8338 395.767 97.9143C395.711 97.992 395.631 98.0406 395.526 98.0601ZM395.198 96.3047C395.091 96.3247 394.996 96.3088 394.913 96.257C394.832 96.2019 394.783 96.1248 394.764 96.0259C394.746 95.9269 394.764 95.8386 394.82 95.7609C394.878 95.6799 394.961 95.6293 395.068 95.6093C395.173 95.5897 395.265 95.6075 395.346 95.6627C395.426 95.7151 395.475 95.7907 395.494 95.8896C395.512 95.9886 395.494 96.0783 395.439 96.1588C395.383 96.2365 395.303 96.2851 395.198 96.3047ZM395.887 95.6056C395.848 95.3202 395.907 95.0841 396.062 94.8971C396.219 94.7068 396.449 94.5834 396.752 94.5269C396.958 94.4883 397.142 94.4921 397.302 94.5381C397.463 94.5813 397.591 94.6583 397.688 94.7689C397.787 94.8762 397.851 95.0076 397.88 95.1631C397.913 95.3412 397.895 95.5011 397.825 95.6429C397.757 95.7814 397.663 95.8837 397.544 95.9499L397.547 95.9668C397.721 95.9871 397.865 96.0538 397.98 96.1669C398.097 96.2795 398.175 96.4376 398.213 96.6411C398.245 96.8107 398.233 96.9694 398.179 97.117C398.128 97.2641 398.033 97.3901 397.894 97.495C397.758 97.5964 397.584 97.667 397.372 97.7066C397.053 97.7662 396.777 97.7343 396.547 97.6106C396.316 97.487 396.165 97.2693 396.096 96.9576L396.672 96.8499C396.704 96.9874 396.771 97.0903 396.875 97.1588C396.981 97.2239 397.111 97.2419 397.267 97.2128C397.411 97.1859 397.514 97.1257 397.575 97.0323C397.639 96.9356 397.659 96.8236 397.635 96.6964C397.604 96.5268 397.527 96.4152 397.406 96.3618C397.285 96.3084 397.111 96.3028 396.885 96.345L396.762 96.368L396.671 95.8804L396.794 95.8574C397.195 95.7824 397.371 95.6106 397.321 95.3421C397.298 95.2205 397.244 95.1327 397.158 95.0786C397.074 95.0239 396.965 95.0093 396.829 95.0346C396.696 95.0595 396.6 95.1155 396.54 95.2027C396.483 95.2866 396.459 95.3847 396.468 95.497L395.887 95.6056ZM398.546 95.8242C398.455 95.3351 398.471 94.9357 398.594 94.626C398.721 94.3157 398.989 94.1222 399.399 94.0457C399.808 93.9691 400.127 94.053 400.354 94.2973C400.584 94.541 400.744 94.9074 400.836 95.3965C400.928 95.8884 400.911 96.2909 400.785 96.604C400.662 96.9166 400.395 97.1112 399.985 97.1877C399.576 97.2643 399.255 97.1793 399.025 96.9327C398.797 96.6856 398.638 96.3161 398.546 95.8242ZM400.25 95.5058C400.211 95.2966 400.165 95.124 400.11 94.9879C400.058 94.8485 399.982 94.7412 399.883 94.6661C399.787 94.5904 399.66 94.5673 399.501 94.5969C399.343 94.6265 399.231 94.6941 399.166 94.7999C399.104 94.9052 399.072 95.0325 399.071 95.182C399.072 95.3281 399.092 95.5057 399.131 95.7149C399.171 95.9297 399.218 96.1083 399.271 96.2505C399.323 96.3899 399.399 96.4972 399.497 96.5724C399.596 96.6447 399.724 96.6661 399.882 96.6365C400.041 96.6069 400.153 96.5407 400.218 96.4377C400.283 96.3319 400.315 96.2046 400.314 96.0557C400.312 95.9039 400.291 95.7206 400.25 95.5058Z" fill="#2F3449"/>
<path d="M351.337 62.2993C351.414 62.7115 351.416 63.1069 351.342 63.4856C351.27 63.8637 351.131 64.2049 350.925 64.5089C350.722 64.8125 350.456 65.0713 350.129 65.2854C349.801 65.4969 349.42 65.6431 348.987 65.7239C348.554 65.8048 348.147 65.8058 347.765 65.727C347.382 65.6456 347.04 65.5003 346.738 65.2911C346.436 65.0819 346.182 64.8142 345.976 64.4878C345.773 64.1609 345.633 63.7914 345.556 63.3793C345.479 62.9671 345.476 62.5732 345.548 62.1977C345.622 61.819 345.762 61.4776 345.969 61.1736C346.175 60.8695 346.442 60.6117 346.77 60.4002C347.097 60.1861 347.477 60.0387 347.91 59.9578C348.343 59.877 348.751 59.8772 349.134 59.9587C349.516 60.0375 349.857 60.183 350.157 60.3953C350.459 60.6044 350.711 60.8725 350.915 61.1993C351.12 61.5231 351.261 61.8898 351.337 62.2993ZM350.144 62.5223C350.088 62.2268 350 61.9697 349.879 61.7509C349.757 61.5295 349.607 61.351 349.429 61.2153C349.253 61.0765 349.052 60.984 348.826 60.9377C348.602 60.8883 348.358 60.8882 348.093 60.9376C347.829 60.987 347.6 61.0754 347.406 61.2027C347.212 61.3275 347.057 61.4866 346.94 61.6801C346.826 61.8705 346.751 62.0909 346.718 62.3413C346.684 62.5892 346.694 62.8608 346.749 63.1563C346.805 63.4544 346.894 63.7141 347.016 63.9355C347.137 64.1542 347.285 64.3317 347.461 64.4679C347.639 64.6036 347.842 64.6959 348.068 64.7448C348.294 64.7912 348.539 64.7896 348.804 64.7402C349.068 64.6909 349.296 64.604 349.487 64.4798C349.681 64.3524 349.835 64.1935 349.949 64.0031C350.067 63.8122 350.142 63.5929 350.177 63.345C350.21 63.0946 350.199 62.8204 350.144 62.5223ZM356.496 58.4186L357.549 64.0603L356.947 64.1729C356.856 64.1898 356.777 64.1898 356.709 64.1729C356.641 64.1535 356.571 64.113 356.498 64.0516L353.018 60.9995C353.043 61.0888 353.065 61.1773 353.084 61.2649C353.106 61.3521 353.123 61.4332 353.137 61.5084L353.747 64.7706L352.716 64.963L351.663 59.3213L352.277 59.2066C352.326 59.1974 352.368 59.1922 352.403 59.1911C352.44 59.1869 352.474 59.1899 352.505 59.2002C352.536 59.2078 352.567 59.2209 352.597 59.2394C352.627 59.2578 352.662 59.2836 352.7 59.3167L356.202 62.3806C356.173 62.2841 356.147 62.1909 356.125 62.1012C356.103 62.0088 356.084 61.9212 356.068 61.8382L355.465 58.6111L356.496 58.4186ZM361.901 62.2656L362.079 63.2143L358.731 63.8396L357.677 58.1979L358.844 57.98L359.72 62.673L361.901 62.2656ZM363.968 62.8614L362.794 63.0807L361.74 57.439L362.914 57.2197L363.968 62.8614ZM368.927 56.0966L369.981 61.7383L369.378 61.8509C369.287 61.8678 369.208 61.8679 369.141 61.851C369.073 61.8315 369.002 61.791 368.929 61.7296L365.45 58.6775C365.474 58.7668 365.496 58.8553 365.515 58.9429C365.537 59.0301 365.555 59.1112 365.569 59.1864L366.178 62.4486L365.148 62.641L364.094 56.9993L364.708 56.8846C364.758 56.8754 364.8 56.8702 364.834 56.8691C364.871 56.8649 364.905 56.868 364.937 56.8782C364.968 56.8858 364.998 56.8989 365.028 56.9174C365.059 56.9359 365.093 56.9616 365.131 56.9947L368.633 60.0586C368.604 59.9621 368.579 59.8689 368.557 59.7792C368.534 59.6868 368.515 59.5992 368.499 59.5162L367.897 56.2891L368.927 56.0966ZM371.453 56.5703L371.724 58.0206L373.606 57.6691L373.771 58.5517L371.889 58.9032L372.166 60.3846L374.584 59.9329L374.755 60.8466L371.162 61.5176L370.109 55.8759L373.701 55.2049L373.872 56.1186L371.453 56.5703ZM378.743 55.237L377.094 55.5449L377.972 60.2457L376.802 60.4643L375.924 55.7635L374.275 56.0714L374.1 55.1305L378.567 54.296L378.743 55.237ZM381.495 59.5877L380.321 59.807L379.267 54.1653L380.441 53.946L381.495 59.5877ZM386.257 57.2617C386.322 57.2496 386.381 57.2627 386.433 57.3012L386.988 57.7085C386.815 58.0414 386.572 58.3148 386.26 58.5286C385.951 58.7418 385.564 58.8921 385.097 58.9792C384.675 59.0581 384.282 59.0578 383.918 58.9781C383.554 58.8959 383.23 58.7485 382.946 58.536C382.662 58.3234 382.424 58.0527 382.231 57.7239C382.038 57.3951 381.903 57.0221 381.825 56.6047C381.773 56.3248 381.753 56.0535 381.765 55.791C381.78 55.5253 381.826 55.2753 381.903 55.041C381.98 54.8067 382.084 54.5887 382.215 54.3871C382.349 54.1851 382.509 54.005 382.694 53.8471C382.879 53.6865 383.087 53.5524 383.319 53.4446C383.553 53.3338 383.809 53.2525 384.086 53.2007C384.294 53.162 384.493 53.1436 384.684 53.1455C384.877 53.1469 385.06 53.165 385.233 53.1998C385.406 53.2346 385.568 53.2861 385.72 53.3542C385.875 53.4193 386.017 53.4961 386.146 53.5846L385.853 54.1945C385.836 54.2326 385.812 54.268 385.781 54.3007C385.749 54.3334 385.702 54.3555 385.64 54.3671C385.578 54.3788 385.51 54.3686 385.437 54.3366C385.367 54.3042 385.28 54.2695 385.176 54.2324C385.075 54.195 384.951 54.1673 384.803 54.1493C384.657 54.1309 384.478 54.1416 384.265 54.1813C384.029 54.2253 383.821 54.3085 383.64 54.4309C383.459 54.5532 383.312 54.7093 383.2 54.8993C383.09 55.0861 383.019 55.3048 382.985 55.5552C382.951 55.8056 382.962 56.0811 383.019 56.3818C383.075 56.6851 383.167 56.9482 383.295 57.1712C383.424 57.3911 383.577 57.5691 383.753 57.7053C383.931 57.841 384.125 57.9335 384.336 57.9827C384.548 58.0289 384.766 58.0311 384.989 57.9895C385.121 57.9648 385.239 57.936 385.343 57.9032C385.449 57.8699 385.545 57.8293 385.63 57.7812C385.717 57.7327 385.797 57.6763 385.868 57.612C385.942 57.5473 386.013 57.4696 386.082 57.3789C386.106 57.3503 386.132 57.3252 386.16 57.3039C386.189 57.2825 386.221 57.2684 386.257 57.2617ZM388.349 54.8792L388.578 54.8364C388.77 54.8006 388.897 54.715 388.961 54.5798L390.031 52.4042C390.081 52.3009 390.144 52.2249 390.218 52.1762C390.291 52.1249 390.386 52.0884 390.503 52.0666L391.514 51.8777L390.15 54.5267C390.061 54.6988 389.961 54.8289 389.848 54.917C389.946 54.9363 390.037 54.969 390.12 55.0151C390.203 55.0585 390.288 55.1219 390.373 55.2053L392.708 57.4933L391.67 57.6872C391.602 57.6998 391.543 57.7055 391.492 57.7043C391.443 57.7027 391.399 57.6962 391.359 57.6848C391.32 57.6734 391.284 57.6572 391.254 57.6361C391.222 57.6125 391.192 57.5847 391.162 57.5527L389.332 55.794C389.27 55.7332 389.202 55.6949 389.13 55.6789C389.056 55.6604 388.959 55.6625 388.837 55.6853L388.511 55.7463L388.967 58.1919L387.801 58.4098L386.747 52.7681L387.914 52.5502L388.349 54.8792ZM393.499 52.4526L393.77 53.9029L395.652 53.5514L395.817 54.434L393.935 54.7855L394.211 56.2668L396.63 55.8151L396.8 56.7288L393.208 57.3999L392.154 51.7582L395.747 51.0871L395.917 52.0009L393.499 52.4526ZM400.788 51.1192L399.14 51.4271L400.018 56.1279L398.847 56.3465L397.969 51.6457L396.321 51.9537L396.145 51.0127L400.612 50.1783L400.788 51.1192Z" fill="#704F00"/>
<path d="M639.041 -6.13721C639.041 49.4696 593.963 94.5479 538.356 94.5479C482.749 94.5479 437.671 49.4696 437.671 -6.13721C437.671 -61.744 482.749 -106.822 538.356 -106.822C593.963 -106.822 639.041 -61.744 639.041 -6.13721ZM481.093 -6.13721C481.093 25.4881 506.731 51.1254 538.356 51.1254C569.981 51.1254 595.619 25.4881 595.619 -6.13721C595.619 -37.7625 569.981 -63.3998 538.356 -63.3998C506.731 -63.3998 481.093 -37.7625 481.093 -6.13721Z" fill="#47C75F" fill-opacity="0.78"/>
</g>
<defs>
<clipPath id="clip0_490_15024">
<rect x="0.791016" width="597.536" height="299.795" rx="12.3203" fill="white"/>
</clipPath>
</defs>
</svg>
