<svg width="84" height="83" viewBox="0 0 84 83" fill="none" xmlns="http://www.w3.org/2000/svg">
<g clip-path="url(#clip0_226_12559)">
<path d="M17.1549 8.53711H8.91406V16.7779H17.1549V8.53711Z" fill="#E8FFED"/>
<path d="M58.3587 0.295898V4.4163H54.2383V8.53669H58.3587V25.0183H62.4791V29.1387H58.3587V33.2591H62.4791H66.5995V25.0183H78.9607V29.1387H83.0811V25.0183V0.295898H58.3587ZM78.9607 20.8979H62.4791V4.4163H78.9607V20.8979Z" fill="#E8FFED"/>
<path d="M74.8424 8.53711H66.6016V16.7779H74.8424V8.53711Z" fill="#E8FFED"/>
<path d="M17.1549 66.2227H8.91406V74.4634H17.1549V66.2227Z" fill="#E8FFED"/>
<path d="M62.4798 57.9814H58.3594V62.1018H62.4798V57.9814Z" fill="#E8FFED"/>
<path d="M41.8782 78.584H37.7578V82.7044H41.8782V78.584Z" fill="#E8FFED"/>
<path d="M45.9993 62.1016H41.8789V66.222H45.9993V62.1016Z" fill="#E8FFED"/>
<path d="M45.9974 70.3428H41.877V74.4632H45.9974V70.3428Z" fill="#E8FFED"/>
<path d="M83.0813 49.7402H78.9609V53.8606H83.0813V49.7402Z" fill="#E8FFED"/>
<path d="M4.79423 49.7402H0.673828V53.8606H4.79423V49.7402Z" fill="#E8FFED"/>
<path d="M4.79423 29.1387H0.673828V33.2591H4.79423V29.1387Z" fill="#E8FFED"/>
<path d="M45.9986 4.41602V8.53641H37.7578V12.6568H50.119V8.53641V4.41602H45.9986Z" fill="#E8FFED"/>
<path d="M78.9604 33.2588V37.3792H70.7196V41.4996H58.3584V37.3792H54.238V41.4996H45.9972V45.62H58.3584V49.7404H50.1176H45.9972V45.62H41.8768V49.7404H37.7564V45.62H33.636V49.7404H29.5156V53.8608H37.7564V57.9812H41.8768V53.8608H50.1176V57.9812H45.9972V62.1016H50.1176V70.3424H54.238V74.4628H58.3584V70.3424H70.7196V62.1016H74.84V57.9812H70.7196V49.7404H62.4788V45.62H70.7196V49.7404H74.84V45.62H78.9604V41.4996H83.0808V37.3792V33.2588H78.9604ZM66.5992 53.8608V66.222H54.238V53.8608H66.5992Z" fill="#E8FFED"/>
<path d="M54.2388 25.0186H50.1184V29.139H45.998V33.2594V37.3797H50.1184V33.2594H54.2388V29.139H58.3592V25.0186H54.2388Z" fill="#E8FFED"/>
<path d="M54.2388 78.584H45.998V82.7044H54.2388V78.584Z" fill="#E8FFED"/>
<path d="M37.7571 4.41602H33.6367V8.53641H37.7571V4.41602Z" fill="#E8FFED"/>
<path d="M70.722 33.2588H66.6016V37.3792H70.722V33.2588Z" fill="#E8FFED"/>
<path d="M74.8411 29.1387H70.7207V33.2591H74.8411V29.1387Z" fill="#E8FFED"/>
<path d="M21.2766 49.7402H17.1562V53.8606H21.2766V49.7402Z" fill="#E8FFED"/>
<path d="M25.3962 78.5837V62.1021H29.5166V57.9817V53.8613H25.3962V57.9817H13.035V53.8613H8.91462H4.79423V57.9817H0.673828V82.7041H25.3962H33.637V78.5837H25.3962ZM21.2758 78.5837H4.79423V62.1021H21.2758V78.5837Z" fill="#E8FFED"/>
<path d="M29.5169 25.0186H25.3965V29.139H29.5169V25.0186Z" fill="#E8FFED"/>
<path d="M29.5166 0.295898H25.3962H0.673828V25.0183H4.79423V29.1387H8.91462V25.0183H13.035V29.1387H17.1554V25.0183H25.3962V16.7775H29.5166V12.6571H25.3962V4.4163H29.5166H33.637V0.295898H29.5166ZM21.2758 20.8979H4.79423V4.4163H21.2758V20.8979Z" fill="#E8FFED"/>
<path d="M54.2376 12.6572H50.1172V16.7776H54.2376V12.6572Z" fill="#E8FFED"/>
<path d="M45.9974 0.295898H41.877V4.4163H45.9974V0.295898Z" fill="#E8FFED"/>
<path d="M50.1186 25.0181V20.8977H45.9982V16.7773H41.8778V20.8977H33.637V16.7773H29.5166V20.8977V25.0181H33.637V33.2589H21.2758V29.1385H17.1554V33.2589H4.79423V37.3793H13.035V41.4997H0.673828V45.6201H13.035V49.7405H17.1554V45.6201H21.2758V49.7405H25.3962V45.6201H33.637V41.4997H29.5166V37.3793H33.637H37.7574V41.4997H41.8778H45.9982V37.3793H41.8778V33.2589H37.7574V25.0181H50.1186ZM25.3962 41.4997H17.1554V37.3793H25.3962V41.4997Z" fill="#E8FFED"/>
<path d="M37.7564 66.2222V62.1018V57.9814H33.636V62.1018H29.5156V66.2222H33.636V70.3426H29.5156V74.463H37.7564V70.3426H41.8768V66.2222H37.7564Z" fill="#E8FFED"/>
<path d="M74.841 74.4632V70.3428H70.7206V74.4632H58.3594V78.5836H66.6002V82.704H70.7206V78.5836H78.9614V82.704H83.0818V78.5836V74.4632H74.841Z" fill="#E8FFED"/>
<path d="M78.9602 57.9814V62.1018H74.8398V66.2222H83.0806V62.1018V57.9814H78.9602Z" fill="#E8FFED"/>
</g>
<defs>
<clipPath id="clip0_226_12559">
<rect width="82.408" height="82.408" fill="white" transform="translate(0.673828 0.295898)"/>
</clipPath>
</defs>
</svg>
