<svg width="26" height="26" viewBox="0 0 26 26" fill="none" xmlns="http://www.w3.org/2000/svg">
<path d="M14.5135 0.120117C15.9197 0.123867 16.6334 0.131367 17.2496 0.148866L17.4921 0.157616C17.7721 0.167616 18.0484 0.180116 18.3821 0.195115C19.712 0.257614 20.6195 0.467609 21.4157 0.776351C22.2406 1.09384 22.9356 1.52383 23.6306 2.21757C24.2664 2.84222 24.7582 3.59812 25.0717 4.43251C25.3805 5.22874 25.5905 6.13622 25.653 7.46744C25.668 7.79993 25.6805 8.07617 25.6905 8.35742L25.698 8.59991C25.7167 9.2149 25.7242 9.92863 25.7267 11.3348L25.728 12.2673V13.9048C25.731 14.8165 25.7214 15.7282 25.6992 16.6397L25.6917 16.8822C25.6817 17.1635 25.6692 17.4397 25.6542 17.7722C25.5917 19.1034 25.3792 20.0096 25.0717 20.8071C24.7582 21.6415 24.2664 22.3974 23.6306 23.0221C23.0059 23.6579 22.25 24.1498 21.4157 24.4633C20.6195 24.772 19.712 24.982 18.3821 25.0445L17.4921 25.082L17.2496 25.0895C16.6334 25.107 15.9197 25.1158 14.5135 25.1183L13.5811 25.1195H11.9449C11.0328 25.1227 10.1207 25.1131 9.2088 25.0908L8.96631 25.0833C8.66959 25.072 8.37293 25.0591 8.07636 25.0445C6.74642 24.982 5.83897 24.772 5.04151 24.4633C4.20759 24.1496 3.45214 23.6578 2.82787 23.0221C2.19158 22.3975 1.69931 21.6416 1.38544 20.8071C1.07671 20.0109 0.86672 19.1034 0.804223 17.7722L0.766725 16.8822L0.760475 16.6397C0.737434 15.7283 0.727017 14.8165 0.729227 13.9048V11.3348C0.725767 10.4231 0.734934 9.51139 0.756725 8.59991L0.765475 8.35742C0.775474 8.07617 0.787974 7.79993 0.802973 7.46744C0.86547 6.13622 1.07546 5.22999 1.38419 4.43251C1.6988 3.59778 2.19193 2.84185 2.82912 2.21757C3.45303 1.58202 4.20804 1.09019 5.04151 0.776351C5.83897 0.467609 6.74517 0.257614 8.07636 0.195115C8.40884 0.180116 8.68633 0.167616 8.96631 0.157616L9.2088 0.150116C10.1202 0.127908 11.032 0.118324 11.9437 0.121367L14.5135 0.120117ZM13.2286 6.36997C11.5711 6.36997 9.98145 7.02843 8.8094 8.2005C7.63736 9.37258 6.97891 10.9623 6.97891 12.6198C6.97891 14.2774 7.63736 15.8671 8.8094 17.0391C9.98145 18.2112 11.5711 18.8697 13.2286 18.8697C14.8861 18.8697 16.4757 18.2112 17.6478 17.0391C18.8198 15.8671 19.4783 14.2774 19.4783 12.6198C19.4783 10.9623 18.8198 9.37258 17.6478 8.2005C16.4757 7.02843 14.8861 6.36997 13.2286 6.36997ZM13.2286 8.86991C13.721 8.86982 14.2087 8.96674 14.6636 9.15511C15.1186 9.34349 15.532 9.61963 15.8803 9.96779C16.2286 10.3159 16.5048 10.7293 16.6934 11.1842C16.8819 11.6391 16.9789 12.1267 16.979 12.6192C16.9791 13.1116 16.8822 13.5993 16.6938 14.0543C16.5055 14.5093 16.2293 14.9227 15.8812 15.271C15.533 15.6192 15.1197 15.8955 14.6648 16.084C14.2099 16.2726 13.7223 16.3696 13.2298 16.3697C12.2353 16.3697 11.2816 15.9746 10.5783 15.2714C9.8751 14.5682 9.48004 13.6144 9.48004 12.6198C9.48004 11.6253 9.8751 10.6715 10.5783 9.96823C11.2816 9.26498 12.2353 8.86991 13.2298 8.86991M19.792 4.49501C19.3776 4.49501 18.9802 4.65963 18.6872 4.95265C18.3942 5.24566 18.2296 5.64308 18.2296 6.05747C18.2296 6.47186 18.3942 6.86928 18.6872 7.1623C18.9802 7.45532 19.3776 7.61994 19.792 7.61994C20.2064 7.61994 20.6038 7.45532 20.8968 7.1623C21.1898 6.86928 21.3544 6.47186 21.3544 6.05747C21.3544 5.64308 21.1898 5.24566 20.8968 4.95265C20.6038 4.65963 20.2064 4.49501 19.792 4.49501Z" fill="#00440C"/>
</svg>
