<svg width="26" height="26" viewBox="0 0 26 26" fill="none" xmlns="http://www.w3.org/2000/svg">
<path d="M24.3396 0.120117H2.1174C1.74905 0.120117 1.39578 0.266446 1.13531 0.526913C0.874845 0.78738 0.728516 1.14065 0.728516 1.50901V23.7312C0.728516 24.0996 0.874845 24.4529 1.13531 24.7133C1.39578 24.9738 1.74905 25.1201 2.1174 25.1201H14.0827V15.4535H10.8355V11.6687H14.0827V8.89095C14.0827 5.66178 16.0549 3.90206 18.9438 3.90206C19.9146 3.89928 20.8868 3.94928 21.8535 4.05067V7.41178H19.8605C18.2938 7.41178 17.9882 8.15901 17.9882 9.25206V11.6618H21.7341L21.248 15.4465H17.9868V25.1201H24.3396C24.708 25.1201 25.0613 24.9738 25.3217 24.7133C25.5822 24.4529 25.7285 24.0996 25.7285 23.7312V1.50901C25.7285 1.14065 25.5822 0.78738 25.3217 0.526913C25.0613 0.266446 24.708 0.120117 24.3396 0.120117Z" fill="#00440C"/>
</svg>
