<svg width="302" height="230" viewBox="0 0 302 230" fill="none" xmlns="http://www.w3.org/2000/svg">
<path fill-rule="evenodd" clip-rule="evenodd" d="M92.9025 8.16016C90.0439 8.16016 87.7266 10.4775 87.7266 13.3361L87.7266 147.098C103.893 143.151 122.29 140.834 142.9 140.834C171.222 140.834 194.771 143.619 214.273 148.202L214.273 13.3361C214.273 10.4775 211.956 8.16016 209.097 8.16016H92.9025Z" fill="url(#paint0_linear_2219_9626)"/>
<rect opacity="0.800525" x="95.6328" y="16.0654" width="110.728" height="139.175" rx="5.17598" fill="url(#paint1_linear_2219_9626)"/>
<rect x="103.189" y="26.9619" width="94.9101" height="61.6799" fill="url(#paint2_linear_2219_9626)"/>
<rect x="103.543" y="98.3057" width="94.9101" height="9.48922" fill="url(#paint3_linear_2219_9626)"/>
<rect x="103.543" y="120.447" width="94.9101" height="9.48922" fill="url(#paint4_linear_2219_9626)"/>
<path d="M133.846 0.250977H168.156L173.147 6.57712H128.855L133.846 0.250977Z" fill="#D0D6DC"/>
<path fill-rule="evenodd" clip-rule="evenodd" d="M174.319 101.47C176.237 101.516 177.989 100.412 178.743 98.6853C179.497 96.9579 179.1 94.9556 177.741 93.6297L165.763 81.8687C163.929 80.0737 160.956 80.0737 159.123 81.8687C157.29 83.6636 157.29 86.5741 159.123 88.369L171.136 100.097C171.976 100.94 173.116 101.432 174.319 101.47Z" fill="#868C93"/>
<path fill-rule="evenodd" clip-rule="evenodd" d="M129.512 83.7076C121.793 76.0297 120.68 64.0767 126.853 55.1555C133.026 46.2343 144.767 42.8277 154.9 47.0183C165.032 51.209 170.735 61.8305 168.522 72.3898C166.31 82.949 156.798 90.5073 145.801 90.4444C139.674 90.4056 133.815 87.9821 129.512 83.7076Z" fill="#939AA0"/>
<path fill-rule="evenodd" clip-rule="evenodd" d="M132.571 54.7717C125.28 61.931 125.287 73.5275 132.587 80.6785C139.886 87.8295 151.717 87.8295 159.016 80.6785C166.316 73.5275 166.323 61.931 159.032 54.7717C151.721 47.6191 139.882 47.6191 132.571 54.7717Z" fill="white"/>
<mask id="mask0_2219_9626" style="mask-type:luminance" maskUnits="userSpaceOnUse" x="127" y="49" width="38" height="38">
<path fill-rule="evenodd" clip-rule="evenodd" d="M132.571 54.7717C125.28 61.931 125.287 73.5275 132.587 80.6785C139.886 87.8295 151.717 87.8295 159.016 80.6785C166.316 73.5275 166.323 61.931 159.032 54.7717C151.721 47.6191 139.882 47.6191 132.571 54.7717Z" fill="white"/>
</mask>
<g mask="url(#mask0_2219_9626)">
<path d="M162.748 54.4116C162.748 72.1794 154.092 85.9037 141.714 93.6542C129.336 101.405 164.482 88.6419 164.482 88.6419L171.427 64.1889C171.427 64.1889 162.748 36.6438 162.748 54.4116Z" fill="url(#paint5_linear_2219_9626)"/>
</g>
<path d="M300.197 227.005C307.454 212.643 286.713 140.833 142.897 140.833C39.0915 140.833 -8.55253 199.611 1.98062 229.399L300.197 227.005Z" fill="url(#paint6_radial_2219_9626)"/>
<mask id="mask1_2219_9626" style="mask-type:luminance" maskUnits="userSpaceOnUse" x="0" y="140" width="302" height="90">
<path d="M300.197 227.005C307.454 212.643 286.713 140.833 142.897 140.833C39.0915 140.833 -8.55253 199.611 1.98062 229.399L300.197 227.005Z" fill="white"/>
</mask>
<g mask="url(#mask1_2219_9626)">
<ellipse opacity="0.671968" cx="133.599" cy="157.879" rx="7.90918" ry="4.39316" fill="url(#paint7_linear_2219_9626)"/>
<ellipse opacity="0.729957" cx="201.44" cy="174.397" rx="12.4789" ry="6.85333" fill="url(#paint8_linear_2219_9626)"/>
<ellipse opacity="0.729957" cx="59.4281" cy="156.12" rx="12.4789" ry="6.85333" fill="url(#paint9_linear_2219_9626)"/>
</g>
<path d="M201.217 154.62L228.177 165.157L234.368 156.299L207.244 149.991L201.217 154.62Z" fill="url(#paint10_linear_2219_9626)"/>
<path d="M199.749 109.502L218.271 110.962L214.158 151.25C214.158 151.25 213.798 151.653 212.924 151.497C212.05 151.34 211.133 150.854 211.133 150.854L208.379 118.826C208.379 118.826 206.785 130.151 206.897 133.337C206.981 135.738 207.801 138.666 208.241 141.171C208.619 143.327 209.414 148.479 209.414 148.479C209.414 148.479 208.474 148.908 207.974 149.005C207.474 149.102 206.834 148.569 206.834 148.569C206.834 148.569 200.34 135.963 200.256 133.569C200.172 131.175 199.749 109.502 199.749 109.502Z" fill="url(#paint11_linear_2219_9626)"/>
<path d="M206.546 148.51C206.546 148.51 205.721 149.995 204.696 150.901C203.671 151.806 201.649 152.888 201.188 153.379C200.727 153.871 201.23 154.595 201.23 154.595L206.187 154.422L210.147 151.071L209.594 147.878L206.546 148.51Z" fill="#677285"/>
<path d="M214.625 150.231L215.782 153.44C215.782 153.44 213.882 154.911 211.256 155.321C208.631 155.73 206.822 155.101 206.822 155.101C206.822 155.101 206.348 154.146 207.241 153.738C207.652 153.551 208.571 152.771 209.379 151.773C209.743 151.323 211.116 150.353 211.116 150.353L214.625 150.231Z" fill="#677285"/>
<path d="M222.919 88.498C222.919 88.498 224.437 90.8073 225.368 90.1894C226.299 89.5715 232.11 83.6153 232.11 83.6153C232.11 83.6153 233.838 82.2844 234.158 82.6008C234.478 82.9172 233.582 83.6153 233.582 83.6153C233.582 83.6153 235.468 83.8005 236.057 83.8005C236.647 83.8005 237.886 84.7416 237.076 85.0582C236.265 85.3749 233.121 85.4531 233.121 85.4531C233.121 85.4531 228.346 94.4814 225.859 95.1216C223.371 95.7617 219.943 92.1412 219.943 92.1412L222.919 88.498Z" fill="#FDE7E6"/>
<path d="M198.666 88.6636C198.666 88.6636 197.67 90.7016 196.768 90.2127C195.866 89.7237 190.805 84.3866 190.805 84.3866C190.805 84.3866 189.12 83.3543 188.708 83.54C188.296 83.7258 189.312 84.3866 189.312 84.3866C189.312 84.3866 186.832 84.5878 186.366 84.7752C185.899 84.9627 185.356 85.5377 186.061 85.7991C186.767 86.0604 189.466 86.2463 189.466 86.2463C189.466 86.2463 193.219 93.6626 196.063 94.5298C198.906 95.397 201.329 91.9801 201.329 91.9801L198.666 88.6636Z" fill="#FDE7E6"/>
<path d="M207.871 82.4207V78.777C207.871 78.777 205.982 78.8727 205.214 77.6076C204.446 76.3425 204.238 72.7526 204.238 72.7526L204.817 71.0881L210.507 70.8477L213.497 73.3952L212.105 75.8536L211.839 76.326L213.166 81.9132L207.871 82.4207Z" fill="#FDE7E6"/>
<mask id="mask2_2219_9626" style="mask-type:luminance" maskUnits="userSpaceOnUse" x="204" y="70" width="10" height="13">
<path d="M207.871 82.4207V78.777C207.871 78.777 205.982 78.8727 205.214 77.6076C204.446 76.3425 204.238 72.7526 204.238 72.7526L204.817 71.0881L210.507 70.8477L213.497 73.3952L212.105 75.8536L211.839 76.326L213.166 81.9132L207.871 82.4207Z" fill="white"/>
</mask>
<g mask="url(#mask2_2219_9626)">
<path d="M211.572 75.3151C209.89 77.4065 206.981 78.8683 206.603 78.8683C206.224 78.8683 208.718 81.4914 208.718 81.4914L210.746 82.4215L213.626 81.811L214.654 78.8683L212.839 75.5295C212.839 75.5295 213.253 73.2236 211.572 75.3151Z" fill="url(#paint12_linear_2219_9626)"/>
</g>
<path d="M197.455 90.1261L200.251 93.8928L202.035 92.0095C202.035 92.0095 200.678 99.4464 200.251 103.013C199.824 106.58 199.745 110.133 199.745 110.133C199.745 110.133 204.223 111.795 207.56 112.075C210.898 112.354 218.669 111.634 218.669 111.634L217.666 90.6997L220.576 93.4016L223.993 89.4559C223.993 89.4559 218.111 80.4159 216.998 79.8893C215.886 79.3627 212.794 79.8893 212.794 79.8893C212.794 79.8893 210.599 82.4861 209.709 82.5224C208.82 82.5586 206.846 79.8893 206.846 79.8893C206.846 79.8893 203.692 79.3856 202.775 80.4159C201.858 81.4462 197.455 90.1261 197.455 90.1261Z" fill="url(#paint13_linear_2219_9626)"/>
<path d="M204.24 72.7942C204.24 72.7942 204.91 71.102 205.786 71.3969C206.614 71.6759 207.332 72.3398 208.362 72.6515C209.393 72.9632 209.507 71.5631 210.207 71.7995C210.908 72.0359 210.445 74.0956 210.939 74.4791C211.433 74.8627 211.433 71.7995 212.485 72.6241C213.537 73.4488 211.387 75.7699 211.387 75.7699C211.387 75.7699 211.663 77.1966 211.751 77.2936C211.839 77.3906 211.829 76.2557 211.829 76.2557C211.829 76.2557 212.834 75.8699 213.263 74.1298C213.691 72.3898 213.876 71.697 213.263 70.4327C212.649 69.1684 212.474 68.1782 210.939 67.5818C209.404 66.9854 208.239 67.2187 207.166 67.5818C206.092 67.945 205.315 68.6665 204.818 69.3845C203.661 71.0889 204.24 72.7942 204.24 72.7942Z" fill="#4D364F"/>
<defs>
<linearGradient id="paint0_linear_2219_9626" x1="171.976" y1="137.683" x2="171.976" y2="95.8402" gradientUnits="userSpaceOnUse">
<stop stop-color="#F7F7F7"/>
<stop offset="1" stop-color="#E8EAEB"/>
</linearGradient>
<linearGradient id="paint1_linear_2219_9626" x1="95.6328" y1="16.0654" x2="95.6328" y2="155.241" gradientUnits="userSpaceOnUse">
<stop stop-color="white"/>
<stop offset="0.746404" stop-color="white"/>
<stop offset="1" stop-color="white" stop-opacity="0.697577"/>
</linearGradient>
<linearGradient id="paint2_linear_2219_9626" x1="103.189" y1="26.9619" x2="103.189" y2="88.6419" gradientUnits="userSpaceOnUse">
<stop stop-color="#E8EAEB"/>
<stop offset="1" stop-color="#F0F1F1"/>
</linearGradient>
<linearGradient id="paint3_linear_2219_9626" x1="103.543" y1="98.3057" x2="103.543" y2="107.795" gradientUnits="userSpaceOnUse">
<stop stop-color="#EAECEC"/>
<stop offset="1" stop-color="#F0F1F1"/>
</linearGradient>
<linearGradient id="paint4_linear_2219_9626" x1="103.543" y1="120.447" x2="103.543" y2="129.936" gradientUnits="userSpaceOnUse">
<stop stop-color="#EAECEC"/>
<stop offset="1" stop-color="#F0F1F1"/>
</linearGradient>
<linearGradient id="paint5_linear_2219_9626" x1="157.35" y1="57.4668" x2="142.692" y2="74.478" gradientUnits="userSpaceOnUse">
<stop stop-color="#EEEEEE" stop-opacity="0.367499"/>
<stop offset="1" stop-color="#D8D8D8" stop-opacity="0.01"/>
</linearGradient>
<radialGradient id="paint6_radial_2219_9626" cx="0" cy="0" r="1" gradientUnits="userSpaceOnUse" gradientTransform="translate(131.05 171.548) rotate(-90) scale(51.4944 537.807)">
<stop stop-color="#EBEDF0" stop-opacity="0.24"/>
<stop offset="0.536775" stop-color="#EBEDF0" stop-opacity="0.845525"/>
<stop offset="1" stop-color="#E0E4E7" stop-opacity="0.01"/>
</radialGradient>
<linearGradient id="paint7_linear_2219_9626" x1="127.232" y1="156.714" x2="129.642" y2="161.867" gradientUnits="userSpaceOnUse">
<stop stop-color="#E1E7EA"/>
<stop offset="1" stop-color="#D0D6DC"/>
</linearGradient>
<linearGradient id="paint8_linear_2219_9626" x1="190.962" y1="173.757" x2="195.371" y2="182.953" gradientUnits="userSpaceOnUse">
<stop stop-color="#E1E7EA"/>
<stop offset="1" stop-color="#D0D6DC"/>
</linearGradient>
<linearGradient id="paint9_linear_2219_9626" x1="51.4713" y1="156.231" x2="53.9662" y2="166.17" gradientUnits="userSpaceOnUse">
<stop stop-color="#FBFBFB"/>
<stop offset="1" stop-color="#D9DFE3"/>
</linearGradient>
<linearGradient id="paint10_linear_2219_9626" x1="193.873" y1="158.788" x2="205.201" y2="177.335" gradientUnits="userSpaceOnUse">
<stop stop-color="#B7BFC3"/>
<stop offset="0.487221" stop-color="#D9E2E6"/>
<stop offset="1" stop-color="#E6EDF3" stop-opacity="0.01"/>
</linearGradient>
<linearGradient id="paint11_linear_2219_9626" x1="219.61" y1="151.324" x2="218.138" y2="109.179" gradientUnits="userSpaceOnUse">
<stop stop-color="#A1A7B8"/>
<stop offset="1" stop-color="#7B8195"/>
</linearGradient>
<linearGradient id="paint12_linear_2219_9626" x1="212.369" y1="79.9748" x2="212.369" y2="76.4443" gradientUnits="userSpaceOnUse">
<stop stop-color="#FBD8D6"/>
<stop offset="1" stop-color="#EAC0BE" stop-opacity="0.7"/>
</linearGradient>
<linearGradient id="paint13_linear_2219_9626" x1="184.03" y1="94.4775" x2="211.931" y2="123.911" gradientUnits="userSpaceOnUse">
<stop stop-color="#E5E9F0"/>
<stop offset="1" stop-color="#D2DAE8"/>
</linearGradient>
</defs>
</svg>
